# MagicaVoxel @ Ephtracy

# group
o Stone1_M

# material
mtllib Stone1_M.mtl
usemtl palette

# normals
vn -1 0 0
vn 1 0 0
vn 0 0 1
vn 0 0 -1
vn 0 -1 0
vn 0 1 0

# texcoords
vt 0.232422 0.5
vt 0.236328 0.5
vt 0.291016 0.5
vt 0.298828 0.5

# verts
v -0.4 0 0.1
v -0.4 0 0
v -0.4 0 -0.2
v -0.4 0.1 0.1
v -0.4 0.1 0
v -0.4 0.1 -0.1
v -0.4 0.2 0.1
v -0.4 0.2 0
v -0.4 0.2 -0.1
v -0.4 0.2 -0.2
v -0.4 0.3 0
v -0.4 0.3 -0.1
v -0.3 0 0.2
v -0.3 0 0.1
v -0.3 0 -0.2
v -0.3 0 -0.3
v -0.3 0.1 0.2
v -0.3 0.1 0.1
v -0.3 0.1 -0.2
v -0.3 0.1 -0.3
v -0.3 0.2 0.2
v -0.3 0.2 0.1
v -0.3 0.2 0
v -0.3 0.2 -0.1
v -0.3 0.2 -0.2
v -0.3 0.2 -0.3
v -0.3 0.3 0.1
v -0.3 0.3 0
v -0.3 0.3 -0.1
v -0.3 0.3 -0.2
v -0.1 0 -0.3
v -0.1 0 -0.4
v -0.1 0.1 -0.3
v -0.1 0.1 -0.4
v -0.1 0.2 -0.2
v -0.1 0.2 -0.3
v -0.1 0.2 -0.4
v -0.1 0.3 0
v -0.1 0.3 -0.1
v -0.1 0.3 -0.2
v -0.1 0.3 -0.3
v -0.1 0.4 0
v -0.1 0.4 -0.1
v 0 0 0.3
v 0 0 0.2
v 0 0.1 0.2
v 0 0.2 0.3
v 0 0.2 0.2
v 0 0.2 0.1
v 0 0.2 -0.3
v 0 0.2 -0.4
v 0 0.3 0.2
v 0 0.3 0.1
v 0 0.3 -0.1
v 0 0.3 -0.2
v 0 0.3 -0.3
v 0 0.3 -0.4
v 0 0.4 -0.1
v 0 0.4 -0.2
v 0.1 0.2 0.3
v 0.1 0.2 0.2
v 0.1 0.3 0.3
v 0.1 0.3 0.2
v 0.1 0.2 -0.3
v 0.1 0.2 -0.4
v 0.1 0.3 0
v 0.1 0.3 -0.1
v 0.1 0.3 -0.3
v 0.1 0.3 -0.4
v 0.1 0.4 0
v 0.1 0.4 -0.1
v 0.2 0 -0.3
v 0.2 0 -0.4
v 0.2 0.1 -0.3
v 0.2 0.2 0.3
v 0.2 0.2 0.2
v 0.2 0.2 -0.2
v 0.2 0.2 -0.3
v 0.2 0.2 -0.4
v 0.2 0.3 0.3
v 0.2 0.3 0.2
v 0.2 0.3 -0.1
v 0.2 0.3 -0.2
v 0.2 0.3 -0.3
v 0.2 0.4 -0.1
v 0.2 0.4 -0.2
v 0.3 0 0.3
v 0.3 0 0.2
v 0.3 0.1 0.3
v 0.3 0.1 0.2
v 0.3 0.2 0.3
v 0.3 0.2 0.2
v 0.3 0.2 0.1
v 0.3 0.3 0.2
v 0.3 0.3 0.1
v 0.4 0 0.2
v 0.4 0 0.1
v 0.4 0 -0.2
v 0.4 0 -0.3
v 0.4 0.1 0.2
v 0.4 0.1 0.1
v 0.4 0.1 -0.2
v 0.4 0.1 -0.3
v 0.4 0.2 0.2
v 0.4 0.2 0.1
v 0.4 0.2 0
v 0.4 0.2 -0.1
v 0.4 0.2 -0.2
v 0.4 0.2 -0.3
v 0.4 0.3 0.1
v 0.4 0.3 0
v 0.4 0.3 -0.1
v 0.4 0.3 -0.2
v 0.5 0 0.1
v 0.5 0 0
v 0.5 0 -0.1
v 0.5 0 -0.2
v 0.5 0.1 0.1
v 0.5 0.1 0
v 0.5 0.1 -0.1
v 0.5 0.1 -0.2
v 0.5 0.2 0.1
v 0.5 0.2 0
v 0.5 0.2 -0.1
v 0.5 0.2 -0.2
v 0.5 0.3 0
v 0.5 0.3 -0.1
v 0 0 0.3
v 0 0.2 0.3
v 0.1 0.2 0.3
v 0.1 0.3 0.3
v 0.2 0.1 0.3
v 0.2 0.2 0.3
v 0.2 0.3 0.3
v 0.3 0 0.3
v 0.3 0.1 0.3
v 0.3 0.2 0.3
v -0.3 0 0.2
v -0.3 0.1 0.2
v -0.3 0.2 0.2
v -0.2 0 0.2
v -0.2 0.1 0.2
v -0.2 0.2 0.2
v -0.1 0 0.2
v -0.1 0.1 0.2
v 0 0 0.2
v 0 0.1 0.2
v 0 0.2 0.2
v 0 0.3 0.2
v 0.1 0.2 0.2
v 0.1 0.3 0.2
v 0.2 0.2 0.2
v 0.2 0.3 0.2
v 0.3 0 0.2
v 0.3 0.1 0.2
v 0.3 0.2 0.2
v 0.3 0.3 0.2
v 0.4 0 0.2
v 0.4 0.1 0.2
v 0.4 0.2 0.2
v -0.4 0 0.1
v -0.4 0.1 0.1
v -0.4 0.2 0.1
v -0.3 0 0.1
v -0.3 0.1 0.1
v -0.3 0.2 0.1
v -0.3 0.3 0.1
v -0.2 0.2 0.1
v -0.2 0.3 0.1
v -0.1 0.2 0.1
v -0.1 0.3 0.1
v 0 0.2 0.1
v 0 0.3 0.1
v 0.3 0.2 0.1
v 0.3 0.3 0.1
v 0.4 0 0.1
v 0.4 0.1 0.1
v 0.4 0.2 0.1
v 0.4 0.3 0.1
v 0.5 0 0.1
v 0.5 0.1 0.1
v 0.5 0.2 0.1
v -0.4 0.2 0
v -0.4 0.3 0
v -0.3 0.2 0
v -0.3 0.3 0
v -0.1 0.3 0
v -0.1 0.4 0
v 0 0.3 0
v 0.1 0.3 0
v 0.1 0.4 0
v 0.4 0.2 0
v 0.4 0.3 0
v 0.5 0.2 0
v 0.5 0.3 0
v 0.1 0.3 -0.1
v 0.1 0.4 -0.1
v 0.2 0.3 -0.1
v 0.2 0.4 -0.1
v -0.4 0.2 -0.1
v -0.4 0.3 -0.1
v -0.3 0.2 -0.1
v -0.3 0.3 -0.1
v -0.1 0.3 -0.1
v -0.1 0.4 -0.1
v 0 0.3 -0.1
v 0 0.4 -0.1
v 0.4 0.2 -0.1
v 0.4 0.3 -0.1
v 0.5 0.2 -0.1
v 0.5 0.3 -0.1
v -0.4 0 -0.2
v -0.4 0.2 -0.2
v -0.3 0 -0.2
v -0.3 0.1 -0.2
v -0.3 0.2 -0.2
v -0.3 0.3 -0.2
v -0.2 0.2 -0.2
v -0.2 0.3 -0.2
v -0.1 0.2 -0.2
v -0.1 0.3 -0.2
v 0 0.3 -0.2
v 0 0.4 -0.2
v 0.1 0.3 -0.2
v 0.2 0.2 -0.2
v 0.2 0.3 -0.2
v 0.2 0.4 -0.2
v 0.3 0.2 -0.2
v 0.4 0 -0.2
v 0.4 0.1 -0.2
v 0.4 0.2 -0.2
v 0.4 0.3 -0.2
v 0.5 0 -0.2
v 0.5 0.1 -0.2
v 0.5 0.2 -0.2
v -0.3 0 -0.3
v -0.3 0.1 -0.3
v -0.3 0.2 -0.3
v -0.2 0.1 -0.3
v -0.2 0.2 -0.3
v -0.1 0 -0.3
v -0.1 0.1 -0.3
v -0.1 0.2 -0.3
v -0.1 0.3 -0.3
v 0 0.2 -0.3
v 0 0.3 -0.3
v 0.1 0.2 -0.3
v 0.1 0.3 -0.3
v 0.2 0 -0.3
v 0.2 0.1 -0.3
v 0.2 0.2 -0.3
v 0.2 0.3 -0.3
v 0.3 0 -0.3
v 0.3 0.1 -0.3
v 0.3 0.2 -0.3
v 0.4 0 -0.3
v 0.4 0.1 -0.3
v 0.4 0.2 -0.3
v -0.1 0 -0.4
v -0.1 0.1 -0.4
v -0.1 0.2 -0.4
v 0 0 -0.4
v 0 0.1 -0.4
v 0 0.2 -0.4
v 0 0.3 -0.4
v 0.1 0.1 -0.4
v 0.1 0.2 -0.4
v 0.1 0.3 -0.4
v 0.2 0 -0.4
v 0.2 0.2 -0.4
v 0 0 0.3
v 0.3 0 0.3
v -0.3 0 0.2
v -0.2 0 0.2
v -0.1 0 0.2
v 0 0 0.2
v 0.3 0 0.2
v 0.4 0 0.2
v -0.4 0 0.1
v -0.3 0 0.1
v -0.2 0 0.1
v -0.1 0 0.1
v 0.4 0 0.1
v 0.5 0 0.1
v -0.4 0 0
v -0.3 0 0
v 0.4 0 0
v 0.5 0 0
v 0.4 0 -0.1
v 0.5 0 -0.1
v -0.4 0 -0.2
v -0.3 0 -0.2
v -0.1 0 -0.2
v 0.3 0 -0.2
v 0.4 0 -0.2
v 0.5 0 -0.2
v -0.3 0 -0.3
v -0.1 0 -0.3
v 0 0 -0.3
v 0.2 0 -0.3
v 0.3 0 -0.3
v 0.4 0 -0.3
v -0.1 0 -0.4
v 0 0 -0.4
v 0.2 0 -0.4
v 0 0.2 0.3
v 0.1 0.2 0.3
v 0.2 0.2 0.3
v 0.3 0.2 0.3
v -0.3 0.2 0.2
v -0.2 0.2 0.2
v 0 0.2 0.2
v 0.1 0.2 0.2
v 0.2 0.2 0.2
v 0.3 0.2 0.2
v 0.4 0.2 0.2
v -0.4 0.2 0.1
v -0.3 0.2 0.1
v -0.2 0.2 0.1
v -0.1 0.2 0.1
v 0 0.2 0.1
v 0.3 0.2 0.1
v 0.4 0.2 0.1
v 0.5 0.2 0.1
v -0.4 0.2 0
v -0.3 0.2 0
v 0.4 0.2 0
v 0.5 0.2 0
v -0.4 0.2 -0.1
v -0.3 0.2 -0.1
v 0.4 0.2 -0.1
v 0.5 0.2 -0.1
v -0.4 0.2 -0.2
v -0.3 0.2 -0.2
v -0.2 0.2 -0.2
v -0.1 0.2 -0.2
v 0.2 0.2 -0.2
v 0.3 0.2 -0.2
v 0.4 0.2 -0.2
v 0.5 0.2 -0.2
v -0.3 0.2 -0.3
v -0.2 0.2 -0.3
v -0.1 0.2 -0.3
v 0 0.2 -0.3
v 0.1 0.2 -0.3
v 0.2 0.2 -0.3
v 0.3 0.2 -0.3
v 0.4 0.2 -0.3
v -0.1 0.2 -0.4
v 0 0.2 -0.4
v 0.1 0.2 -0.4
v 0.2 0.2 -0.4
v 0.1 0.3 0.3
v 0.2 0.3 0.3
v 0 0.3 0.2
v 0.1 0.3 0.2
v 0.2 0.3 0.2
v 0.3 0.3 0.2
v -0.3 0.3 0.1
v -0.2 0.3 0.1
v -0.1 0.3 0.1
v 0 0.3 0.1
v 0.1 0.3 0.1
v 0.2 0.3 0.1
v 0.3 0.3 0.1
v 0.4 0.3 0.1
v -0.4 0.3 0
v -0.3 0.3 0
v -0.2 0.3 0
v -0.1 0.3 0
v 0 0.3 0
v 0.1 0.3 0
v 0.2 0.3 0
v 0.3 0.3 0
v 0.4 0.3 0
v 0.5 0.3 0
v -0.4 0.3 -0.1
v -0.3 0.3 -0.1
v -0.2 0.3 -0.1
v -0.1 0.3 -0.1
v 0 0.3 -0.1
v 0.1 0.3 -0.1
v 0.2 0.3 -0.1
v 0.3 0.3 -0.1
v 0.4 0.3 -0.1
v 0.5 0.3 -0.1
v -0.3 0.3 -0.2
v -0.2 0.3 -0.2
v -0.1 0.3 -0.2
v 0 0.3 -0.2
v 0.1 0.3 -0.2
v 0.2 0.3 -0.2
v 0.4 0.3 -0.2
v -0.1 0.3 -0.3
v 0 0.3 -0.3
v 0.1 0.3 -0.3
v 0.2 0.3 -0.3
v 0 0.3 -0.4
v 0.1 0.3 -0.4
v -0.1 0.4 0
v 0.1 0.4 0
v -0.1 0.4 -0.1
v 0 0.4 -0.1
v 0.1 0.4 -0.1
v 0.2 0.4 -0.1
v 0 0.4 -0.2
v 0.2 0.4 -0.2

# faces
f 4/1/1 2/1/1 1/1/1
f 5/4/1 3/4/1 2/4/1
f 5/1/1 2/1/1 4/1/1
f 6/4/1 3/4/1 5/4/1
f 7/3/1 5/3/1 4/3/1
f 7/3/1 6/3/1 5/3/1
f 8/3/1 6/3/1 7/3/1
f 9/4/1 3/4/1 6/4/1
f 9/3/1 6/3/1 8/3/1
f 10/4/1 3/4/1 9/4/1
f 11/3/1 9/3/1 8/3/1
f 12/3/1 9/3/1 11/3/1
f 17/2/1 14/2/1 13/2/1
f 18/2/1 14/2/1 17/2/1
f 19/1/1 16/1/1 15/1/1
f 20/1/1 16/1/1 19/1/1
f 21/3/1 18/3/1 17/3/1
f 22/3/1 18/3/1 21/3/1
f 25/2/1 20/2/1 19/2/1
f 26/2/1 20/2/1 25/2/1
f 27/2/1 23/2/1 22/2/1
f 28/2/1 23/2/1 27/2/1
f 29/4/1 25/4/1 24/4/1
f 30/4/1 25/4/1 29/4/1
f 33/1/1 32/1/1 31/1/1
f 34/1/1 32/1/1 33/1/1
f 36/3/1 34/3/1 33/3/1
f 37/3/1 34/3/1 36/3/1
f 40/4/1 36/4/1 35/4/1
f 41/4/1 36/4/1 40/4/1
f 42/1/1 39/1/1 38/1/1
f 43/1/1 39/1/1 42/1/1
f 46/4/1 45/4/1 44/4/1
f 47/4/1 46/4/1 44/4/1
f 48/4/1 46/4/1 47/4/1
f 52/3/1 49/3/1 48/3/1
f 53/3/1 49/3/1 52/3/1
f 56/4/1 51/4/1 50/4/1
f 57/4/1 51/4/1 56/4/1
f 58/1/1 55/1/1 54/1/1
f 59/1/1 55/1/1 58/1/1
f 62/2/1 61/2/1 60/2/1
f 63/2/1 61/2/1 62/2/1
f 64/4/2 65/4/2 68/4/2
f 68/4/2 65/4/2 69/4/2
f 66/1/2 67/1/2 70/1/2
f 70/1/2 67/1/2 71/1/2
f 72/4/2 73/4/2 74/4/2
f 74/4/2 73/4/2 78/4/2
f 78/4/2 73/4/2 79/4/2
f 75/2/2 76/2/2 80/2/2
f 80/2/2 76/2/2 81/2/2
f 77/3/2 78/3/2 83/3/2
f 83/3/2 78/3/2 84/3/2
f 82/1/2 83/1/2 85/1/2
f 85/1/2 83/1/2 86/1/2
f 87/4/2 88/4/2 89/4/2
f 89/4/2 88/4/2 90/4/2
f 89/1/2 90/1/2 91/1/2
f 91/1/2 90/1/2 92/1/2
f 92/1/2 93/1/2 94/1/2
f 94/1/2 93/1/2 95/1/2
f 96/4/2 97/4/2 100/4/2
f 100/4/2 97/4/2 101/4/2
f 98/1/2 99/1/2 102/1/2
f 102/1/2 99/1/2 103/1/2
f 100/2/2 101/2/2 104/2/2
f 104/2/2 101/2/2 105/2/2
f 102/2/2 103/2/2 108/2/2
f 108/2/2 103/2/2 109/2/2
f 105/3/2 106/3/2 110/3/2
f 110/3/2 106/3/2 111/3/2
f 107/1/2 108/1/2 112/1/2
f 112/1/2 108/1/2 113/1/2
f 114/3/2 115/3/2 118/3/2
f 115/4/2 116/4/2 119/4/2
f 118/3/2 115/3/2 119/3/2
f 116/2/2 117/2/2 120/2/2
f 119/4/2 116/4/2 120/4/2
f 120/2/2 117/2/2 121/2/2
f 118/4/2 119/4/2 122/4/2
f 119/4/2 120/4/2 122/4/2
f 122/4/2 120/4/2 123/4/2
f 120/1/2 121/1/2 124/1/2
f 123/4/2 120/4/2 124/4/2
f 124/1/2 121/1/2 125/1/2
f 123/4/2 124/4/2 126/4/2
f 126/4/2 124/4/2 127/4/2
f 130/4/3 129/4/3 128/4/3
f 132/4/3 130/4/3 128/4/3
f 133/2/3 131/2/3 130/2/3
f 133/4/3 130/4/3 132/4/3
f 134/2/3 131/2/3 133/2/3
f 135/4/3 132/4/3 128/4/3
f 136/1/3 133/1/3 132/1/3
f 136/4/3 132/4/3 135/4/3
f 137/1/3 133/1/3 136/1/3
f 141/2/3 139/2/3 138/2/3
f 142/3/3 140/3/3 139/3/3
f 142/2/3 139/2/3 141/2/3
f 143/3/3 140/3/3 142/3/3
f 144/1/3 142/1/3 141/1/3
f 144/1/3 143/1/3 142/1/3
f 145/1/3 143/1/3 144/1/3
f 146/4/3 145/4/3 144/4/3
f 147/1/3 143/1/3 145/1/3
f 147/4/3 145/4/3 146/4/3
f 148/1/3 143/1/3 147/1/3
f 150/3/3 149/3/3 148/3/3
f 151/3/3 149/3/3 150/3/3
f 156/1/3 153/1/3 152/1/3
f 157/1/3 153/1/3 156/1/3
f 158/4/3 155/4/3 154/4/3
f 159/2/3 156/2/3 155/2/3
f 159/4/3 155/4/3 158/4/3
f 160/2/3 156/2/3 159/2/3
f 164/1/3 162/1/3 161/1/3
f 165/3/3 163/3/3 162/3/3
f 165/1/3 162/1/3 164/1/3
f 166/3/3 163/3/3 165/3/3
f 168/2/3 167/2/3 166/2/3
f 169/2/3 167/2/3 168/2/3
f 170/1/3 169/1/3 168/1/3
f 171/1/3 169/1/3 170/1/3
f 172/2/3 171/2/3 170/2/3
f 173/2/3 171/2/3 172/2/3
f 178/3/3 175/3/3 174/3/3
f 179/3/3 175/3/3 178/3/3
f 180/3/3 177/3/3 176/3/3
f 181/4/3 178/4/3 177/4/3
f 181/3/3 177/3/3 180/3/3
f 182/4/3 178/4/3 181/4/3
f 185/3/3 184/3/3 183/3/3
f 186/3/3 184/3/3 185/3/3
f 189/1/3 188/1/3 187/1/3
f 190/1/3 188/1/3 189/1/3
f 191/1/3 188/1/3 190/1/3
f 194/4/3 193/4/3 192/4/3
f 195/4/3 193/4/3 194/4/3
f 198/1/3 197/1/3 196/1/3
f 199/1/3 197/1/3 198/1/3
f 200/3/4 201/3/4 202/3/4
f 202/3/4 201/3/4 203/3/4
f 204/1/4 205/1/4 206/1/4
f 206/1/4 205/1/4 207/1/4
f 208/4/4 209/4/4 210/4/4
f 210/4/4 209/4/4 211/4/4
f 212/4/4 213/4/4 214/4/4
f 214/4/4 213/4/4 215/4/4
f 215/4/4 213/4/4 216/4/4
f 216/4/4 217/4/4 218/4/4
f 218/4/4 217/4/4 219/4/4
f 218/2/4 219/2/4 220/2/4
f 220/2/4 219/2/4 221/2/4
f 222/1/4 223/1/4 224/1/4
f 224/1/4 223/1/4 226/1/4
f 226/1/4 223/1/4 227/1/4
f 225/1/4 226/1/4 228/1/4
f 228/1/4 226/1/4 231/1/4
f 231/1/4 226/1/4 232/1/4
f 229/2/4 230/2/4 233/2/4
f 230/1/4 231/1/4 234/1/4
f 233/2/4 230/2/4 234/2/4
f 234/1/4 231/1/4 235/1/4
f 236/1/4 237/1/4 239/1/4
f 237/2/4 238/2/4 239/2/4
f 239/2/4 238/2/4 240/2/4
f 236/1/4 239/1/4 241/1/4
f 239/3/4 240/3/4 242/3/4
f 241/1/4 239/1/4 242/1/4
f 242/3/4 240/3/4 243/3/4
f 243/4/4 244/4/4 245/4/4
f 245/4/4 244/4/4 246/4/4
f 247/3/4 248/3/4 251/3/4
f 251/3/4 248/3/4 252/3/4
f 249/4/4 250/4/4 253/4/4
f 250/3/4 251/3/4 254/3/4
f 253/4/4 250/4/4 254/4/4
f 254/3/4 251/3/4 255/3/4
f 253/1/4 254/1/4 256/1/4
f 254/2/4 255/2/4 257/2/4
f 256/1/4 254/1/4 257/1/4
f 257/2/4 255/2/4 258/2/4
f 259/1/4 260/1/4 262/1/4
f 260/3/4 261/3/4 263/3/4
f 262/1/4 260/1/4 263/1/4
f 263/3/4 261/3/4 264/3/4
f 262/4/4 263/4/4 266/4/4
f 263/3/4 264/3/4 266/3/4
f 264/4/4 265/4/4 267/4/4
f 266/3/4 264/3/4 267/3/4
f 267/4/4 265/4/4 268/4/4
f 262/4/4 266/4/4 269/4/4
f 266/4/4 267/4/4 269/4/4
f 269/4/4 267/4/4 270/4/4
f 276/4/5 272/4/5 271/4/5
f 277/4/5 272/4/5 276/4/5
f 280/2/5 274/2/5 273/2/5
f 281/1/5 275/1/5 274/1/5
f 281/2/5 274/2/5 280/2/5
f 282/4/5 278/4/5 277/4/5
f 282/1/5 275/1/5 281/1/5
f 282/4/5 276/4/5 275/4/5
f 282/4/5 277/4/5 276/4/5
f 283/4/5 278/4/5 282/4/5
f 285/1/5 280/1/5 279/1/5
f 286/4/5 281/4/5 280/4/5
f 286/1/5 280/1/5 285/1/5
f 286/4/5 282/4/5 281/4/5
f 286/4/5 283/4/5 282/4/5
f 287/3/5 284/3/5 283/3/5
f 287/4/5 283/4/5 286/4/5
f 288/3/5 284/3/5 287/3/5
f 289/4/5 286/4/5 285/4/5
f 289/4/5 287/4/5 286/4/5
f 289/4/5 288/4/5 287/4/5
f 290/4/5 288/4/5 289/4/5
f 291/4/5 289/4/5 285/4/5
f 292/4/5 289/4/5 291/4/5
f 293/4/5 289/4/5 292/4/5
f 294/4/5 289/4/5 293/4/5
f 295/2/5 290/2/5 289/2/5
f 295/4/5 289/4/5 294/4/5
f 296/2/5 290/2/5 295/2/5
f 297/1/5 293/1/5 292/1/5
f 298/4/5 294/4/5 293/4/5
f 298/1/5 293/1/5 297/1/5
f 299/4/5 294/4/5 298/4/5
f 300/4/5 294/4/5 299/4/5
f 301/1/5 295/1/5 294/1/5
f 301/4/5 294/4/5 300/4/5
f 302/1/5 295/1/5 301/1/5
f 303/1/5 299/1/5 298/1/5
f 304/4/5 300/4/5 299/4/5
f 304/1/5 299/1/5 303/1/5
f 305/4/5 300/4/5 304/4/5
f 306/4/6 307/4/6 312/4/6
f 312/4/6 307/4/6 313/4/6
f 308/1/6 309/1/6 314/1/6
f 314/1/6 309/1/6 315/1/6
f 310/3/6 311/3/6 318/3/6
f 311/1/6 312/1/6 319/1/6
f 318/3/6 311/3/6 319/3/6
f 319/1/6 312/1/6 320/1/6
f 320/1/6 312/1/6 321/1/6
f 315/2/6 316/2/6 322/2/6
f 322/2/6 316/2/6 323/2/6
f 317/3/6 318/3/6 325/3/6
f 325/3/6 318/3/6 326/3/6
f 323/4/6 324/4/6 327/4/6
f 327/4/6 324/4/6 328/4/6
f 329/4/6 330/4/6 333/4/6
f 333/4/6 330/4/6 334/4/6
f 331/1/6 332/1/6 339/1/6
f 339/1/6 332/1/6 340/1/6
f 334/2/6 335/2/6 341/2/6
f 335/3/6 336/3/6 342/3/6
f 341/2/6 335/2/6 342/2/6
f 342/3/6 336/3/6 343/3/6
f 337/3/6 338/3/6 346/3/6
f 338/2/6 339/2/6 347/2/6
f 346/3/6 338/3/6 347/3/6
f 347/2/6 339/2/6 348/2/6
f 343/3/6 344/3/6 349/3/6
f 349/3/6 344/3/6 350/3/6
f 345/4/6 346/4/6 351/4/6
f 351/4/6 346/4/6 352/4/6
f 353/2/6 354/2/6 356/2/6
f 356/2/6 354/2/6 357/2/6
f 355/3/6 356/3/6 362/3/6
f 356/1/6 357/1/6 363/1/6
f 357/1/6 358/1/6 363/1/6
f 362/3/6 356/3/6 363/3/6
f 363/1/6 358/1/6 364/1/6
f 364/1/6 358/1/6 365/1/6
f 359/2/6 360/2/6 368/2/6
f 360/1/6 361/1/6 369/1/6
f 368/2/6 360/2/6 369/2/6
f 361/2/6 362/2/6 370/2/6
f 369/1/6 361/1/6 370/1/6
f 362/1/6 363/1/6 371/1/6
f 370/2/6 362/2/6 371/2/6
f 363/4/6 364/4/6 372/4/6
f 371/1/6 363/1/6 372/1/6
f 365/3/6 366/3/6 373/3/6
f 372/4/6 364/4/6 373/4/6
f 364/3/6 365/3/6 373/3/6
f 373/3/6 366/3/6 374/3/6
f 374/3/6 366/3/6 375/3/6
f 367/3/6 368/3/6 377/3/6
f 368/1/6 369/1/6 378/1/6
f 377/3/6 368/3/6 378/3/6
f 369/1/6 370/1/6 378/1/6
f 378/1/6 370/1/6 379/1/6
f 379/1/6 370/1/6 380/1/6
f 372/2/6 373/2/6 382/2/6
f 373/1/6 374/1/6 383/1/6
f 382/2/6 373/2/6 383/2/6
f 375/4/6 376/4/6 384/4/6
f 383/1/6 374/1/6 384/1/6
f 374/4/6 375/4/6 384/4/6
f 384/4/6 376/4/6 385/4/6
f 385/4/6 376/4/6 386/4/6
f 378/4/6 379/4/6 387/4/6
f 379/2/6 380/2/6 388/2/6
f 387/4/6 379/4/6 388/4/6
f 380/1/6 381/1/6 389/1/6
f 388/2/6 380/2/6 389/2/6
f 389/1/6 381/1/6 390/1/6
f 384/1/6 385/1/6 392/1/6
f 383/1/6 384/1/6 392/1/6
f 392/1/6 385/1/6 393/1/6
f 389/4/6 390/4/6 394/4/6
f 390/1/6 391/1/6 395/1/6
f 394/4/6 390/4/6 395/4/6
f 391/3/6 392/3/6 396/3/6
f 395/1/6 391/1/6 396/1/6
f 396/3/6 392/3/6 397/3/6
f 395/4/6 396/4/6 398/4/6
f 398/4/6 396/4/6 399/4/6
f 400/1/6 401/1/6 402/1/6
f 402/1/6 401/1/6 403/1/6
f 403/1/6 401/1/6 404/1/6
f 404/1/6 405/1/6 406/1/6
f 403/1/6 404/1/6 406/1/6
f 406/1/6 405/1/6 407/1/6
