# MagicaVoxel @ Ephtracy

# group
o Mushroom5

# material
mtllib Mushroom5.mtl
usemtl palette

# normals
vn -1 0 0
vn 1 0 0
vn 0 0 1
vn 0 0 -1
vn 0 -1 0
vn 0 1 0

# texcoords
vt 0.189453 0.5
vt 0.365234 0.5
vt 0.369141 0.5

# verts
v -0.5 0 0
v -0.5 0 -0.1
v -0.5 0.1 0
v -0.5 0.1 -0.1
v -0.5 0.4 0.1
v -0.5 0.4 -0.1
v -0.5 0.4 -0.2
v -0.5 0.5 0.1
v -0.5 0.5 -0.1
v -0.5 0.5 -0.2
v -0.4 0.4 0.2
v -0.4 0.4 0.1
v -0.4 0.4 -0.2
v -0.4 0.4 -0.3
v -0.4 0.5 0.2
v -0.4 0.5 0.1
v -0.4 0.5 0
v -0.4 0.5 -0.1
v -0.4 0.5 -0.2
v -0.4 0.5 -0.3
v -0.4 0.6 0.1
v -0.4 0.6 0
v -0.4 0.6 -0.2
v -0.3 0 0.2
v -0.3 0 0.1
v -0.3 0 -0.3
v -0.3 0 -0.4
v -0.3 0.1 0.2
v -0.3 0.1 0.1
v -0.3 0.1 -0.3
v -0.3 0.1 -0.4
v -0.3 0.2 0.2
v -0.3 0.2 0.1
v -0.3 0.3 0.2
v -0.3 0.3 0.1
v -0.3 0.4 0.3
v -0.3 0.4 0.2
v -0.3 0.4 -0.3
v -0.3 0.4 -0.4
v -0.3 0.5 0.3
v -0.3 0.5 0.2
v -0.3 0.5 0.1
v -0.3 0.5 -0.2
v -0.3 0.5 -0.3
v -0.3 0.5 -0.4
v -0.3 0.6 0.2
v -0.3 0.6 0.1
v -0.3 0.6 0
v -0.3 0.6 -0.1
v -0.3 0.6 -0.2
v -0.3 0.6 -0.3
v -0.3 0.7 0
v -0.3 0.7 -0.1
v -0.2 0.2 0
v -0.2 0.2 -0.1
v -0.2 0.5 0
v -0.2 0.5 -0.1
v -0.2 0.6 0.1
v -0.2 0.6 0
v -0.2 0.6 -0.1
v -0.2 0.6 -0.2
v -0.2 0.7 0.1
v -0.2 0.7 0
v -0.2 0.7 -0.1
v -0.2 0.7 -0.2
v -0.1 0 0
v -0.1 0 -0.1
v -0.1 0.2 0
v -0.1 0.2 -0.1
v -0.1 0.5 0.1
v -0.1 0.5 0
v -0.1 0.5 -0.1
v -0.1 0.5 -0.2
v -0.1 0.6 0.1
v -0.1 0.6 0
v -0.1 0.6 -0.1
v -0.1 0.6 -0.2
v 0 0.4 0.2
v 0 0.4 0.1
v 0 0.4 -0.2
v 0 0.4 -0.3
v 0 0.5 0.2
v 0 0.5 0.1
v 0 0.5 0
v 0 0.5 -0.1
v 0 0.5 -0.2
v 0 0.5 -0.3
v 0 0.6 0
v 0 0.6 -0.1
v 0.1 0 0.2
v 0.1 0 0.1
v 0.1 0.1 0.2
v 0.1 0.1 0.1
v 0.1 0.4 0.1
v 0.1 0.4 0
v 0.1 0.4 -0.2
v 0.1 0.5 0.1
v 0.1 0.5 0
v 0.1 0.5 -0.1
v 0.1 0.5 -0.2
v 0.2 0 -0.2
v 0.2 0 -0.3
v 0.2 0.1 -0.2
v 0.2 0.1 -0.3
v 0.2 0.3 -0.2
v 0.2 0.3 -0.3
v 0.3 0.2 0
v 0.3 0.2 -0.1
v 0.3 0.3 0
v 0.3 0.3 -0.1
v 0.3 0.5 0
v 0.3 0.5 -0.1
v 0.4 0 0
v 0.4 0 -0.1
v 0.4 0.2 0.1
v 0.4 0.2 0
v 0.4 0.2 -0.1
v 0.4 0.2 -0.2
v 0.4 0.3 0
v 0.4 0.3 -0.1
v 0.4 0.3 -0.2
v 0.4 0.4 0.1
v 0.4 0.4 0
v 0.4 0.4 -0.1
v 0.4 0.4 -0.2
v 0.4 0.5 0.1
v 0.4 0.5 0
v 0.4 0.5 -0.1
v 0.4 0.5 -0.2
v 0.4 0.6 0
v 0.4 0.6 -0.1
v 0.5 0 -0.2
v 0.5 0 -0.3
v 0.5 0.1 -0.2
v 0.5 0.1 -0.3
v -0.4 0 0
v -0.4 0 -0.1
v -0.4 0.1 0
v -0.4 0.1 -0.1
v -0.4 0.4 0.1
v -0.4 0.4 -0.1
v -0.4 0.4 -0.2
v -0.4 0.5 0.1
v -0.4 0.5 0
v -0.4 0.5 -0.1
v -0.4 0.5 -0.2
v -0.3 0.4 0.2
v -0.3 0.4 0.1
v -0.3 0.4 -0.2
v -0.3 0.4 -0.3
v -0.3 0.5 0.2
v -0.3 0.5 0.1
v -0.3 0.5 0
v -0.3 0.5 -0.1
v -0.3 0.5 -0.2
v -0.3 0.5 -0.3
v -0.3 0.6 0
v -0.3 0.6 -0.1
v -0.2 0 0.2
v -0.2 0 0.1
v -0.2 0 -0.3
v -0.2 0 -0.4
v -0.2 0.1 0.2
v -0.2 0.1 0.1
v -0.2 0.1 -0.3
v -0.2 0.1 -0.4
v -0.2 0.2 0.2
v -0.2 0.2 0.1
v -0.2 0.3 0.2
v -0.2 0.3 0.1
v -0.2 0.5 0.1
v -0.2 0.5 0
v -0.2 0.5 -0.1
v -0.2 0.5 -0.2
v -0.2 0.6 0.1
v -0.2 0.6 0
v -0.2 0.6 -0.1
v -0.2 0.6 -0.2
v -0.1 0.3 0
v -0.1 0.3 -0.1
v -0.1 0.5 0
v -0.1 0.5 -0.1
v -0.1 0.6 0.1
v -0.1 0.6 0
v -0.1 0.6 -0.1
v -0.1 0.6 -0.2
v -0.1 0.7 0.1
v -0.1 0.7 0
v -0.1 0.7 -0.1
v -0.1 0.7 -0.2
v 0 0 0
v 0 0 -0.1
v 0 0.3 0
v 0 0.3 -0.1
v 0 0.4 0.3
v 0 0.4 0.2
v 0 0.4 -0.3
v 0 0.4 -0.4
v 0 0.5 0.3
v 0 0.5 0.2
v 0 0.5 0.1
v 0 0.5 -0.2
v 0 0.5 -0.3
v 0 0.5 -0.4
v 0 0.6 0.2
v 0 0.6 0.1
v 0 0.6 0
v 0 0.6 -0.1
v 0 0.6 -0.2
v 0 0.6 -0.3
v 0 0.7 0
v 0 0.7 -0.1
v 0.1 0.4 0.2
v 0.1 0.4 0.1
v 0.1 0.4 -0.2
v 0.1 0.4 -0.3
v 0.1 0.5 0.2
v 0.1 0.5 0.1
v 0.1 0.5 0
v 0.1 0.5 -0.1
v 0.1 0.5 -0.2
v 0.1 0.5 -0.3
v 0.1 0.6 0.1
v 0.1 0.6 -0.1
v 0.1 0.6 -0.2
v 0.2 0 0.2
v 0.2 0 0.1
v 0.2 0.1 0.2
v 0.2 0.1 0.1
v 0.2 0.4 0.1
v 0.2 0.4 0
v 0.2 0.4 -0.2
v 0.2 0.5 0.1
v 0.2 0.5 0
v 0.2 0.5 -0.2
v 0.3 0 -0.2
v 0.3 0 -0.3
v 0.3 0.1 -0.2
v 0.3 0.1 -0.3
v 0.3 0.3 -0.2
v 0.3 0.3 -0.3
v 0.5 0 0
v 0.5 0 -0.1
v 0.5 0.2 0.1
v 0.5 0.2 0
v 0.5 0.2 -0.1
v 0.5 0.2 -0.2
v 0.5 0.3 0
v 0.5 0.3 -0.1
v 0.5 0.3 -0.2
v 0.5 0.4 0.1
v 0.5 0.4 0
v 0.5 0.4 -0.1
v 0.5 0.4 -0.2
v 0.5 0.5 0.1
v 0.5 0.5 0
v 0.5 0.5 -0.1
v 0.5 0.5 -0.2
v 0.5 0.6 0
v 0.5 0.6 -0.1
v 0.6 0 -0.2
v 0.6 0 -0.3
v 0.6 0.1 -0.2
v 0.6 0.1 -0.3
v 0.6 0.2 0
v 0.6 0.2 -0.1
v 0.6 0.3 0
v 0.6 0.3 -0.1
v 0.6 0.5 0
v 0.6 0.5 -0.1
v -0.3 0.4 0.3
v -0.3 0.5 0.3
v -0.2 0.4 0.3
v -0.2 0.5 0.3
v 0 0.4 0.3
v 0 0.5 0.3
v -0.4 0.4 0.2
v -0.4 0.5 0.2
v -0.3 0 0.2
v -0.3 0.1 0.2
v -0.3 0.2 0.2
v -0.3 0.3 0.2
v -0.3 0.4 0.2
v -0.3 0.5 0.2
v -0.3 0.6 0.2
v -0.2 0 0.2
v -0.2 0.1 0.2
v -0.2 0.2 0.2
v -0.2 0.3 0.2
v -0.2 0.5 0.2
v -0.1 0.5 0.2
v -0.1 0.6 0.2
v 0 0.4 0.2
v 0 0.5 0.2
v 0 0.6 0.2
v 0.1 0 0.2
v 0.1 0.1 0.2
v 0.1 0.4 0.2
v 0.1 0.5 0.2
v 0.2 0 0.2
v 0.2 0.1 0.2
v -0.5 0.4 0.1
v -0.5 0.5 0.1
v -0.4 0.4 0.1
v -0.4 0.5 0.1
v -0.4 0.6 0.1
v -0.3 0.5 0.1
v -0.3 0.6 0.1
v -0.2 0.6 0.1
v -0.2 0.7 0.1
v -0.1 0.6 0.1
v -0.1 0.7 0.1
v 0 0.5 0.1
v 0 0.6 0.1
v 0.1 0.4 0.1
v 0.1 0.5 0.1
v 0.1 0.6 0.1
v 0.2 0.4 0.1
v 0.2 0.5 0.1
v 0.4 0.2 0.1
v 0.4 0.4 0.1
v 0.4 0.5 0.1
v 0.5 0.2 0.1
v 0.5 0.4 0.1
v 0.5 0.5 0.1
v -0.5 0 0
v -0.5 0.1 0
v -0.4 0 0
v -0.4 0.1 0
v -0.3 0.6 0
v -0.3 0.7 0
v -0.2 0.2 0
v -0.2 0.5 0
v -0.2 0.6 0
v -0.2 0.7 0
v -0.1 0 0
v -0.1 0.2 0
v -0.1 0.3 0
v -0.1 0.5 0
v -0.1 0.6 0
v -0.1 0.7 0
v 0 0 0
v 0 0.3 0
v 0 0.6 0
v 0 0.7 0
v 0.3 0.2 0
v 0.3 0.3 0
v 0.3 0.5 0
v 0.4 0 0
v 0.4 0.2 0
v 0.4 0.3 0
v 0.4 0.4 0
v 0.4 0.5 0
v 0.4 0.6 0
v 0.5 0 0
v 0.5 0.2 0
v 0.5 0.3 0
v 0.5 0.4 0
v 0.5 0.5 0
v 0.5 0.6 0
v 0.6 0.2 0
v 0.6 0.3 0
v 0.6 0.5 0
v -0.3 0.5 -0.1
v -0.3 0.6 -0.1
v -0.2 0.5 -0.1
v -0.2 0.6 -0.1
v -0.1 0.5 -0.1
v -0.1 0.6 -0.1
v 0 0.5 -0.1
v 0 0.6 -0.1
v -0.4 0.4 -0.2
v -0.4 0.5 -0.2
v -0.3 0.4 -0.2
v -0.3 0.5 -0.2
v -0.2 0.5 -0.2
v -0.2 0.6 -0.2
v -0.1 0.5 -0.2
v -0.1 0.6 -0.2
v 0 0.4 -0.2
v 0 0.5 -0.2
v 0.1 0.4 -0.2
v 0.1 0.5 -0.2
v 0.2 0 -0.2
v 0.2 0.1 -0.2
v 0.2 0.3 -0.2
v 0.3 0 -0.2
v 0.3 0.1 -0.2
v 0.3 0.3 -0.2
v 0.5 0 -0.2
v 0.5 0.1 -0.2
v 0.6 0 -0.2
v 0.6 0.1 -0.2
v -0.3 0 -0.3
v -0.3 0.1 -0.3
v -0.3 0.4 -0.3
v -0.3 0.5 -0.3
v -0.2 0 -0.3
v -0.2 0.1 -0.3
v -0.2 0.5 -0.3
v -0.1 0.4 -0.3
v -0.1 0.5 -0.3
v 0 0.4 -0.3
v 0 0.5 -0.3
v -0.3 0.4 0.2
v -0.3 0.5 0.2
v -0.2 0.4 0.2
v -0.2 0.5 0.2
v -0.1 0.5 0.2
v 0 0.4 0.2
v 0 0.5 0.2
v -0.4 0.4 0.1
v -0.4 0.5 0.1
v -0.3 0 0.1
v -0.3 0.1 0.1
v -0.3 0.2 0.1
v -0.3 0.3 0.1
v -0.3 0.4 0.1
v -0.3 0.5 0.1
v -0.2 0 0.1
v -0.2 0.1 0.1
v -0.2 0.2 0.1
v -0.2 0.3 0.1
v -0.2 0.5 0.1
v -0.2 0.6 0.1
v -0.1 0.5 0.1
v -0.1 0.6 0.1
v 0 0.4 0.1
v 0 0.5 0.1
v 0.1 0 0.1
v 0.1 0.1 0.1
v 0.1 0.4 0.1
v 0.1 0.5 0.1
v 0.2 0 0.1
v 0.2 0.1 0.1
v -0.3 0.5 0
v -0.3 0.6 0
v -0.2 0.5 0
v -0.2 0.6 0
v -0.1 0.5 0
v -0.1 0.6 0
v 0 0.5 0
v 0 0.6 0
v -0.5 0 -0.1
v -0.5 0.1 -0.1
v -0.4 0 -0.1
v -0.4 0.1 -0.1
v -0.3 0.6 -0.1
v -0.3 0.7 -0.1
v -0.2 0.2 -0.1
v -0.2 0.5 -0.1
v -0.2 0.6 -0.1
v -0.2 0.7 -0.1
v -0.1 0 -0.1
v -0.1 0.2 -0.1
v -0.1 0.3 -0.1
v -0.1 0.5 -0.1
v -0.1 0.6 -0.1
v -0.1 0.7 -0.1
v 0 0 -0.1
v 0 0.3 -0.1
v 0 0.6 -0.1
v 0 0.7 -0.1
v 0.3 0.2 -0.1
v 0.3 0.3 -0.1
v 0.3 0.5 -0.1
v 0.4 0 -0.1
v 0.4 0.2 -0.1
v 0.4 0.3 -0.1
v 0.4 0.4 -0.1
v 0.4 0.5 -0.1
v 0.4 0.6 -0.1
v 0.5 0 -0.1
v 0.5 0.2 -0.1
v 0.5 0.3 -0.1
v 0.5 0.4 -0.1
v 0.5 0.5 -0.1
v 0.5 0.6 -0.1
v 0.6 0.2 -0.1
v 0.6 0.3 -0.1
v 0.6 0.5 -0.1
v -0.5 0.4 -0.2
v -0.5 0.5 -0.2
v -0.4 0.4 -0.2
v -0.4 0.5 -0.2
v -0.4 0.6 -0.2
v -0.3 0.5 -0.2
v -0.3 0.6 -0.2
v -0.2 0.6 -0.2
v -0.2 0.7 -0.2
v -0.1 0.6 -0.2
v -0.1 0.7 -0.2
v 0 0.5 -0.2
v 0 0.6 -0.2
v 0.1 0.4 -0.2
v 0.1 0.5 -0.2
v 0.1 0.6 -0.2
v 0.2 0.4 -0.2
v 0.2 0.5 -0.2
v 0.4 0.2 -0.2
v 0.4 0.3 -0.2
v 0.4 0.4 -0.2
v 0.4 0.5 -0.2
v 0.5 0.2 -0.2
v 0.5 0.3 -0.2
v 0.5 0.4 -0.2
v 0.5 0.5 -0.2
v -0.4 0.4 -0.3
v -0.4 0.5 -0.3
v -0.3 0.4 -0.3
v -0.3 0.5 -0.3
v -0.3 0.6 -0.3
v -0.2 0.5 -0.3
v -0.2 0.6 -0.3
v -0.1 0.5 -0.3
v 0 0.4 -0.3
v 0 0.5 -0.3
v 0 0.6 -0.3
v 0.1 0.4 -0.3
v 0.1 0.5 -0.3
v 0.2 0 -0.3
v 0.2 0.1 -0.3
v 0.2 0.3 -0.3
v 0.3 0 -0.3
v 0.3 0.1 -0.3
v 0.3 0.3 -0.3
v 0.5 0 -0.3
v 0.5 0.1 -0.3
v 0.6 0 -0.3
v 0.6 0.1 -0.3
v -0.3 0 -0.4
v -0.3 0.1 -0.4
v -0.3 0.4 -0.4
v -0.3 0.5 -0.4
v -0.2 0 -0.4
v -0.2 0.1 -0.4
v -0.1 0.4 -0.4
v -0.1 0.5 -0.4
v 0 0.4 -0.4
v 0 0.5 -0.4
v -0.3 0 0.2
v -0.2 0 0.2
v 0.1 0 0.2
v 0.2 0 0.2
v -0.3 0 0.1
v -0.2 0 0.1
v 0.1 0 0.1
v 0.2 0 0.1
v -0.5 0 0
v -0.4 0 0
v -0.1 0 0
v 0 0 0
v 0.4 0 0
v 0.5 0 0
v -0.5 0 -0.1
v -0.4 0 -0.1
v -0.1 0 -0.1
v 0 0 -0.1
v 0.4 0 -0.1
v 0.5 0 -0.1
v 0.2 0 -0.2
v 0.3 0 -0.2
v 0.5 0 -0.2
v 0.6 0 -0.2
v -0.3 0 -0.3
v -0.2 0 -0.3
v 0.2 0 -0.3
v 0.3 0 -0.3
v 0.5 0 -0.3
v 0.6 0 -0.3
v -0.3 0 -0.4
v -0.2 0 -0.4
v 0.4 0.2 0.1
v 0.5 0.2 0.1
v -0.2 0.2 0
v -0.1 0.2 0
v 0.3 0.2 0
v 0.4 0.2 0
v 0.5 0.2 0
v 0.6 0.2 0
v -0.2 0.2 -0.1
v -0.1 0.2 -0.1
v 0.3 0.2 -0.1
v 0.4 0.2 -0.1
v 0.5 0.2 -0.1
v 0.6 0.2 -0.1
v 0.4 0.2 -0.2
v 0.5 0.2 -0.2
v -0.3 0.4 0.3
v -0.2 0.4 0.3
v 0 0.4 0.3
v -0.4 0.4 0.2
v -0.3 0.4 0.2
v -0.2 0.4 0.2
v 0 0.4 0.2
v 0.1 0.4 0.2
v -0.5 0.4 0.1
v -0.4 0.4 0.1
v -0.3 0.4 0.1
v 0 0.4 0.1
v 0.1 0.4 0.1
v 0.2 0.4 0.1
v 0.1 0.4 0
v 0.2 0.4 0
v -0.5 0.4 -0.1
v -0.4 0.4 -0.1
v -0.5 0.4 -0.2
v -0.4 0.4 -0.2
v -0.3 0.4 -0.2
v 0 0.4 -0.2
v 0.1 0.4 -0.2
v 0.2 0.4 -0.2
v -0.4 0.4 -0.3
v -0.3 0.4 -0.3
v -0.1 0.4 -0.3
v 0 0.4 -0.3
v 0.1 0.4 -0.3
v -0.3 0.4 -0.4
v -0.1 0.4 -0.4
v 0 0.4 -0.4
v -0.3 0.5 0.2
v -0.2 0.5 0.2
v -0.1 0.5 0.2
v 0 0.5 0.2
v -0.4 0.5 0.1
v -0.3 0.5 0.1
v -0.2 0.5 0.1
v -0.1 0.5 0.1
v 0 0.5 0.1
v 0.1 0.5 0.1
v -0.4 0.5 0
v -0.3 0.5 0
v -0.2 0.5 0
v -0.1 0.5 0
v 0 0.5 0
v 0.1 0.5 0
v -0.4 0.5 -0.1
v -0.3 0.5 -0.1
v -0.2 0.5 -0.1
v -0.1 0.5 -0.1
v 0 0.5 -0.1
v 0.1 0.5 -0.1
v -0.4 0.5 -0.2
v -0.3 0.5 -0.2
v -0.2 0.5 -0.2
v -0.1 0.5 -0.2
v 0 0.5 -0.2
v 0.1 0.5 -0.2
v -0.3 0.5 -0.3
v -0.2 0.5 -0.3
v -0.1 0.5 -0.3
v 0 0.5 -0.3
v -0.2 0.6 0.1
v -0.1 0.6 0.1
v -0.3 0.6 0
v -0.2 0.6 0
v -0.1 0.6 0
v 0 0.6 0
v -0.3 0.6 -0.1
v -0.2 0.6 -0.1
v -0.1 0.6 -0.1
v 0 0.6 -0.1
v -0.2 0.6 -0.2
v -0.1 0.6 -0.2
v 0.1 0.1 0.2
v 0.2 0.1 0.2
v 0.1 0.1 0.1
v 0.2 0.1 0.1
v -0.5 0.1 0
v -0.4 0.1 0
v -0.5 0.1 -0.1
v -0.4 0.1 -0.1
v 0.5 0.1 -0.2
v 0.6 0.1 -0.2
v -0.3 0.1 -0.3
v -0.2 0.1 -0.3
v 0.5 0.1 -0.3
v 0.6 0.1 -0.3
v -0.3 0.1 -0.4
v -0.2 0.1 -0.4
v -0.3 0.3 0.2
v -0.2 0.3 0.2
v -0.3 0.3 0.1
v -0.2 0.3 0.1
v -0.1 0.3 0
v 0 0.3 0
v -0.1 0.3 -0.1
v 0 0.3 -0.1
v 0.2 0.3 -0.2
v 0.3 0.3 -0.2
v 0.2 0.3 -0.3
v 0.3 0.3 -0.3
v -0.3 0.5 0.3
v -0.2 0.5 0.3
v 0 0.5 0.3
v -0.4 0.5 0.2
v -0.3 0.5 0.2
v -0.2 0.5 0.2
v -0.1 0.5 0.2
v 0 0.5 0.2
v 0.1 0.5 0.2
v -0.5 0.5 0.1
v -0.4 0.5 0.1
v -0.3 0.5 0.1
v 0 0.5 0.1
v 0.1 0.5 0.1
v 0.2 0.5 0.1
v 0.4 0.5 0.1
v 0.5 0.5 0.1
v -0.4 0.5 0
v 0.1 0.5 0
v 0.2 0.5 0
v 0.3 0.5 0
v 0.4 0.5 0
v 0.5 0.5 0
v 0.6 0.5 0
v -0.5 0.5 -0.1
v -0.4 0.5 -0.1
v 0.1 0.5 -0.1
v 0.3 0.5 -0.1
v 0.4 0.5 -0.1
v 0.5 0.5 -0.1
v 0.6 0.5 -0.1
v -0.5 0.5 -0.2
v -0.4 0.5 -0.2
v -0.3 0.5 -0.2
v 0 0.5 -0.2
v 0.1 0.5 -0.2
v 0.2 0.5 -0.2
v 0.4 0.5 -0.2
v 0.5 0.5 -0.2
v -0.4 0.5 -0.3
v -0.3 0.5 -0.3
v -0.2 0.5 -0.3
v -0.1 0.5 -0.3
v 0 0.5 -0.3
v 0.1 0.5 -0.3
v -0.3 0.5 -0.4
v -0.1 0.5 -0.4
v 0 0.5 -0.4
v -0.3 0.6 0.2
v -0.1 0.6 0.2
v 0 0.6 0.2
v -0.4 0.6 0.1
v -0.3 0.6 0.1
v -0.2 0.6 0.1
v -0.1 0.6 0.1
v 0 0.6 0.1
v 0.1 0.6 0.1
v -0.4 0.6 0
v -0.3 0.6 0
v -0.2 0.6 0
v -0.1 0.6 0
v 0 0.6 0
v 0.4 0.6 0
v 0.5 0.6 0
v -0.3 0.6 -0.1
v -0.2 0.6 -0.1
v -0.1 0.6 -0.1
v 0 0.6 -0.1
v 0.1 0.6 -0.1
v 0.4 0.6 -0.1
v 0.5 0.6 -0.1
v -0.4 0.6 -0.2
v -0.3 0.6 -0.2
v -0.2 0.6 -0.2
v -0.1 0.6 -0.2
v 0 0.6 -0.2
v 0.1 0.6 -0.2
v -0.3 0.6 -0.3
v -0.2 0.6 -0.3
v 0 0.6 -0.3
v -0.2 0.7 0.1
v -0.1 0.7 0.1
v -0.3 0.7 0
v -0.2 0.7 0
v -0.1 0.7 0
v 0 0.7 0
v -0.3 0.7 -0.1
v -0.2 0.7 -0.1
v -0.1 0.7 -0.1
v 0 0.7 -0.1
v -0.2 0.7 -0.2
v -0.1 0.7 -0.2

# faces
f 3/2/1 2/2/1 1/2/1
f 4/2/1 2/2/1 3/2/1
f 8/3/1 6/3/1 5/3/1
f 9/2/1 7/2/1 6/2/1
f 9/3/1 6/3/1 8/3/1
f 10/2/1 7/2/1 9/2/1
f 15/3/1 12/3/1 11/3/1
f 16/3/1 12/3/1 15/3/1
f 19/3/1 14/3/1 13/3/1
f 20/3/1 14/3/1 19/3/1
f 21/2/1 17/2/1 16/2/1
f 22/3/1 18/3/1 17/3/1
f 22/2/1 17/2/1 21/2/1
f 22/3/1 19/3/1 18/3/1
f 23/3/1 19/3/1 22/3/1
f 28/1/1 25/1/1 24/1/1
f 29/1/1 25/1/1 28/1/1
f 30/3/1 27/3/1 26/3/1
f 31/3/1 27/3/1 30/3/1
f 32/3/1 29/3/1 28/3/1
f 33/3/1 29/3/1 32/3/1
f 34/2/1 33/2/1 32/2/1
f 35/2/1 33/2/1 34/2/1
f 40/2/1 37/2/1 36/2/1
f 41/2/1 37/2/1 40/2/1
f 44/3/1 39/3/1 38/3/1
f 45/3/1 39/3/1 44/3/1
f 46/3/1 42/3/1 41/3/1
f 47/3/1 42/3/1 46/3/1
f 50/2/1 44/2/1 43/2/1
f 51/2/1 44/2/1 50/2/1
f 52/3/1 49/3/1 48/3/1
f 53/3/1 49/3/1 52/3/1
f 56/1/1 55/1/1 54/1/1
f 57/1/1 55/1/1 56/1/1
f 59/1/1 57/1/1 56/1/1
f 60/1/1 57/1/1 59/1/1
f 62/2/1 59/2/1 58/2/1
f 63/2/1 59/2/1 62/2/1
f 64/2/1 61/2/1 60/2/1
f 65/2/1 61/2/1 64/2/1
f 68/1/1 67/1/1 66/1/1
f 69/1/1 67/1/1 68/1/1
f 74/3/1 71/3/1 70/3/1
f 75/3/1 71/3/1 74/3/1
f 76/3/1 73/3/1 72/3/1
f 77/3/1 73/3/1 76/3/1
f 82/3/1 79/3/1 78/3/1
f 83/3/1 79/3/1 82/3/1
f 86/3/1 81/3/1 80/3/1
f 87/3/1 81/3/1 86/3/1
f 88/3/1 85/3/1 84/3/1
f 89/3/1 85/3/1 88/3/1
f 92/3/1 91/3/1 90/3/1
f 93/3/1 91/3/1 92/3/1
f 97/2/1 95/2/1 94/2/1
f 98/3/1 96/3/1 95/3/1
f 98/2/1 95/2/1 97/2/1
f 99/3/1 96/3/1 98/3/1
f 100/3/1 96/3/1 99/3/1
f 103/1/1 102/1/1 101/1/1
f 104/1/1 102/1/1 103/1/1
f 105/3/1 104/3/1 103/3/1
f 106/3/1 104/3/1 105/3/1
f 109/2/1 108/2/1 107/2/1
f 110/2/1 108/2/1 109/2/1
f 111/3/1 110/3/1 109/3/1
f 112/3/1 110/3/1 111/3/1
f 116/1/1 114/1/1 113/1/1
f 117/1/1 114/1/1 116/1/1
f 119/3/1 116/3/1 115/3/1
f 120/3/1 118/3/1 117/3/1
f 121/3/1 118/3/1 120/3/1
f 122/3/1 119/3/1 115/3/1
f 123/3/1 119/3/1 122/3/1
f 124/2/1 121/2/1 120/2/1
f 125/2/1 121/2/1 124/2/1
f 126/2/1 123/2/1 122/2/1
f 127/2/1 123/2/1 126/2/1
f 128/3/1 125/3/1 124/3/1
f 129/3/1 125/3/1 128/3/1
f 130/2/1 128/2/1 127/2/1
f 131/2/1 128/2/1 130/2/1
f 134/2/1 133/2/1 132/2/1
f 135/2/1 133/2/1 134/2/1
f 136/2/2 137/2/2 138/2/2
f 138/2/2 137/2/2 139/2/2
f 140/3/2 141/3/2 143/3/2
f 143/3/2 141/3/2 144/3/2
f 141/2/2 142/2/2 145/2/2
f 144/3/2 141/3/2 145/3/2
f 145/2/2 142/2/2 146/2/2
f 147/3/2 148/3/2 151/3/2
f 151/3/2 148/3/2 152/3/2
f 149/3/2 150/3/2 155/3/2
f 155/3/2 150/3/2 156/3/2
f 153/3/2 154/3/2 157/3/2
f 157/3/2 154/3/2 158/3/2
f 159/1/2 160/1/2 163/1/2
f 163/1/2 160/1/2 164/1/2
f 161/3/2 162/3/2 165/3/2
f 165/3/2 162/3/2 166/3/2
f 163/3/2 164/3/2 167/3/2
f 167/3/2 164/3/2 168/3/2
f 167/2/2 168/2/2 169/2/2
f 169/2/2 168/2/2 170/2/2
f 171/3/2 172/3/2 175/3/2
f 175/3/2 172/3/2 176/3/2
f 173/3/2 174/3/2 177/3/2
f 177/3/2 174/3/2 178/3/2
f 179/1/2 180/1/2 181/1/2
f 181/1/2 180/1/2 182/1/2
f 181/1/2 182/1/2 184/1/2
f 184/1/2 182/1/2 185/1/2
f 183/2/2 184/2/2 187/2/2
f 187/2/2 184/2/2 188/2/2
f 185/2/2 186/2/2 189/2/2
f 189/2/2 186/2/2 190/2/2
f 191/1/2 192/1/2 193/1/2
f 193/1/2 192/1/2 194/1/2
f 195/3/2 196/3/2 199/3/2
f 199/3/2 196/3/2 200/3/2
f 197/2/2 198/2/2 203/2/2
f 203/2/2 198/2/2 204/2/2
f 200/2/2 201/2/2 205/2/2
f 205/2/2 201/2/2 206/2/2
f 202/3/2 203/3/2 209/3/2
f 209/3/2 203/3/2 210/3/2
f 207/3/2 208/3/2 211/3/2
f 211/3/2 208/3/2 212/3/2
f 213/3/2 214/3/2 217/3/2
f 217/3/2 214/3/2 218/3/2
f 215/3/2 216/3/2 221/3/2
f 221/3/2 216/3/2 222/3/2
f 219/3/2 220/3/2 223/3/2
f 218/3/2 219/3/2 223/3/2
f 220/2/2 221/2/2 224/2/2
f 223/3/2 220/3/2 224/3/2
f 224/2/2 221/2/2 225/2/2
f 226/3/2 227/3/2 228/3/2
f 228/3/2 227/3/2 229/3/2
f 230/2/2 231/2/2 233/2/2
f 231/3/2 232/3/2 234/3/2
f 233/2/2 231/2/2 234/2/2
f 234/3/2 232/3/2 235/3/2
f 236/1/2 237/1/2 238/1/2
f 238/1/2 237/1/2 239/1/2
f 238/3/2 239/3/2 240/3/2
f 240/3/2 239/3/2 241/3/2
f 242/1/2 243/1/2 245/1/2
f 245/1/2 243/1/2 246/1/2
f 244/3/2 245/3/2 248/3/2
f 246/3/2 247/3/2 249/3/2
f 249/3/2 247/3/2 250/3/2
f 244/3/2 248/3/2 251/3/2
f 251/3/2 248/3/2 252/3/2
f 249/2/2 250/2/2 253/2/2
f 253/2/2 250/2/2 254/2/2
f 251/2/2 252/2/2 255/2/2
f 255/2/2 252/2/2 256/2/2
f 253/3/2 254/3/2 257/3/2
f 257/3/2 254/3/2 258/3/2
f 256/2/2 257/2/2 259/2/2
f 259/2/2 257/2/2 260/2/2
f 261/2/2 262/2/2 263/2/2
f 263/2/2 262/2/2 264/2/2
f 265/2/2 266/2/2 267/2/2
f 267/2/2 266/2/2 268/2/2
f 267/3/2 268/3/2 269/3/2
f 269/3/2 268/3/2 270/3/2
f 273/2/3 272/2/3 271/2/3
f 274/2/3 272/2/3 273/2/3
f 275/3/3 274/3/3 273/3/3
f 276/3/3 274/3/3 275/3/3
f 283/3/3 278/3/3 277/3/3
f 284/3/3 278/3/3 283/3/3
f 286/1/3 280/1/3 279/1/3
f 287/3/3 281/3/3 280/3/3
f 287/1/3 280/1/3 286/1/3
f 288/2/3 282/2/3 281/2/3
f 288/3/3 281/3/3 287/3/3
f 289/2/3 282/2/3 288/2/3
f 290/3/3 285/3/3 284/3/3
f 291/3/3 285/3/3 290/3/3
f 292/3/3 285/3/3 291/3/3
f 294/2/3 292/2/3 291/2/3
f 295/2/3 292/2/3 294/2/3
f 298/3/3 294/3/3 293/3/3
f 299/3/3 294/3/3 298/3/3
f 300/3/3 297/3/3 296/3/3
f 301/3/3 297/3/3 300/3/3
f 304/3/3 303/3/3 302/3/3
f 305/3/3 303/3/3 304/3/3
f 307/2/3 306/2/3 305/2/3
f 308/2/3 306/2/3 307/2/3
f 311/2/3 310/2/3 309/2/3
f 312/2/3 310/2/3 311/2/3
f 316/3/3 314/3/3 313/3/3
f 317/3/3 314/3/3 316/3/3
f 318/2/3 316/2/3 315/2/3
f 319/2/3 316/2/3 318/2/3
f 323/3/3 321/3/3 320/3/3
f 324/2/3 322/2/3 321/2/3
f 324/3/3 321/3/3 323/3/3
f 325/2/3 322/2/3 324/2/3
f 328/2/3 327/2/3 326/2/3
f 329/2/3 327/2/3 328/2/3
f 334/3/3 331/3/3 330/3/3
f 335/3/3 331/3/3 334/3/3
f 337/1/3 333/1/3 332/1/3
f 337/1/3 334/1/3 333/1/3
f 338/1/3 334/1/3 337/1/3
f 339/1/3 334/1/3 338/1/3
f 340/1/3 334/1/3 339/1/3
f 342/1/3 337/1/3 336/1/3
f 342/1/3 338/1/3 337/1/3
f 343/1/3 338/1/3 342/1/3
f 344/3/3 341/3/3 340/3/3
f 345/3/3 341/3/3 344/3/3
f 350/2/3 347/2/3 346/2/3
f 351/3/3 348/3/3 347/3/3
f 351/2/3 347/2/3 350/2/3
f 352/3/3 348/3/3 351/3/3
f 353/3/3 348/3/3 352/3/3
f 355/1/3 350/1/3 349/1/3
f 356/1/3 350/1/3 355/1/3
f 359/2/3 354/2/3 353/2/3
f 360/2/3 354/2/3 359/2/3
f 361/2/3 357/2/3 356/2/3
f 362/3/3 358/3/3 357/3/3
f 362/2/3 357/2/3 361/2/3
f 362/3/3 359/3/3 358/3/3
f 363/3/3 359/3/3 362/3/3
f 366/3/3 365/3/3 364/3/3
f 367/3/3 365/3/3 366/3/3
f 370/3/3 369/3/3 368/3/3
f 371/3/3 369/3/3 370/3/3
f 374/3/3 373/3/3 372/3/3
f 375/3/3 373/3/3 374/3/3
f 378/3/3 377/3/3 376/3/3
f 379/3/3 377/3/3 378/3/3
f 382/3/3 381/3/3 380/3/3
f 383/3/3 381/3/3 382/3/3
f 387/1/3 385/1/3 384/1/3
f 388/3/3 386/3/3 385/3/3
f 388/1/3 385/1/3 387/1/3
f 389/3/3 386/3/3 388/3/3
f 392/2/3 391/2/3 390/2/3
f 393/2/3 391/2/3 392/2/3
f 398/3/3 395/3/3 394/3/3
f 399/3/3 395/3/3 398/3/3
f 400/3/3 397/3/3 396/3/3
f 401/3/3 400/3/3 396/3/3
f 402/3/3 400/3/3 401/3/3
f 403/2/3 402/2/3 401/2/3
f 404/2/3 402/2/3 403/2/3
f 405/2/4 406/2/4 407/2/4
f 407/2/4 406/2/4 408/2/4
f 407/3/4 408/3/4 409/3/4
f 407/3/4 409/3/4 410/3/4
f 410/3/4 409/3/4 411/3/4
f 412/3/4 413/3/4 418/3/4
f 418/3/4 413/3/4 419/3/4
f 414/1/4 415/1/4 420/1/4
f 415/3/4 416/3/4 421/3/4
f 420/1/4 415/1/4 421/1/4
f 416/2/4 417/2/4 422/2/4
f 421/3/4 416/3/4 422/3/4
f 422/2/4 417/2/4 423/2/4
f 424/3/4 425/3/4 426/3/4
f 426/3/4 425/3/4 427/3/4
f 428/3/4 429/3/4 432/3/4
f 432/3/4 429/3/4 433/3/4
f 430/3/4 431/3/4 434/3/4
f 434/3/4 431/3/4 435/3/4
f 436/3/4 437/3/4 438/3/4
f 438/3/4 437/3/4 439/3/4
f 440/3/4 441/3/4 442/3/4
f 442/3/4 441/3/4 443/3/4
f 444/2/4 445/2/4 446/2/4
f 446/2/4 445/2/4 447/2/4
f 448/3/4 449/3/4 452/3/4
f 452/3/4 449/3/4 453/3/4
f 450/1/4 451/1/4 455/1/4
f 451/1/4 452/1/4 455/1/4
f 455/1/4 452/1/4 456/1/4
f 456/1/4 452/1/4 457/1/4
f 457/1/4 452/1/4 458/1/4
f 454/1/4 455/1/4 460/1/4
f 455/1/4 456/1/4 460/1/4
f 460/1/4 456/1/4 461/1/4
f 458/3/4 459/3/4 462/3/4
f 462/3/4 459/3/4 463/3/4
f 464/2/4 465/2/4 468/2/4
f 465/3/4 466/3/4 469/3/4
f 468/2/4 465/2/4 469/2/4
f 469/3/4 466/3/4 470/3/4
f 470/3/4 466/3/4 471/3/4
f 467/1/4 468/1/4 473/1/4
f 473/1/4 468/1/4 474/1/4
f 471/2/4 472/2/4 477/2/4
f 477/2/4 472/2/4 478/2/4
f 474/2/4 475/2/4 479/2/4
f 475/3/4 476/3/4 480/3/4
f 479/2/4 475/2/4 480/2/4
f 476/3/4 477/3/4 480/3/4
f 480/3/4 477/3/4 481/3/4
f 482/2/4 483/2/4 484/2/4
f 484/2/4 483/2/4 485/2/4
f 485/3/4 486/3/4 487/3/4
f 487/3/4 486/3/4 488/3/4
f 489/2/4 490/2/4 491/2/4
f 491/2/4 490/2/4 492/2/4
f 493/2/4 494/2/4 496/2/4
f 496/2/4 494/2/4 497/2/4
f 495/3/4 496/3/4 498/3/4
f 498/3/4 496/3/4 499/3/4
f 500/3/4 501/3/4 504/3/4
f 501/2/4 502/2/4 505/2/4
f 504/3/4 501/3/4 505/3/4
f 502/3/4 503/3/4 506/3/4
f 505/2/4 502/2/4 506/2/4
f 506/3/4 503/3/4 507/3/4
f 508/3/4 509/3/4 510/3/4
f 510/3/4 509/3/4 511/3/4
f 511/2/4 512/2/4 513/2/4
f 513/2/4 512/2/4 514/2/4
f 513/3/4 514/3/4 515/3/4
f 515/3/4 514/3/4 517/3/4
f 517/3/4 514/3/4 518/3/4
f 516/3/4 517/3/4 519/3/4
f 519/3/4 517/3/4 520/3/4
f 521/1/4 522/1/4 524/1/4
f 522/3/4 523/3/4 525/3/4
f 524/1/4 522/1/4 525/1/4
f 525/3/4 523/3/4 526/3/4
f 527/2/4 528/2/4 529/2/4
f 529/2/4 528/2/4 530/2/4
f 531/3/4 532/3/4 535/3/4
f 535/3/4 532/3/4 536/3/4
f 533/3/4 534/3/4 537/3/4
f 537/3/4 534/3/4 538/3/4
f 537/2/4 538/2/4 539/2/4
f 539/2/4 538/2/4 540/2/4
f 545/1/5 542/1/5 541/1/5
f 546/1/5 542/1/5 545/1/5
f 547/3/5 544/3/5 543/3/5
f 548/3/5 544/3/5 547/3/5
f 555/2/5 550/2/5 549/2/5
f 556/2/5 550/2/5 555/2/5
f 557/1/5 552/1/5 551/1/5
f 558/1/5 552/1/5 557/1/5
f 559/1/5 554/1/5 553/1/5
f 560/1/5 554/1/5 559/1/5
f 567/1/5 562/1/5 561/1/5
f 568/1/5 562/1/5 567/1/5
f 569/2/5 564/2/5 563/2/5
f 570/2/5 564/2/5 569/2/5
f 571/3/5 566/3/5 565/3/5
f 572/3/5 566/3/5 571/3/5
f 578/3/5 574/3/5 573/3/5
f 579/3/5 574/3/5 578/3/5
f 581/1/5 576/1/5 575/1/5
f 582/1/5 576/1/5 581/1/5
f 583/2/5 578/2/5 577/2/5
f 584/2/5 578/2/5 583/2/5
f 585/2/5 580/2/5 579/2/5
f 586/2/5 580/2/5 585/2/5
f 587/3/5 585/3/5 584/3/5
f 588/3/5 585/3/5 587/3/5
f 593/2/5 590/2/5 589/2/5
f 594/3/5 591/3/5 590/3/5
f 594/2/5 590/2/5 593/2/5
f 595/3/5 591/3/5 594/3/5
f 598/3/5 593/3/5 592/3/5
f 599/3/5 593/3/5 598/3/5
f 600/3/5 596/3/5 595/3/5
f 601/3/5 596/3/5 600/3/5
f 603/2/5 602/2/5 601/2/5
f 604/2/5 602/2/5 603/2/5
f 605/3/5 598/3/5 597/3/5
f 606/3/5 598/3/5 605/3/5
f 607/2/5 606/2/5 605/2/5
f 608/2/5 606/2/5 607/2/5
f 611/3/5 604/3/5 603/3/5
f 612/3/5 604/3/5 611/3/5
f 613/3/5 609/3/5 608/3/5
f 614/3/5 609/3/5 613/3/5
f 616/3/5 611/3/5 610/3/5
f 617/3/5 611/3/5 616/3/5
f 618/3/5 615/3/5 614/3/5
f 619/2/5 616/2/5 615/2/5
f 619/3/5 615/3/5 618/3/5
f 620/2/5 616/2/5 619/2/5
f 626/3/5 622/3/5 621/3/5
f 626/3/5 623/3/5 622/3/5
f 627/3/5 623/3/5 626/3/5
f 628/2/5 624/2/5 623/2/5
f 628/3/5 623/3/5 627/3/5
f 629/2/5 624/2/5 628/2/5
f 631/2/5 626/2/5 625/2/5
f 632/3/5 627/3/5 626/3/5
f 632/2/5 626/2/5 631/2/5
f 633/3/5 627/3/5 632/3/5
f 634/3/5 630/3/5 629/3/5
f 634/3/5 629/3/5 628/3/5
f 635/3/5 630/3/5 634/3/5
f 636/3/5 630/3/5 635/3/5
f 637/3/5 632/3/5 631/3/5
f 638/3/5 632/3/5 637/3/5
f 641/3/5 636/3/5 635/3/5
f 642/3/5 636/3/5 641/3/5
f 643/3/5 639/3/5 638/3/5
f 643/3/5 638/3/5 637/3/5
f 644/3/5 639/3/5 643/3/5
f 645/3/5 639/3/5 644/3/5
f 646/3/5 641/3/5 640/3/5
f 647/2/5 642/2/5 641/2/5
f 647/3/5 641/3/5 646/3/5
f 648/2/5 642/2/5 647/2/5
f 649/2/5 645/2/5 644/2/5
f 650/3/5 646/3/5 645/3/5
f 650/2/5 645/2/5 649/2/5
f 650/3/5 647/3/5 646/3/5
f 651/3/5 647/3/5 650/3/5
f 652/3/5 647/3/5 651/3/5
f 656/2/5 654/2/5 653/2/5
f 657/2/5 654/2/5 656/2/5
f 659/3/5 656/3/5 655/3/5
f 660/3/5 656/3/5 659/3/5
f 661/3/5 658/3/5 657/3/5
f 662/3/5 658/3/5 661/3/5
f 663/2/5 661/2/5 660/2/5
f 664/2/5 661/2/5 663/2/5
f 665/3/6 666/3/6 667/3/6
f 667/3/6 666/3/6 668/3/6
f 669/2/6 670/2/6 671/2/6
f 671/2/6 670/2/6 672/2/6
f 673/2/6 674/2/6 677/2/6
f 677/2/6 674/2/6 678/2/6
f 675/3/6 676/3/6 679/3/6
f 679/3/6 676/3/6 680/3/6
f 681/2/6 682/2/6 683/2/6
f 683/2/6 682/2/6 684/2/6
f 685/1/6 686/1/6 687/1/6
f 687/1/6 686/1/6 688/1/6
f 689/3/6 690/3/6 691/3/6
f 691/3/6 690/3/6 692/3/6
f 693/2/6 694/2/6 697/2/6
f 694/3/6 695/3/6 698/3/6
f 697/2/6 694/2/6 698/2/6
f 698/3/6 695/3/6 699/3/6
f 699/3/6 695/3/6 700/3/6
f 696/3/6 697/3/6 703/3/6
f 703/3/6 697/3/6 704/3/6
f 700/3/6 701/3/6 705/3/6
f 705/3/6 701/3/6 706/3/6
f 702/3/6 703/3/6 710/3/6
f 706/2/6 707/2/6 711/2/6
f 711/2/6 707/2/6 712/2/6
f 708/2/6 709/2/6 714/2/6
f 714/2/6 709/2/6 715/2/6
f 702/3/6 710/3/6 717/3/6
f 717/3/6 710/3/6 718/3/6
f 711/3/6 712/3/6 719/3/6
f 713/3/6 714/3/6 720/3/6
f 720/3/6 714/3/6 721/3/6
f 715/3/6 716/3/6 722/3/6
f 722/3/6 716/3/6 723/3/6
f 717/2/6 718/2/6 724/2/6
f 724/2/6 718/2/6 725/2/6
f 719/3/6 712/3/6 728/3/6
f 728/3/6 712/3/6 729/3/6
f 721/3/6 722/3/6 730/3/6
f 730/3/6 722/3/6 731/3/6
f 725/3/6 726/3/6 732/3/6
f 732/3/6 726/3/6 733/3/6
f 727/3/6 728/3/6 736/3/6
f 736/3/6 728/3/6 737/3/6
f 734/3/6 735/3/6 738/3/6
f 733/3/6 734/3/6 738/3/6
f 735/2/6 736/2/6 739/2/6
f 738/3/6 735/3/6 739/3/6
f 739/2/6 736/2/6 740/2/6
f 741/3/6 742/3/6 745/3/6
f 745/3/6 742/3/6 746/3/6
f 742/2/6 743/2/6 747/2/6
f 746/3/6 742/3/6 747/3/6
f 747/2/6 743/2/6 748/2/6
f 744/2/6 745/2/6 750/2/6
f 745/3/6 746/3/6 751/3/6
f 750/2/6 745/2/6 751/2/6
f 751/3/6 746/3/6 752/3/6
f 748/3/6 749/3/6 753/3/6
f 747/3/6 748/3/6 753/3/6
f 753/3/6 749/3/6 754/3/6
f 750/3/6 751/3/6 757/3/6
f 754/3/6 749/3/6 760/3/6
f 760/3/6 749/3/6 761/3/6
f 755/2/6 756/2/6 762/2/6
f 762/2/6 756/2/6 763/2/6
f 757/3/6 758/3/6 764/3/6
f 750/3/6 757/3/6 764/3/6
f 764/3/6 758/3/6 765/3/6
f 765/3/6 758/3/6 766/3/6
f 759/3/6 760/3/6 767/3/6
f 760/2/6 761/2/6 768/2/6
f 767/3/6 760/3/6 768/3/6
f 768/2/6 761/2/6 769/2/6
f 765/2/6 766/2/6 770/2/6
f 766/3/6 767/3/6 771/3/6
f 770/2/6 766/2/6 771/2/6
f 767/3/6 768/3/6 771/3/6
f 771/3/6 768/3/6 772/3/6
f 773/2/6 774/2/6 776/2/6
f 776/2/6 774/2/6 777/2/6
f 775/3/6 776/3/6 779/3/6
f 777/3/6 778/3/6 779/3/6
f 776/3/6 777/3/6 779/3/6
f 779/3/6 778/3/6 780/3/6
f 780/3/6 778/3/6 781/3/6
f 781/3/6 778/3/6 782/3/6
f 780/2/6 781/2/6 783/2/6
f 783/2/6 781/2/6 784/2/6
