# MagicaVoxel @ Ephtracy

# group
o Mushroom4_L

# material
mtllib Mushroom4_L.mtl
usemtl palette

# normals
vn -1 0 0
vn 1 0 0
vn 0 0 1
vn 0 0 -1
vn 0 -1 0
vn 0 1 0

# texcoords
vt 0.0722656 0.5
vt 0.0761719 0.5
vt 0.189453 0.5

# verts
v -0.4 0.7 0.1
v -0.4 0.7 -0.2
v -0.4 0.8 0.1
v -0.4 0.8 -0.2
v -0.3 0.7 0.2
v -0.3 0.7 0.1
v -0.3 0.7 -0.2
v -0.3 0.7 -0.3
v -0.3 0.8 0.2
v -0.3 0.8 0.1
v -0.3 0.8 -0.2
v -0.3 0.8 -0.3
v -0.2 0.7 0.3
v -0.2 0.7 0.2
v -0.2 0.7 -0.3
v -0.2 0.7 -0.4
v -0.2 0.8 0.3
v -0.2 0.8 0.2
v -0.2 0.8 -0.3
v -0.2 0.8 -0.4
v -0.1 0.4 0
v -0.1 0.4 -0.1
v -0.1 0.5 0
v -0.1 0.5 -0.1
v -0.1 0.7 0.4
v -0.1 0.7 0.3
v -0.1 0.7 -0.4
v -0.1 0.7 -0.5
v -0.1 0.8 0.4
v -0.1 0.8 0.3
v -0.1 0.8 -0.4
v -0.1 0.8 -0.5
v 0 0.2 0
v 0 0.2 -0.1
v 0 0.4 0.1
v 0 0.4 0
v 0 0.4 -0.1
v 0 0.4 -0.2
v 0 0.5 0.1
v 0 0.5 0
v 0 0.5 -0.1
v 0 0.5 -0.2
v 0 0.7 0
v 0 0.7 -0.1
v 0.1 0 0
v 0.1 0 -0.1
v 0.1 0.2 0
v 0.1 0.2 -0.1
v 0.1 0.3 0
v 0.1 0.3 -0.1
v 0.1 0.4 0.1
v 0.1 0.4 0
v 0.1 0.4 -0.1
v 0.1 0.4 -0.2
v 0.1 0.5 0.1
v 0.1 0.5 0
v 0.1 0.5 -0.1
v 0.1 0.5 -0.2
v 0.1 0.7 0
v 0.1 0.7 -0.1
v 0.2 0 0
v 0.2 0 -0.1
v 0.2 0.3 0
v 0.2 0.3 -0.1
v 0.2 0.4 0
v 0.2 0.4 -0.1
v 0.2 0.5 0
v 0.2 0.5 -0.1
v 0.2 0.7 0.4
v 0.2 0.7 0.3
v 0.2 0.7 -0.4
v 0.2 0.7 -0.5
v 0.2 0.8 0.4
v 0.2 0.8 0.3
v 0.2 0.8 -0.4
v 0.2 0.8 -0.5
v 0.3 0.7 0.3
v 0.3 0.7 0.2
v 0.3 0.7 -0.3
v 0.3 0.7 -0.4
v 0.3 0.8 0.3
v 0.3 0.8 0.2
v 0.3 0.8 -0.3
v 0.3 0.8 -0.4
v 0.4 0.7 0.2
v 0.4 0.7 0.1
v 0.4 0.7 -0.2
v 0.4 0.7 -0.3
v 0.4 0.8 0.2
v 0.4 0.8 0.1
v 0.4 0.8 -0.2
v 0.4 0.8 -0.3
v 0.5 0.7 0.1
v 0.5 0.7 -0.2
v 0.5 0.8 0.1
v 0.5 0.8 -0.2
v -0.1 0.7 0.4
v -0.1 0.8 0.4
v 0.2 0.7 0.4
v 0.2 0.8 0.4
v -0.2 0.7 0.3
v -0.2 0.8 0.3
v -0.1 0.7 0.3
v -0.1 0.8 0.3
v 0.2 0.7 0.3
v 0.2 0.8 0.3
v 0.3 0.7 0.3
v 0.3 0.8 0.3
v -0.3 0.7 0.2
v -0.3 0.8 0.2
v -0.2 0.7 0.2
v -0.2 0.8 0.2
v 0.3 0.7 0.2
v 0.3 0.8 0.2
v 0.4 0.7 0.2
v 0.4 0.8 0.2
v -0.4 0.7 0.1
v -0.4 0.8 0.1
v -0.3 0.7 0.1
v -0.3 0.8 0.1
v 0 0.4 0.1
v 0 0.5 0.1
v 0.1 0.4 0.1
v 0.1 0.5 0.1
v 0.4 0.7 0.1
v 0.4 0.8 0.1
v 0.5 0.7 0.1
v 0.5 0.8 0.1
v -0.1 0.4 0
v -0.1 0.5 0
v 0 0.2 0
v 0 0.4 0
v 0 0.5 0
v 0 0.7 0
v 0.1 0 0
v 0.1 0.2 0
v 0.1 0.3 0
v 0.1 0.4 0
v 0.1 0.5 0
v 0.1 0.7 0
v 0.2 0 0
v 0.2 0.3 0
v 0.2 0.4 0
v 0.2 0.5 0
v -0.1 0.4 -0.1
v -0.1 0.5 -0.1
v 0 0.2 -0.1
v 0 0.4 -0.1
v 0 0.5 -0.1
v 0 0.7 -0.1
v 0.1 0 -0.1
v 0.1 0.2 -0.1
v 0.1 0.3 -0.1
v 0.1 0.4 -0.1
v 0.1 0.5 -0.1
v 0.1 0.7 -0.1
v 0.2 0 -0.1
v 0.2 0.3 -0.1
v 0.2 0.4 -0.1
v 0.2 0.5 -0.1
v -0.4 0.7 -0.2
v -0.4 0.8 -0.2
v -0.3 0.7 -0.2
v -0.3 0.8 -0.2
v 0 0.4 -0.2
v 0 0.5 -0.2
v 0.1 0.4 -0.2
v 0.1 0.5 -0.2
v 0.4 0.7 -0.2
v 0.4 0.8 -0.2
v 0.5 0.7 -0.2
v 0.5 0.8 -0.2
v -0.3 0.7 -0.3
v -0.3 0.8 -0.3
v -0.2 0.7 -0.3
v -0.2 0.8 -0.3
v 0.3 0.7 -0.3
v 0.3 0.8 -0.3
v 0.4 0.7 -0.3
v 0.4 0.8 -0.3
v -0.2 0.7 -0.4
v -0.2 0.8 -0.4
v -0.1 0.7 -0.4
v -0.1 0.8 -0.4
v 0.2 0.7 -0.4
v 0.2 0.8 -0.4
v 0.3 0.7 -0.4
v 0.3 0.8 -0.4
v -0.1 0.7 -0.5
v -0.1 0.8 -0.5
v 0.2 0.7 -0.5
v 0.2 0.8 -0.5
v 0.1 0 0
v 0.2 0 0
v 0.1 0 -0.1
v 0.2 0 -0.1
v 0 0.2 0
v 0.1 0.2 0
v 0 0.2 -0.1
v 0.1 0.2 -0.1
v 0 0.4 0.1
v 0.1 0.4 0.1
v -0.1 0.4 0
v 0 0.4 0
v 0.1 0.4 0
v 0.2 0.4 0
v -0.1 0.4 -0.1
v 0 0.4 -0.1
v 0.1 0.4 -0.1
v 0.2 0.4 -0.1
v 0 0.4 -0.2
v 0.1 0.4 -0.2
v -0.1 0.7 0.4
v 0.2 0.7 0.4
v -0.2 0.7 0.3
v -0.1 0.7 0.3
v 0.1 0.7 0.3
v 0.2 0.7 0.3
v 0.3 0.7 0.3
v -0.3 0.7 0.2
v -0.2 0.7 0.2
v -0.1 0.7 0.2
v 0.1 0.7 0.2
v 0.3 0.7 0.2
v 0.4 0.7 0.2
v -0.4 0.7 0.1
v -0.3 0.7 0.1
v -0.2 0.7 0.1
v -0.1 0.7 0.1
v 0 0.7 0.1
v 0.2 0.7 0.1
v 0.3 0.7 0.1
v 0.4 0.7 0.1
v 0.5 0.7 0.1
v -0.3 0.7 0
v -0.2 0.7 0
v -0.1 0.7 0
v 0 0.7 0
v 0.1 0.7 0
v 0.2 0.7 0
v 0.3 0.7 0
v 0.4 0.7 0
v -0.3 0.7 -0.1
v -0.2 0.7 -0.1
v -0.1 0.7 -0.1
v 0 0.7 -0.1
v 0.1 0.7 -0.1
v 0.2 0.7 -0.1
v 0.3 0.7 -0.1
v 0.4 0.7 -0.1
v -0.4 0.7 -0.2
v -0.3 0.7 -0.2
v -0.1 0.7 -0.2
v 0 0.7 -0.2
v 0.1 0.7 -0.2
v 0.2 0.7 -0.2
v 0.4 0.7 -0.2
v 0.5 0.7 -0.2
v -0.3 0.7 -0.3
v -0.2 0.7 -0.3
v 0 0.7 -0.3
v 0.2 0.7 -0.3
v 0.3 0.7 -0.3
v 0.4 0.7 -0.3
v -0.2 0.7 -0.4
v -0.1 0.7 -0.4
v 0 0.7 -0.4
v 0.1 0.7 -0.4
v 0.2 0.7 -0.4
v 0.3 0.7 -0.4
v -0.1 0.7 -0.5
v 0.2 0.7 -0.5
v 0.1 0.3 0
v 0.2 0.3 0
v 0.1 0.3 -0.1
v 0.2 0.3 -0.1
v 0 0.5 0.1
v 0.1 0.5 0.1
v -0.1 0.5 0
v 0 0.5 0
v 0.1 0.5 0
v 0.2 0.5 0
v -0.1 0.5 -0.1
v 0 0.5 -0.1
v 0.1 0.5 -0.1
v 0.2 0.5 -0.1
v 0 0.5 -0.2
v 0.1 0.5 -0.2
v -0.1 0.8 0.4
v 0.2 0.8 0.4
v -0.2 0.8 0.3
v -0.1 0.8 0.3
v 0.1 0.8 0.3
v 0.2 0.8 0.3
v 0.3 0.8 0.3
v -0.3 0.8 0.2
v -0.2 0.8 0.2
v -0.1 0.8 0.2
v 0.1 0.8 0.2
v 0.3 0.8 0.2
v 0.4 0.8 0.2
v -0.4 0.8 0.1
v -0.3 0.8 0.1
v -0.2 0.8 0.1
v -0.1 0.8 0.1
v 0 0.8 0.1
v 0.2 0.8 0.1
v 0.3 0.8 0.1
v 0.4 0.8 0.1
v 0.5 0.8 0.1
v -0.3 0.8 0
v -0.2 0.8 0
v -0.1 0.8 0
v 0 0.8 0
v 0.1 0.8 0
v 0.2 0.8 0
v 0.3 0.8 0
v 0.4 0.8 0
v -0.3 0.8 -0.1
v -0.2 0.8 -0.1
v -0.1 0.8 -0.1
v 0 0.8 -0.1
v 0.1 0.8 -0.1
v 0.2 0.8 -0.1
v 0.3 0.8 -0.1
v 0.4 0.8 -0.1
v -0.4 0.8 -0.2
v -0.3 0.8 -0.2
v -0.1 0.8 -0.2
v 0 0.8 -0.2
v 0.1 0.8 -0.2
v 0.2 0.8 -0.2
v 0.4 0.8 -0.2
v 0.5 0.8 -0.2
v -0.3 0.8 -0.3
v -0.2 0.8 -0.3
v 0 0.8 -0.3
v 0.2 0.8 -0.3
v 0.3 0.8 -0.3
v 0.4 0.8 -0.3
v -0.2 0.8 -0.4
v -0.1 0.8 -0.4
v 0 0.8 -0.4
v 0.1 0.8 -0.4
v 0.2 0.8 -0.4
v 0.3 0.8 -0.4
v -0.1 0.8 -0.5
v 0.2 0.8 -0.5

# faces
f 3/2/1 2/2/1 1/2/1
f 4/2/1 2/2/1 3/2/1
f 9/2/1 6/2/1 5/2/1
f 10/2/1 6/2/1 9/2/1
f 11/2/1 8/2/1 7/2/1
f 12/2/1 8/2/1 11/2/1
f 17/2/1 14/2/1 13/2/1
f 18/2/1 14/2/1 17/2/1
f 19/2/1 16/2/1 15/2/1
f 20/2/1 16/2/1 19/2/1
f 23/1/1 22/1/1 21/1/1
f 24/1/1 22/1/1 23/1/1
f 29/2/1 26/2/1 25/2/1
f 30/2/1 26/2/1 29/2/1
f 31/2/1 28/2/1 27/2/1
f 32/2/1 28/2/1 31/2/1
f 36/3/1 34/3/1 33/3/1
f 37/3/1 34/3/1 36/3/1
f 39/1/1 36/1/1 35/1/1
f 40/1/1 36/1/1 39/1/1
f 41/1/1 38/1/1 37/1/1
f 42/1/1 38/1/1 41/1/1
f 43/3/1 41/3/1 40/3/1
f 44/3/1 41/3/1 43/3/1
f 47/3/1 46/3/1 45/3/1
f 48/3/1 46/3/1 47/3/1
f 49/3/2 50/3/2 52/3/2
f 52/3/2 50/3/2 53/3/2
f 51/1/2 52/1/2 55/1/2
f 55/1/2 52/1/2 56/1/2
f 53/1/2 54/1/2 57/1/2
f 57/1/2 54/1/2 58/1/2
f 56/3/2 57/3/2 59/3/2
f 59/3/2 57/3/2 60/3/2
f 61/3/2 62/3/2 63/3/2
f 63/3/2 62/3/2 64/3/2
f 65/1/2 66/1/2 67/1/2
f 67/1/2 66/1/2 68/1/2
f 69/2/2 70/2/2 73/2/2
f 73/2/2 70/2/2 74/2/2
f 71/2/2 72/2/2 75/2/2
f 75/2/2 72/2/2 76/2/2
f 77/2/2 78/2/2 81/2/2
f 81/2/2 78/2/2 82/2/2
f 79/2/2 80/2/2 83/2/2
f 83/2/2 80/2/2 84/2/2
f 85/2/2 86/2/2 89/2/2
f 89/2/2 86/2/2 90/2/2
f 87/2/2 88/2/2 91/2/2
f 91/2/2 88/2/2 92/2/2
f 93/2/2 94/2/2 95/2/2
f 95/2/2 94/2/2 96/2/2
f 99/2/3 98/2/3 97/2/3
f 100/2/3 98/2/3 99/2/3
f 103/2/3 102/2/3 101/2/3
f 104/2/3 102/2/3 103/2/3
f 107/2/3 106/2/3 105/2/3
f 108/2/3 106/2/3 107/2/3
f 111/2/3 110/2/3 109/2/3
f 112/2/3 110/2/3 111/2/3
f 115/2/3 114/2/3 113/2/3
f 116/2/3 114/2/3 115/2/3
f 119/2/3 118/2/3 117/2/3
f 120/2/3 118/2/3 119/2/3
f 123/1/3 122/1/3 121/1/3
f 124/1/3 122/1/3 123/1/3
f 127/2/3 126/2/3 125/2/3
f 128/2/3 126/2/3 127/2/3
f 132/1/3 130/1/3 129/1/3
f 133/1/3 130/1/3 132/1/3
f 136/3/3 132/3/3 131/3/3
f 137/3/3 132/3/3 136/3/3
f 138/3/3 132/3/3 137/3/3
f 139/3/3 134/3/3 133/3/3
f 140/3/3 134/3/3 139/3/3
f 141/3/3 136/3/3 135/3/3
f 141/3/3 137/3/3 136/3/3
f 142/3/3 137/3/3 141/3/3
f 143/1/3 139/1/3 138/1/3
f 144/1/3 139/1/3 143/1/3
f 145/1/4 146/1/4 148/1/4
f 148/1/4 146/1/4 149/1/4
f 147/3/4 148/3/4 152/3/4
f 152/3/4 148/3/4 153/3/4
f 153/3/4 148/3/4 154/3/4
f 149/3/4 150/3/4 155/3/4
f 155/3/4 150/3/4 156/3/4
f 151/3/4 152/3/4 157/3/4
f 152/3/4 153/3/4 157/3/4
f 157/3/4 153/3/4 158/3/4
f 154/1/4 155/1/4 159/1/4
f 159/1/4 155/1/4 160/1/4
f 161/2/4 162/2/4 163/2/4
f 163/2/4 162/2/4 164/2/4
f 165/1/4 166/1/4 167/1/4
f 167/1/4 166/1/4 168/1/4
f 169/2/4 170/2/4 171/2/4
f 171/2/4 170/2/4 172/2/4
f 173/2/4 174/2/4 175/2/4
f 175/2/4 174/2/4 176/2/4
f 177/2/4 178/2/4 179/2/4
f 179/2/4 178/2/4 180/2/4
f 181/2/4 182/2/4 183/2/4
f 183/2/4 182/2/4 184/2/4
f 185/2/4 186/2/4 187/2/4
f 187/2/4 186/2/4 188/2/4
f 189/2/4 190/2/4 191/2/4
f 191/2/4 190/2/4 192/2/4
f 195/3/5 194/3/5 193/3/5
f 196/3/5 194/3/5 195/3/5
f 199/3/5 198/3/5 197/3/5
f 200/3/5 198/3/5 199/3/5
f 204/1/5 202/1/5 201/1/5
f 205/1/5 202/1/5 204/1/5
f 207/1/5 204/1/5 203/1/5
f 208/1/5 204/1/5 207/1/5
f 209/1/5 206/1/5 205/1/5
f 210/1/5 206/1/5 209/1/5
f 211/1/5 209/1/5 208/1/5
f 212/1/5 209/1/5 211/1/5
f 216/2/5 214/2/5 213/2/5
f 217/2/5 214/2/5 216/2/5
f 218/2/5 214/2/5 217/2/5
f 221/2/5 216/2/5 215/2/5
f 221/2/5 217/2/5 216/2/5
f 222/2/5 217/2/5 221/2/5
f 223/1/5 218/1/5 217/1/5
f 223/2/5 217/2/5 222/2/5
f 224/2/5 219/2/5 218/2/5
f 227/2/5 222/2/5 221/2/5
f 227/2/5 221/2/5 220/2/5
f 228/2/5 222/2/5 227/2/5
f 229/1/5 223/1/5 222/1/5
f 229/2/5 222/2/5 228/2/5
f 230/1/5 223/1/5 229/1/5
f 231/1/5 218/1/5 223/1/5
f 231/1/5 223/1/5 230/1/5
f 231/2/5 225/2/5 224/2/5
f 231/2/5 224/2/5 218/2/5
f 232/2/5 225/2/5 231/2/5
f 233/2/5 225/2/5 232/2/5
f 235/2/5 227/2/5 226/2/5
f 235/2/5 228/2/5 227/2/5
f 236/1/5 229/1/5 228/1/5
f 236/2/5 228/2/5 235/2/5
f 237/2/5 230/2/5 229/2/5
f 237/1/5 229/1/5 236/1/5
f 238/1/5 231/1/5 230/1/5
f 238/2/5 230/2/5 237/2/5
f 238/1/5 232/1/5 231/1/5
f 239/1/5 232/1/5 238/1/5
f 240/1/5 232/1/5 239/1/5
f 241/2/5 234/2/5 233/2/5
f 241/1/5 232/1/5 240/1/5
f 241/2/5 233/2/5 232/2/5
f 242/2/5 234/2/5 241/2/5
f 243/1/5 236/1/5 235/1/5
f 243/2/5 235/2/5 226/2/5
f 243/1/5 237/1/5 236/1/5
f 243/1/5 238/1/5 237/1/5
f 244/1/5 238/1/5 243/1/5
f 245/1/5 238/1/5 244/1/5
f 246/1/5 238/1/5 245/1/5
f 247/2/5 240/2/5 239/2/5
f 248/1/5 242/1/5 241/1/5
f 248/1/5 241/1/5 240/1/5
f 248/2/5 240/2/5 247/2/5
f 249/1/5 242/1/5 248/1/5
f 250/2/5 234/2/5 242/2/5
f 250/1/5 242/1/5 249/1/5
f 251/2/5 243/2/5 226/2/5
f 251/2/5 244/2/5 243/2/5
f 252/2/5 244/2/5 251/2/5
f 253/2/5 246/2/5 245/2/5
f 253/1/5 245/1/5 244/1/5
f 254/1/5 249/1/5 248/1/5
f 254/2/5 246/2/5 253/2/5
f 254/1/5 247/1/5 246/1/5
f 254/1/5 248/1/5 247/1/5
f 255/1/5 249/1/5 254/1/5
f 256/1/5 249/1/5 255/1/5
f 257/2/5 234/2/5 250/2/5
f 257/2/5 250/2/5 249/2/5
f 258/2/5 234/2/5 257/2/5
f 259/2/5 244/2/5 252/2/5
f 260/1/5 253/1/5 244/1/5
f 260/2/5 244/2/5 259/2/5
f 260/1/5 254/1/5 253/1/5
f 260/1/5 255/1/5 254/1/5
f 261/1/5 255/1/5 260/1/5
f 262/1/5 249/1/5 256/1/5
f 262/2/5 256/2/5 255/2/5
f 263/2/5 257/2/5 249/2/5
f 263/1/5 249/1/5 262/1/5
f 264/2/5 257/2/5 263/2/5
f 265/2/5 261/2/5 260/2/5
f 266/2/5 261/2/5 265/2/5
f 267/1/5 255/1/5 261/1/5
f 267/2/5 261/2/5 266/2/5
f 268/2/5 262/2/5 255/2/5
f 268/1/5 255/1/5 267/1/5
f 268/2/5 263/2/5 262/2/5
f 269/2/5 263/2/5 268/2/5
f 270/2/5 263/2/5 269/2/5
f 271/2/5 267/2/5 266/2/5
f 271/2/5 269/2/5 268/2/5
f 271/2/5 268/2/5 267/2/5
f 272/2/5 269/2/5 271/2/5
f 273/3/6 274/3/6 275/3/6
f 275/3/6 274/3/6 276/3/6
f 277/1/6 278/1/6 280/1/6
f 280/1/6 278/1/6 281/1/6
f 279/1/6 280/1/6 283/1/6
f 283/1/6 280/1/6 284/1/6
f 281/1/6 282/1/6 285/1/6
f 285/1/6 282/1/6 286/1/6
f 284/1/6 285/1/6 287/1/6
f 287/1/6 285/1/6 288/1/6
f 289/2/6 290/2/6 292/2/6
f 292/2/6 290/2/6 293/2/6
f 293/2/6 290/2/6 294/2/6
f 291/2/6 292/2/6 297/2/6
f 292/2/6 293/2/6 297/2/6
f 297/2/6 293/2/6 298/2/6
f 293/1/6 294/1/6 299/1/6
f 298/2/6 293/2/6 299/2/6
f 294/2/6 295/2/6 300/2/6
f 297/2/6 298/2/6 303/2/6
f 296/2/6 297/2/6 303/2/6
f 303/2/6 298/2/6 304/2/6
f 298/1/6 299/1/6 305/1/6
f 304/2/6 298/2/6 305/2/6
f 305/1/6 299/1/6 306/1/6
f 299/1/6 294/1/6 307/1/6
f 306/1/6 299/1/6 307/1/6
f 300/2/6 301/2/6 307/2/6
f 294/2/6 300/2/6 307/2/6
f 307/2/6 301/2/6 308/2/6
f 308/2/6 301/2/6 309/2/6
f 302/2/6 303/2/6 311/2/6
f 303/2/6 304/2/6 311/2/6
f 304/1/6 305/1/6 312/1/6
f 311/2/6 304/2/6 312/2/6
f 305/2/6 306/2/6 313/2/6
f 312/1/6 305/1/6 313/1/6
f 306/1/6 307/1/6 314/1/6
f 313/2/6 306/2/6 314/2/6
f 307/1/6 308/1/6 314/1/6
f 314/1/6 308/1/6 315/1/6
f 315/1/6 308/1/6 316/1/6
f 309/2/6 310/2/6 317/2/6
f 316/1/6 308/1/6 317/1/6
f 308/2/6 309/2/6 317/2/6
f 317/2/6 310/2/6 318/2/6
f 311/1/6 312/1/6 319/1/6
f 302/2/6 311/2/6 319/2/6
f 314/1/6 315/1/6 319/1/6
f 312/1/6 313/1/6 319/1/6
f 313/1/6 314/1/6 319/1/6
f 319/1/6 315/1/6 320/1/6
f 320/1/6 315/1/6 321/1/6
f 321/1/6 315/1/6 322/1/6
f 315/2/6 316/2/6 323/2/6
f 322/1/6 315/1/6 323/1/6
f 317/1/6 318/1/6 324/1/6
f 323/2/6 316/2/6 324/2/6
f 316/1/6 317/1/6 324/1/6
f 324/1/6 318/1/6 325/1/6
f 318/2/6 310/2/6 326/2/6
f 325/1/6 318/1/6 326/1/6
f 302/2/6 319/2/6 327/2/6
f 319/2/6 320/2/6 327/2/6
f 327/2/6 320/2/6 328/2/6
f 321/2/6 322/2/6 329/2/6
f 320/1/6 321/1/6 329/1/6
f 324/1/6 325/1/6 330/1/6
f 329/2/6 322/2/6 330/2/6
f 322/1/6 323/1/6 330/1/6
f 323/1/6 324/1/6 330/1/6
f 330/1/6 325/1/6 331/1/6
f 331/1/6 325/1/6 332/1/6
f 326/2/6 310/2/6 333/2/6
f 325/2/6 326/2/6 333/2/6
f 333/2/6 310/2/6 334/2/6
f 328/2/6 320/2/6 335/2/6
f 320/1/6 329/1/6 336/1/6
f 335/2/6 320/2/6 336/2/6
f 329/1/6 330/1/6 336/1/6
f 330/1/6 331/1/6 336/1/6
f 336/1/6 331/1/6 337/1/6
f 332/1/6 325/1/6 338/1/6
f 331/2/6 332/2/6 338/2/6
f 325/2/6 333/2/6 339/2/6
f 338/1/6 325/1/6 339/1/6
f 339/2/6 333/2/6 340/2/6
f 336/2/6 337/2/6 341/2/6
f 341/2/6 337/2/6 342/2/6
f 337/1/6 331/1/6 343/1/6
f 342/2/6 337/2/6 343/2/6
f 331/2/6 338/2/6 344/2/6
f 343/1/6 331/1/6 344/1/6
f 338/2/6 339/2/6 344/2/6
f 344/2/6 339/2/6 345/2/6
f 345/2/6 339/2/6 346/2/6
f 342/2/6 343/2/6 347/2/6
f 344/2/6 345/2/6 347/2/6
f 343/2/6 344/2/6 347/2/6
f 347/2/6 345/2/6 348/2/6
