# MagicaVoxel @ Ephtracy

# group
o Stone1

# material
mtllib Stone1.mtl
usemtl palette

# normals
vn -1 0 0
vn 1 0 0
vn 0 0 1
vn 0 0 -1
vn 0 -1 0
vn 0 1 0

# texcoords
vt 0.291016 0.5
vt 0.298828 0.5

# verts
v -0.4 0 0.1
v -0.4 0 -0.2
v -0.4 0.1 0.1
v -0.4 0.1 -0.1
v -0.4 0.2 0.1
v -0.4 0.2 0
v -0.4 0.2 -0.1
v -0.4 0.2 -0.2
v -0.4 0.3 0
v -0.4 0.3 -0.1
v -0.3 0 0.2
v -0.3 0 0.1
v -0.3 0 -0.2
v -0.3 0 -0.3
v -0.3 0.1 0.2
v -0.3 0.1 0.1
v -0.3 0.2 0.2
v -0.3 0.2 0.1
v -0.3 0.2 0
v -0.3 0.2 -0.1
v -0.3 0.2 -0.2
v -0.3 0.2 -0.3
v -0.3 0.3 0.1
v -0.3 0.3 0
v -0.3 0.3 -0.1
v -0.3 0.3 -0.2
v -0.1 0 -0.3
v -0.1 0 -0.4
v -0.1 0.1 -0.3
v -0.1 0.1 -0.4
v -0.1 0.2 -0.2
v -0.1 0.2 -0.3
v -0.1 0.2 -0.4
v -0.1 0.3 -0.2
v -0.1 0.3 -0.3
v 0 0 0.3
v 0 0 0.2
v 0 0.2 0.3
v 0 0.2 0.2
v 0 0.2 0.1
v 0 0.2 -0.3
v 0 0.2 -0.4
v 0 0.3 0.2
v 0 0.3 0.1
v 0 0.3 -0.3
v 0 0.3 -0.4
v 0.1 0.2 0.3
v 0.1 0.2 0.2
v 0.1 0.3 0.3
v 0.1 0.3 0.2
v 0.1 0.2 -0.3
v 0.1 0.2 -0.4
v 0.1 0.3 -0.3
v 0.1 0.3 -0.4
v 0.2 0 -0.3
v 0.2 0 -0.4
v 0.2 0.1 -0.3
v 0.2 0.2 0.3
v 0.2 0.2 0.2
v 0.2 0.2 -0.2
v 0.2 0.2 -0.3
v 0.2 0.2 -0.4
v 0.2 0.3 0.3
v 0.2 0.3 0.2
v 0.2 0.3 -0.2
v 0.2 0.3 -0.3
v 0.3 0 0.3
v 0.3 0 0.2
v 0.3 0.1 0.3
v 0.3 0.1 0.2
v 0.3 0.2 0.3
v 0.3 0.2 0.2
v 0.3 0.2 0.1
v 0.3 0.3 0.2
v 0.3 0.3 0.1
v 0.4 0 0.2
v 0.4 0 0.1
v 0.4 0 -0.2
v 0.4 0 -0.3
v 0.4 0.1 0.2
v 0.4 0.1 0.1
v 0.4 0.1 -0.2
v 0.4 0.1 -0.3
v 0.4 0.2 0.2
v 0.4 0.2 0.1
v 0.4 0.2 0
v 0.4 0.2 -0.1
v 0.4 0.2 -0.2
v 0.4 0.2 -0.3
v 0.4 0.3 0.1
v 0.4 0.3 0
v 0.4 0.3 -0.1
v 0.4 0.3 -0.2
v 0.5 0 0.1
v 0.5 0 0
v 0.5 0 -0.2
v 0.5 0.1 0.1
v 0.5 0.1 0
v 0.5 0.2 0.1
v 0.5 0.2 0
v 0.5 0.2 -0.1
v 0.5 0.2 -0.2
v 0.5 0.3 0
v 0.5 0.3 -0.1
v 0 0 0.3
v 0 0.2 0.3
v 0.1 0.2 0.3
v 0.1 0.3 0.3
v 0.2 0.1 0.3
v 0.2 0.2 0.3
v 0.2 0.3 0.3
v 0.3 0 0.3
v 0.3 0.1 0.3
v 0.3 0.2 0.3
v -0.3 0 0.2
v -0.3 0.1 0.2
v -0.3 0.2 0.2
v -0.2 0.1 0.2
v -0.2 0.2 0.2
v 0 0 0.2
v 0 0.2 0.2
v 0 0.3 0.2
v 0.1 0.2 0.2
v 0.1 0.3 0.2
v 0.2 0.2 0.2
v 0.2 0.3 0.2
v 0.3 0 0.2
v 0.3 0.1 0.2
v 0.3 0.2 0.2
v 0.3 0.3 0.2
v 0.4 0 0.2
v 0.4 0.1 0.2
v 0.4 0.2 0.2
v -0.4 0 0.1
v -0.4 0.1 0.1
v -0.4 0.2 0.1
v -0.3 0 0.1
v -0.3 0.1 0.1
v -0.3 0.2 0.1
v -0.3 0.3 0.1
v -0.2 0.2 0.1
v 0 0.2 0.1
v 0 0.3 0.1
v 0.3 0.2 0.1
v 0.3 0.3 0.1
v 0.4 0 0.1
v 0.4 0.1 0.1
v 0.4 0.2 0.1
v 0.4 0.3 0.1
v 0.5 0 0.1
v 0.5 0.1 0.1
v 0.5 0.2 0.1
v -0.4 0.2 0
v -0.4 0.3 0
v -0.3 0.2 0
v -0.3 0.3 0
v 0.4 0.2 0
v 0.4 0.3 0
v 0.5 0.2 0
v 0.5 0.3 0
v -0.4 0.2 -0.1
v -0.4 0.3 -0.1
v -0.3 0.2 -0.1
v -0.3 0.3 -0.1
v 0.4 0.2 -0.1
v 0.4 0.3 -0.1
v 0.5 0.2 -0.1
v 0.5 0.3 -0.1
v -0.4 0 -0.2
v -0.4 0.2 -0.2
v -0.3 0 -0.2
v -0.3 0.2 -0.2
v -0.3 0.3 -0.2
v -0.2 0.2 -0.2
v -0.1 0.2 -0.2
v -0.1 0.3 -0.2
v 0.2 0.2 -0.2
v 0.2 0.3 -0.2
v 0.4 0 -0.2
v 0.4 0.1 -0.2
v 0.4 0.2 -0.2
v 0.4 0.3 -0.2
v 0.5 0 -0.2
v 0.5 0.2 -0.2
v -0.3 0 -0.3
v -0.3 0.2 -0.3
v -0.2 0.1 -0.3
v -0.2 0.2 -0.3
v -0.1 0 -0.3
v -0.1 0.1 -0.3
v -0.1 0.2 -0.3
v -0.1 0.3 -0.3
v 0 0.2 -0.3
v 0 0.3 -0.3
v 0.1 0.2 -0.3
v 0.1 0.3 -0.3
v 0.2 0 -0.3
v 0.2 0.1 -0.3
v 0.2 0.2 -0.3
v 0.2 0.3 -0.3
v 0.4 0 -0.3
v 0.4 0.1 -0.3
v 0.4 0.2 -0.3
v -0.1 0 -0.4
v -0.1 0.1 -0.4
v -0.1 0.2 -0.4
v 0 0.2 -0.4
v 0 0.3 -0.4
v 0.1 0.1 -0.4
v 0.1 0.2 -0.4
v 0.1 0.3 -0.4
v 0.2 0 -0.4
v 0.2 0.2 -0.4
v 0 0 0.3
v 0.3 0 0.3
v -0.3 0 0.2
v 0 0 0.2
v 0.3 0 0.2
v 0.4 0 0.2
v -0.4 0 0.1
v -0.3 0 0.1
v 0.4 0 0.1
v 0.5 0 0.1
v 0.4 0 0
v 0.5 0 0
v -0.4 0 -0.2
v -0.3 0 -0.2
v 0.4 0 -0.2
v 0.5 0 -0.2
v -0.3 0 -0.3
v -0.1 0 -0.3
v 0.2 0 -0.3
v 0.4 0 -0.3
v -0.1 0 -0.4
v 0.2 0 -0.4
v 0 0.2 0.3
v 0.1 0.2 0.3
v 0.2 0.2 0.3
v 0.3 0.2 0.3
v -0.3 0.2 0.2
v -0.2 0.2 0.2
v 0 0.2 0.2
v 0.1 0.2 0.2
v 0.2 0.2 0.2
v 0.3 0.2 0.2
v 0.4 0.2 0.2
v -0.4 0.2 0.1
v -0.3 0.2 0.1
v -0.2 0.2 0.1
v 0 0.2 0.1
v 0.3 0.2 0.1
v 0.4 0.2 0.1
v 0.5 0.2 0.1
v -0.4 0.2 0
v -0.3 0.2 0
v 0.4 0.2 0
v 0.5 0.2 0
v -0.4 0.2 -0.1
v -0.3 0.2 -0.1
v 0.4 0.2 -0.1
v 0.5 0.2 -0.1
v -0.4 0.2 -0.2
v -0.3 0.2 -0.2
v -0.2 0.2 -0.2
v -0.1 0.2 -0.2
v 0.2 0.2 -0.2
v 0.4 0.2 -0.2
v 0.5 0.2 -0.2
v -0.3 0.2 -0.3
v -0.2 0.2 -0.3
v -0.1 0.2 -0.3
v 0 0.2 -0.3
v 0.1 0.2 -0.3
v 0.2 0.2 -0.3
v 0.4 0.2 -0.3
v -0.1 0.2 -0.4
v 0 0.2 -0.4
v 0.1 0.2 -0.4
v 0.2 0.2 -0.4
v 0.1 0.3 0.3
v 0.2 0.3 0.3
v 0 0.3 0.2
v 0.1 0.3 0.2
v 0.2 0.3 0.2
v 0.3 0.3 0.2
v -0.3 0.3 0.1
v 0 0.3 0.1
v 0.1 0.3 0.1
v 0.2 0.3 0.1
v 0.3 0.3 0.1
v 0.4 0.3 0.1
v -0.4 0.3 0
v -0.3 0.3 0
v 0 0.3 0
v 0.2 0.3 0
v 0.4 0.3 0
v 0.5 0.3 0
v -0.4 0.3 -0.1
v -0.3 0.3 -0.1
v 0 0.3 -0.1
v 0.2 0.3 -0.1
v 0.4 0.3 -0.1
v 0.5 0.3 -0.1
v -0.3 0.3 -0.2
v -0.1 0.3 -0.2
v 0 0.3 -0.2
v 0.1 0.3 -0.2
v 0.2 0.3 -0.2
v 0.4 0.3 -0.2
v -0.1 0.3 -0.3
v 0 0.3 -0.3
v 0.1 0.3 -0.3
v 0.2 0.3 -0.3
v 0 0.3 -0.4
v 0.1 0.3 -0.4

# faces
f 3/2/1 2/2/1 1/2/1
f 4/2/1 2/2/1 3/2/1
f 5/1/1 4/1/1 3/1/1
f 6/1/1 4/1/1 5/1/1
f 7/2/1 2/2/1 4/2/1
f 7/1/1 4/1/1 6/1/1
f 8/2/1 2/2/1 7/2/1
f 9/1/1 7/1/1 6/1/1
f 10/1/1 7/1/1 9/1/1
f 15/2/1 12/2/1 11/2/1
f 16/2/1 12/2/1 15/2/1
f 17/1/1 16/1/1 15/1/1
f 18/1/1 16/1/1 17/1/1
f 21/2/1 14/2/1 13/2/1
f 22/2/1 14/2/1 21/2/1
f 23/2/1 19/2/1 18/2/1
f 24/2/1 19/2/1 23/2/1
f 25/2/1 21/2/1 20/2/1
f 26/2/1 21/2/1 25/2/1
f 29/2/1 28/2/1 27/2/1
f 30/2/1 28/2/1 29/2/1
f 32/1/1 30/1/1 29/1/1
f 33/1/1 30/1/1 32/1/1
f 34/2/1 32/2/1 31/2/1
f 35/2/1 32/2/1 34/2/1
f 38/2/1 37/2/1 36/2/1
f 39/2/1 37/2/1 38/2/1
f 43/1/1 40/1/1 39/1/1
f 44/1/1 40/1/1 43/1/1
f 45/2/1 42/2/1 41/2/1
f 46/2/1 42/2/1 45/2/1
f 49/1/1 48/1/1 47/1/1
f 50/1/1 48/1/1 49/1/1
f 51/2/2 52/2/2 53/2/2
f 53/2/2 52/2/2 54/2/2
f 55/2/2 56/2/2 57/2/2
f 57/2/2 56/2/2 61/2/2
f 61/2/2 56/2/2 62/2/2
f 58/1/2 59/1/2 63/1/2
f 63/1/2 59/1/2 64/1/2
f 60/1/2 61/1/2 65/1/2
f 65/1/2 61/1/2 66/1/2
f 67/2/2 68/2/2 69/2/2
f 69/2/2 68/2/2 70/2/2
f 69/1/2 70/1/2 71/1/2
f 71/1/2 70/1/2 72/1/2
f 72/2/2 73/2/2 74/2/2
f 74/2/2 73/2/2 75/2/2
f 76/2/2 77/2/2 80/2/2
f 80/2/2 77/2/2 81/2/2
f 78/2/2 79/2/2 82/2/2
f 82/2/2 79/2/2 83/2/2
f 80/1/2 81/1/2 84/1/2
f 84/1/2 81/1/2 85/1/2
f 82/1/2 83/1/2 88/1/2
f 88/1/2 83/1/2 89/1/2
f 85/1/2 86/1/2 90/1/2
f 90/1/2 86/1/2 91/1/2
f 87/2/2 88/2/2 92/2/2
f 92/2/2 88/2/2 93/2/2
f 94/1/2 95/1/2 97/1/2
f 95/2/2 96/2/2 98/2/2
f 97/1/2 95/1/2 98/1/2
f 97/2/2 98/2/2 99/2/2
f 98/2/2 96/2/2 100/2/2
f 99/2/2 98/2/2 100/2/2
f 100/2/2 96/2/2 101/2/2
f 101/2/2 96/2/2 102/2/2
f 100/2/2 101/2/2 103/2/2
f 103/2/2 101/2/2 104/2/2
f 107/2/3 106/2/3 105/2/3
f 109/2/3 107/2/3 105/2/3
f 110/1/3 108/1/3 107/1/3
f 110/2/3 107/2/3 109/2/3
f 111/1/3 108/1/3 110/1/3
f 112/2/3 109/2/3 105/2/3
f 113/1/3 110/1/3 109/1/3
f 113/2/3 109/2/3 112/2/3
f 114/1/3 110/1/3 113/1/3
f 118/2/3 116/2/3 115/2/3
f 118/1/3 117/1/3 116/1/3
f 119/1/3 117/1/3 118/1/3
f 120/2/3 118/2/3 115/2/3
f 120/2/3 119/2/3 118/2/3
f 121/2/3 119/2/3 120/2/3
f 123/1/3 122/1/3 121/1/3
f 124/1/3 122/1/3 123/1/3
f 129/2/3 126/2/3 125/2/3
f 130/2/3 126/2/3 129/2/3
f 131/2/3 128/2/3 127/2/3
f 132/1/3 129/1/3 128/1/3
f 132/2/3 128/2/3 131/2/3
f 133/1/3 129/1/3 132/1/3
f 137/2/3 135/2/3 134/2/3
f 138/1/3 136/1/3 135/1/3
f 138/2/3 135/2/3 137/2/3
f 139/1/3 136/1/3 138/1/3
f 141/2/3 140/2/3 139/2/3
f 142/2/3 140/2/3 141/2/3
f 143/2/3 140/2/3 142/2/3
f 148/1/3 145/1/3 144/1/3
f 149/1/3 145/1/3 148/1/3
f 150/1/3 147/1/3 146/1/3
f 151/2/3 148/2/3 147/2/3
f 151/1/3 147/1/3 150/1/3
f 152/2/3 148/2/3 151/2/3
f 155/1/3 154/1/3 153/1/3
f 156/1/3 154/1/3 155/1/3
f 159/2/3 158/2/3 157/2/3
f 160/2/3 158/2/3 159/2/3
f 161/1/4 162/1/4 163/1/4
f 163/1/4 162/1/4 164/1/4
f 165/2/4 166/2/4 167/2/4
f 167/2/4 166/2/4 168/2/4
f 169/2/4 170/2/4 171/2/4
f 171/2/4 170/2/4 172/2/4
f 172/2/4 173/2/4 174/2/4
f 174/2/4 173/2/4 175/2/4
f 175/2/4 173/2/4 176/2/4
f 177/2/4 178/2/4 181/2/4
f 181/2/4 178/2/4 182/2/4
f 179/2/4 180/2/4 183/2/4
f 180/2/4 181/2/4 183/2/4
f 183/2/4 181/2/4 184/2/4
f 185/2/4 186/2/4 187/2/4
f 187/2/4 186/2/4 188/2/4
f 185/2/4 187/2/4 189/2/4
f 187/1/4 188/1/4 190/1/4
f 189/2/4 187/2/4 190/2/4
f 190/1/4 188/1/4 191/1/4
f 191/2/4 192/2/4 193/2/4
f 193/2/4 192/2/4 194/2/4
f 195/1/4 196/1/4 199/1/4
f 199/1/4 196/1/4 200/1/4
f 197/2/4 198/2/4 201/2/4
f 198/1/4 199/1/4 202/1/4
f 201/2/4 198/2/4 202/2/4
f 202/1/4 199/1/4 203/1/4
f 205/1/4 206/1/4 207/1/4
f 204/2/4 205/2/4 209/2/4
f 205/1/4 207/1/4 209/1/4
f 207/2/4 208/2/4 210/2/4
f 209/1/4 207/1/4 210/1/4
f 210/2/4 208/2/4 211/2/4
f 204/2/4 209/2/4 212/2/4
f 209/2/4 210/2/4 212/2/4
f 212/2/4 210/2/4 213/2/4
f 217/2/5 215/2/5 214/2/5
f 218/2/5 215/2/5 217/2/5
f 221/2/5 217/2/5 216/2/5
f 221/2/5 219/2/5 218/2/5
f 221/2/5 218/2/5 217/2/5
f 222/2/5 219/2/5 221/2/5
f 224/2/5 221/2/5 220/2/5
f 224/1/5 223/1/5 222/1/5
f 224/2/5 222/2/5 221/2/5
f 225/1/5 223/1/5 224/1/5
f 226/2/5 224/2/5 220/2/5
f 226/2/5 225/2/5 224/2/5
f 227/2/5 225/2/5 226/2/5
f 228/2/5 225/2/5 227/2/5
f 229/2/5 225/2/5 228/2/5
f 230/2/5 228/2/5 227/2/5
f 231/2/5 228/2/5 230/2/5
f 232/2/5 228/2/5 231/2/5
f 233/2/5 228/2/5 232/2/5
f 234/2/5 232/2/5 231/2/5
f 235/2/5 232/2/5 234/2/5
f 236/2/6 237/2/6 242/2/6
f 242/2/6 237/2/6 243/2/6
f 238/1/6 239/1/6 244/1/6
f 244/1/6 239/1/6 245/1/6
f 240/1/6 241/1/6 248/1/6
f 241/2/6 242/2/6 249/2/6
f 248/1/6 241/1/6 249/1/6
f 249/2/6 242/2/6 250/2/6
f 245/1/6 246/1/6 251/1/6
f 251/1/6 246/1/6 252/1/6
f 247/1/6 248/1/6 254/1/6
f 254/1/6 248/1/6 255/1/6
f 252/2/6 253/2/6 256/2/6
f 256/2/6 253/2/6 257/2/6
f 258/2/6 259/2/6 262/2/6
f 262/2/6 259/2/6 263/2/6
f 260/2/6 261/2/6 267/2/6
f 267/2/6 261/2/6 268/2/6
f 263/2/6 264/2/6 269/2/6
f 264/1/6 265/1/6 270/1/6
f 269/2/6 264/2/6 270/2/6
f 270/1/6 265/1/6 271/1/6
f 266/1/6 267/1/6 274/1/6
f 274/1/6 267/1/6 275/1/6
f 271/1/6 272/1/6 276/1/6
f 276/1/6 272/1/6 277/1/6
f 273/2/6 274/2/6 278/2/6
f 278/2/6 274/2/6 279/2/6
f 280/1/6 281/1/6 283/1/6
f 283/1/6 281/1/6 284/1/6
f 282/1/6 283/1/6 287/1/6
f 284/2/6 285/2/6 288/2/6
f 283/2/6 284/2/6 288/2/6
f 287/1/6 283/1/6 288/1/6
f 288/2/6 285/2/6 289/2/6
f 289/2/6 285/2/6 290/2/6
f 286/2/6 287/2/6 293/2/6
f 287/2/6 288/2/6 293/2/6
f 288/2/6 289/2/6 293/2/6
f 293/2/6 289/2/6 294/2/6
f 290/1/6 291/1/6 295/1/6
f 294/2/6 289/2/6 295/2/6
f 289/1/6 290/1/6 295/1/6
f 295/1/6 291/1/6 296/1/6
f 293/1/6 294/1/6 298/1/6
f 292/1/6 293/1/6 298/1/6
f 298/1/6 294/1/6 299/1/6
f 296/2/6 297/2/6 300/2/6
f 299/1/6 294/1/6 300/1/6
f 295/2/6 296/2/6 300/2/6
f 294/2/6 295/2/6 300/2/6
f 300/2/6 297/2/6 301/2/6
f 301/2/6 297/2/6 302/2/6
f 302/2/6 297/2/6 303/2/6
f 299/2/6 300/2/6 304/2/6
f 304/2/6 300/2/6 305/2/6
f 300/1/6 301/1/6 306/1/6
f 305/2/6 300/2/6 306/2/6
f 306/1/6 301/1/6 307/1/6
f 301/2/6 302/2/6 308/2/6
f 307/1/6 301/1/6 308/1/6
f 308/2/6 302/2/6 309/2/6
f 306/2/6 307/2/6 310/2/6
f 305/2/6 306/2/6 310/2/6
f 310/2/6 307/2/6 311/2/6
f 307/1/6 308/1/6 312/1/6
f 311/2/6 307/2/6 312/2/6
f 312/1/6 308/1/6 313/1/6
f 311/2/6 312/2/6 314/2/6
f 314/2/6 312/2/6 315/2/6
