# MagicaVoxel @ Ephtracy

# group
o Stone2_O

# material
mtllib Stone2_O.mtl
usemtl palette

# normals
vn -1 0 0
vn 1 0 0
vn 0 0 1
vn 0 0 -1
vn 0 -1 0
vn 0 1 0

# texcoords
vt 0.291016 0.5
vt 0.294922 0.5
vt 0.298828 0.5

# verts
v -0.6 0 0.3
v -0.6 0 0.1
v -0.6 0 5.96046e-08
v -0.6 0 -0.1
v -0.6 0.1 0.3
v -0.6 0.1 0.1
v -0.6 0.1 5.96046e-08
v -0.6 0.1 -0.1
v -0.5 0 0.4
v -0.5 0 0.3
v -0.5 0 -0.1
v -0.5 0 -0.2
v -0.5 0.1 0.4
v -0.5 0.1 0.3
v -0.5 0.1 0.1
v -0.5 0.1 5.96046e-08
v -0.5 0.1 -0.1
v -0.5 0.1 -0.2
v -0.5 0.2 0.3
v -0.5 0.2 0.1
v -0.5 0.2 5.96046e-08
v -0.5 0.2 -0.1
v -0.4 0 0.5
v -0.4 0 0.4
v -0.4 0.1 0.5
v -0.4 0.1 0.4
v -0.3 0 -0.2
v -0.3 0 -0.3
v -0.3 0.1 0.4
v -0.3 0.1 0.3
v -0.3 0.1 -0.1
v -0.3 0.1 -0.2
v -0.3 0.1 -0.3
v -0.3 0.2 0.4
v -0.3 0.2 0.3
v -0.3 0.2 0.2
v -0.3 0.2 0.1
v -0.3 0.2 5.96046e-08
v -0.3 0.2 -0.1
v -0.3 0.2 -0.2
v -0.3 0.3 0.3
v -0.3 0.3 0.2
v -0.3 0.3 0.1
v -0.3 0.3 5.96046e-08
v -0.2 0.1 0.5
v -0.2 0.1 0.4
v -0.2 0.2 0.5
v -0.2 0.2 0.4
v -0.2 0.2 0.3
v -0.2 0.2 5.96046e-08
v -0.2 0.2 -0.1
v -0.2 0.3 0.4
v -0.2 0.3 0.3
v -0.2 0.3 5.96046e-08
v -0.2 0.3 -0.1
v -0.1 0 -0.3
v -0.1 0 -0.4
v -0.1 0.1 -0.2
v -0.1 0.1 -0.3
v -0.1 0.1 -0.4
v -0.1 0.2 -0.2
v -0.1 0.2 -0.3
v -5.96046e-08 0 -0.4
v -5.96046e-08 0 -0.5
v -5.96046e-08 0.1 -0.4
v -5.96046e-08 0.1 -0.5
v -5.96046e-08 0.2 -0.1
v -5.96046e-08 0.2 -0.2
v -5.96046e-08 0.3 -0.1
v -5.96046e-08 0.3 -0.2
v 0.1 0 0.6
v 0.1 0 0.5
v 0.1 0 -0.5
v 0.1 0 -0.6
v 0.1 0.1 0.6
v 0.1 0.1 0.5
v 0.1 0.1 0.4
v 0.1 0.1 -0.3
v 0.1 0.1 -0.4
v 0.1 0.1 -0.5
v 0.1 0.1 -0.6
v 0.1 0.2 0.5
v 0.1 0.2 0.4
v 0.1 0.2 -0.3
v 0.1 0.2 -0.4
v 0.2 0.1 0.6
v 0.2 0.1 0.5
v 0.2 0.2 0.6
v 0.2 0.2 0.5
v 0.2 0.2 0.4
v 0.2 0.3 0.5
v 0.2 0.3 0.4
v 0.3 0.2 5.96046e-08
v 0.3 0.2 -0.1
v 0.3 0.3 5.96046e-08
v 0.3 0.3 -0.1
v -5.96046e-08 0.1 0.5
v -5.96046e-08 0.1 0.4
v -5.96046e-08 0.2 0.5
v -5.96046e-08 0.2 0.4
v 0.1 0.2 -0.1
v 0.1 0.2 -0.2
v 0.1 0.3 -0.1
v 0.1 0.3 -0.2
v 0.2 0.2 5.96046e-08
v 0.2 0.2 -0.1
v 0.2 0.3 5.96046e-08
v 0.2 0.3 -0.1
v 0.4 0 0.6
v 0.4 0 0.5
v 0.4 0 -0.5
v 0.4 0 -0.6
v 0.4 0.1 0.6
v 0.4 0.1 0.5
v 0.4 0.1 -0.3
v 0.4 0.1 -0.4
v 0.4 0.1 -0.5
v 0.4 0.1 -0.6
v 0.4 0.2 0.6
v 0.4 0.2 0.5
v 0.4 0.2 0.4
v 0.4 0.2 -0.3
v 0.4 0.2 -0.4
v 0.4 0.3 0.5
v 0.4 0.3 0.4
v 0.5 0 0.5
v 0.5 0 0.4
v 0.5 0 -0.4
v 0.5 0 -0.5
v 0.5 0.1 0.5
v 0.5 0.1 0.4
v 0.5 0.1 -0.2
v 0.5 0.1 -0.3
v 0.5 0.1 -0.4
v 0.5 0.1 -0.5
v 0.5 0.2 0.5
v 0.5 0.2 0.4
v 0.5 0.2 0.3
v 0.5 0.2 0.2
v 0.5 0.2 0.1
v 0.5 0.2 5.96046e-08
v 0.5 0.2 -0.1
v 0.5 0.2 -0.2
v 0.5 0.2 -0.3
v 0.5 0.3 0.4
v 0.5 0.3 0.3
v 0.5 0.3 0.2
v 0.5 0.3 0.1
v 0.5 0.3 5.96046e-08
v 0.5 0.3 -0.1
v 0.6 0 0.4
v 0.6 0 0.3
v 0.6 0 -0.2
v 0.6 0 -0.3
v 0.6 0 -0.4
v 0.6 0.1 0.4
v 0.6 0.1 0.3
v 0.6 0.1 -0.2
v 0.6 0.1 -0.3
v 0.6 0.1 -0.4
v 0.6 0.2 0.4
v 0.6 0.2 0.3
v 0.6 0.2 0.2
v 0.6 0.2 0.1
v 0.6 0.2 5.96046e-08
v 0.6 0.3 0.3
v 0.6 0.3 0.2
v 0.6 0.3 0.1
v 0.6 0.3 5.96046e-08
v 0.7 0 0.3
v 0.7 0 0.1
v 0.7 0 -0.2
v 0.7 0.1 0.2
v 0.7 0.1 0.1
v 0.7 0.1 5.96046e-08
v 0.7 0.1 -0.2
v 0.7 0.2 0.3
v 0.7 0.2 0.2
v 0.7 0.2 0.1
v 0.7 0.2 5.96046e-08
v 0.7 0.2 -0.2
v 0.1 0 0.6
v 0.1 0.1 0.6
v 0.2 0.1 0.6
v 0.2 0.2 0.6
v 0.3 0.1 0.6
v 0.3 0.2 0.6
v 0.4 0 0.6
v 0.4 0.1 0.6
v 0.4 0.2 0.6
v -0.4 0 0.5
v -0.4 0.1 0.5
v -0.3 0 0.5
v -0.3 0.1 0.5
v -0.2 0.1 0.5
v -0.2 0.2 0.5
v -0.1 0.1 0.5
v -0.1 0.2 0.5
v -5.96046e-08 0.1 0.5
v -5.96046e-08 0.2 0.5
v 0.1 0 0.5
v 0.1 0.1 0.5
v 0.1 0.2 0.5
v 0.2 0.1 0.5
v 0.2 0.2 0.5
v 0.2 0.3 0.5
v 0.3 0.2 0.5
v 0.3 0.3 0.5
v 0.4 0 0.5
v 0.4 0.1 0.5
v 0.4 0.2 0.5
v 0.4 0.3 0.5
v 0.5 0 0.5
v 0.5 0.1 0.5
v 0.5 0.2 0.5
v -0.5 0 0.4
v -0.5 0.1 0.4
v -0.4 0 0.4
v -0.4 0.1 0.4
v -0.3 0.1 0.4
v -0.3 0.2 0.4
v -0.2 0.1 0.4
v -0.2 0.2 0.4
v -0.2 0.3 0.4
v -0.1 0.2 0.4
v -5.96046e-08 0.1 0.4
v -5.96046e-08 0.2 0.4
v 0.1 0.1 0.4
v 0.1 0.2 0.4
v 0.2 0.2 0.4
v 0.2 0.3 0.4
v 0.4 0.2 0.4
v 0.4 0.3 0.4
v 0.5 0 0.4
v 0.5 0.1 0.4
v 0.5 0.2 0.4
v 0.5 0.3 0.4
v 0.6 0 0.4
v 0.6 0.1 0.4
v 0.6 0.2 0.4
v -0.6 0 0.3
v -0.6 0.1 0.3
v -0.5 0 0.3
v -0.5 0.1 0.3
v -0.5 0.2 0.3
v -0.4 0.1 0.3
v -0.3 0.1 0.3
v -0.3 0.2 0.3
v -0.3 0.3 0.3
v -0.2 0.2 0.3
v -0.2 0.3 0.3
v 0.5 0.2 0.3
v 0.5 0.3 0.3
v 0.6 0 0.3
v 0.6 0.1 0.3
v 0.6 0.2 0.3
v 0.6 0.3 0.3
v 0.7 0 0.3
v 0.7 0.2 0.3
v 0.5 0.2 0.1
v 0.5 0.3 0.1
v 0.6 0.2 0.1
v 0.6 0.3 0.1
v 0.5 0.2 0.2
v 0.5 0.3 0.2
v 0.6 0.2 0.2
v 0.6 0.3 0.2
v -0.3 0.2 5.96046e-08
v -0.3 0.3 5.96046e-08
v -0.2 0.2 5.96046e-08
v -0.2 0.3 5.96046e-08
v 0.2 0.2 5.96046e-08
v 0.2 0.3 5.96046e-08
v 0.3 0.2 5.96046e-08
v 0.3 0.3 5.96046e-08
v 0.5 0.2 5.96046e-08
v 0.5 0.3 5.96046e-08
v 0.6 0.2 5.96046e-08
v 0.6 0.3 5.96046e-08
v -0.6 0 -0.1
v -0.6 0.1 -0.1
v -0.5 0 -0.1
v -0.5 0.1 -0.1
v -0.5 0.2 -0.1
v -0.4 0.1 -0.1
v -0.4 0.2 -0.1
v -0.3 0.1 -0.1
v -0.3 0.2 -0.1
v -0.2 0.2 -0.1
v -0.2 0.3 -0.1
v -0.1 0.2 -0.1
v -0.1 0.3 -0.1
v -5.96046e-08 0.2 -0.1
v -5.96046e-08 0.3 -0.1
v 0.1 0.2 -0.1
v 0.1 0.3 -0.1
v 0.2 0.2 -0.1
v 0.2 0.3 -0.1
v 0.3 0.2 -0.1
v 0.3 0.3 -0.1
v 0.4 0.2 -0.1
v 0.4 0.3 -0.1
v 0.5 0.2 -0.1
v 0.5 0.3 -0.1
v -0.5 0 -0.2
v -0.5 0.1 -0.2
v -0.3 0 -0.2
v -0.3 0.1 -0.2
v -0.3 0.2 -0.2
v -0.1 0.1 -0.2
v -0.1 0.2 -0.2
v -5.96046e-08 0.2 -0.2
v -5.96046e-08 0.3 -0.2
v 0.1 0.2 -0.2
v 0.1 0.3 -0.2
v 0.5 0.1 -0.2
v 0.5 0.2 -0.2
v 0.6 0 -0.2
v 0.6 0.1 -0.2
v 0.7 0 -0.2
v 0.7 0.1 -0.2
v 0.7 0.2 -0.2
v -0.3 0 -0.3
v -0.3 0.1 -0.3
v -0.1 0 -0.3
v -0.1 0.1 -0.3
v -0.1 0.2 -0.3
v -5.96046e-08 0.1 -0.3
v -5.96046e-08 0.2 -0.3
v 0.1 0.1 -0.3
v 0.1 0.2 -0.3
v 0.4 0.1 -0.3
v 0.4 0.2 -0.3
v 0.5 0.1 -0.3
v 0.5 0.2 -0.3
v -0.1 0 -0.4
v -0.1 0.1 -0.4
v -5.96046e-08 0 -0.4
v -5.96046e-08 0.1 -0.4
v 0.1 0.1 -0.4
v 0.1 0.2 -0.4
v 0.2 0.1 -0.4
v 0.2 0.2 -0.4
v 0.3 0.1 -0.4
v 0.4 0.1 -0.4
v 0.4 0.2 -0.4
v 0.5 0 -0.4
v 0.5 0.1 -0.4
v 0.6 0 -0.4
v 0.6 0.1 -0.4
v -5.96046e-08 0 -0.5
v -5.96046e-08 0.1 -0.5
v 0.1 0 -0.5
v 0.1 0.1 -0.5
v 0.4 0 -0.5
v 0.4 0.1 -0.5
v 0.5 0 -0.5
v 0.5 0.1 -0.5
v 0.1 0 -0.6
v 0.1 0.1 -0.6
v 0.2 0 -0.6
v 0.2 0.1 -0.6
v 0.4 0 -0.6
v 0.4 0.1 -0.6
v 0.1 0 0.6
v 0.4 0 0.6
v -0.4 0 0.5
v -0.3 0 0.5
v 0.1 0 0.5
v 0.4 0 0.5
v 0.5 0 0.5
v -0.5 0 0.4
v -0.4 0 0.4
v -0.3 0 0.4
v 0.5 0 0.4
v 0.6 0 0.4
v -0.6 0 0.3
v -0.5 0 0.3
v -0.4 0 0.3
v 0.5 0 0.3
v 0.6 0 0.3
v 0.7 0 0.3
v -0.6 0 0.1
v -0.5 0 0.1
v 0.6 0 0.1
v 0.7 0 0.1
v -0.6 0 5.96046e-08
v -0.5 0 5.96046e-08
v -0.6 0 -0.1
v -0.5 0 -0.1
v -0.5 0 -0.2
v -0.3 0 -0.2
v 0.5 0 -0.2
v 0.6 0 -0.2
v 0.7 0 -0.2
v -0.3 0 -0.3
v -0.1 0 -0.3
v -5.96046e-08 0 -0.3
v 0.4 0 -0.3
v 0.5 0 -0.3
v 0.6 0 -0.3
v -0.1 0 -0.4
v -5.96046e-08 0 -0.4
v 0.1 0 -0.4
v 0.2 0 -0.4
v 0.3 0 -0.4
v 0.4 0 -0.4
v 0.5 0 -0.4
v 0.6 0 -0.4
v -5.96046e-08 0 -0.5
v 0.1 0 -0.5
v 0.2 0 -0.5
v 0.3 0 -0.5
v 0.4 0 -0.5
v 0.5 0 -0.5
v 0.1 0 -0.6
v 0.2 0 -0.6
v 0.4 0 -0.6
v 0.1 0.1 0.6
v 0.2 0.1 0.6
v -0.4 0.1 0.5
v -0.3 0.1 0.5
v -0.2 0.1 0.5
v -5.96046e-08 0.1 0.5
v 0.1 0.1 0.5
v 0.2 0.1 0.5
v -0.5 0.1 0.4
v -0.4 0.1 0.4
v -0.3 0.1 0.4
v -0.2 0.1 0.4
v -5.96046e-08 0.1 0.4
v 0.1 0.1 0.4
v -0.6 0.1 0.3
v -0.5 0.1 0.3
v -0.4 0.1 0.3
v -0.3 0.1 0.3
v -0.6 0.1 0.1
v -0.5 0.1 0.1
v -0.6 0.1 5.96046e-08
v -0.5 0.1 5.96046e-08
v -0.6 0.1 -0.1
v -0.5 0.1 -0.1
v -0.4 0.1 -0.1
v -0.3 0.1 -0.1
v -0.5 0.1 -0.2
v -0.3 0.1 -0.2
v -0.1 0.1 -0.2
v 0.5 0.1 -0.2
v 0.6 0.1 -0.2
v -0.3 0.1 -0.3
v -0.1 0.1 -0.3
v -5.96046e-08 0.1 -0.3
v 0.1 0.1 -0.3
v 0.4 0.1 -0.3
v 0.5 0.1 -0.3
v 0.6 0.1 -0.3
v -0.1 0.1 -0.4
v -5.96046e-08 0.1 -0.4
v 0.1 0.1 -0.4
v 0.2 0.1 -0.4
v 0.3 0.1 -0.4
v 0.4 0.1 -0.4
v 0.5 0.1 -0.4
v 0.6 0.1 -0.4
v -5.96046e-08 0.1 -0.5
v 0.1 0.1 -0.5
v 0.2 0.1 -0.5
v 0.3 0.1 -0.5
v 0.4 0.1 -0.5
v 0.5 0.1 -0.5
v 0.1 0.1 -0.6
v 0.2 0.1 -0.6
v 0.4 0.1 -0.6
v 0.2 0.2 0.6
v 0.3 0.2 0.6
v 0.4 0.2 0.6
v -0.2 0.2 0.5
v -0.1 0.2 0.5
v -5.96046e-08 0.2 0.5
v 0.1 0.2 0.5
v 0.2 0.2 0.5
v 0.3 0.2 0.5
v 0.4 0.2 0.5
v 0.5 0.2 0.5
v -0.3 0.2 0.4
v -0.2 0.2 0.4
v -0.1 0.2 0.4
v -5.96046e-08 0.2 0.4
v 0.1 0.2 0.4
v 0.2 0.2 0.4
v 0.4 0.2 0.4
v 0.5 0.2 0.4
v 0.6 0.2 0.4
v -0.5 0.2 0.3
v -0.3 0.2 0.3
v -0.2 0.2 0.3
v 0.5 0.2 0.3
v 0.6 0.2 0.3
v 0.7 0.2 0.3
v -0.3 0.2 0.2
v 0.5 0.2 0.2
v 0.6 0.2 0.2
v 0.7 0.2 0.2
v -0.5 0.2 0.1
v -0.4 0.2 0.1
v -0.3 0.2 0.1
v 0.5 0.2 0.1
v 0.6 0.2 0.1
v 0.7 0.2 0.1
v -0.5 0.2 5.96046e-08
v -0.4 0.2 5.96046e-08
v -0.3 0.2 5.96046e-08
v -0.2 0.2 5.96046e-08
v 0.2 0.2 5.96046e-08
v 0.3 0.2 5.96046e-08
v 0.5 0.2 5.96046e-08
v 0.6 0.2 5.96046e-08
v 0.7 0.2 5.96046e-08
v -0.5 0.2 -0.1
v -0.4 0.2 -0.1
v -0.3 0.2 -0.1
v -0.2 0.2 -0.1
v -0.1 0.2 -0.1
v -5.96046e-08 0.2 -0.1
v 0.1 0.2 -0.1
v 0.2 0.2 -0.1
v 0.3 0.2 -0.1
v 0.4 0.2 -0.1
v 0.5 0.2 -0.1
v 0.6 0.2 -0.1
v -0.3 0.2 -0.2
v -0.1 0.2 -0.2
v -5.96046e-08 0.2 -0.2
v 0.1 0.2 -0.2
v 0.5 0.2 -0.2
v 0.7 0.2 -0.2
v -0.1 0.2 -0.3
v -5.96046e-08 0.2 -0.3
v 0.1 0.2 -0.3
v 0.2 0.2 -0.3
v 0.4 0.2 -0.3
v 0.5 0.2 -0.3
v 0.1 0.2 -0.4
v 0.2 0.2 -0.4
v 0.4 0.2 -0.4
v 0.2 0.3 0.5
v 0.3 0.3 0.5
v 0.4 0.3 0.5
v -0.2 0.3 0.4
v 0.2 0.3 0.4
v 0.3 0.3 0.4
v 0.4 0.3 0.4
v 0.5 0.3 0.4
v -0.3 0.3 0.3
v -0.2 0.3 0.3
v 0.1 0.3 0.3
v 0.3 0.3 0.3
v 0.5 0.3 0.3
v 0.6 0.3 0.3
v -0.3 0.3 0.2
v -0.1 0.3 0.2
v 0.1 0.3 0.2
v 0.3 0.3 0.2
v 0.5 0.3 0.2
v 0.6 0.3 0.2
v -0.3 0.3 0.1
v -0.2 0.3 0.1
v -0.1 0.3 0.1
v 0.1 0.3 0.1
v 0.2 0.3 0.1
v 0.5 0.3 0.1
v 0.6 0.3 0.1
v -0.3 0.3 5.96046e-08
v -0.2 0.3 5.96046e-08
v -0.1 0.3 5.96046e-08
v 0.2 0.3 5.96046e-08
v 0.3 0.3 5.96046e-08
v 0.4 0.3 5.96046e-08
v 0.5 0.3 5.96046e-08
v 0.6 0.3 5.96046e-08
v -0.2 0.3 -0.1
v -0.1 0.3 -0.1
v -5.96046e-08 0.3 -0.1
v 0.1 0.3 -0.1
v 0.2 0.3 -0.1
v 0.3 0.3 -0.1
v 0.4 0.3 -0.1
v 0.5 0.3 -0.1
v -5.96046e-08 0.3 -0.2
v 0.1 0.3 -0.2

# faces
f 5/3/1 2/3/1 1/3/1
f 6/1/1 3/1/1 2/1/1
f 6/3/1 2/3/1 5/3/1
f 7/3/1 4/3/1 3/3/1
f 7/1/1 3/1/1 6/1/1
f 8/3/1 4/3/1 7/3/1
f 13/2/1 10/2/1 9/2/1
f 14/2/1 10/2/1 13/2/1
f 17/3/1 12/3/1 11/3/1
f 18/3/1 12/3/1 17/3/1
f 19/3/1 15/3/1 14/3/1
f 20/1/1 16/1/1 15/1/1
f 20/3/1 15/3/1 19/3/1
f 21/3/1 17/3/1 16/3/1
f 21/1/1 16/1/1 20/1/1
f 22/3/1 17/3/1 21/3/1
f 25/2/1 24/2/1 23/2/1
f 26/2/1 24/2/1 25/2/1
f 32/3/1 28/3/1 27/3/1
f 33/3/1 28/3/1 32/3/1
f 34/1/1 30/1/1 29/1/1
f 35/1/1 30/1/1 34/1/1
f 39/3/1 32/3/1 31/3/1
f 40/3/1 32/3/1 39/3/1
f 41/1/1 36/1/1 35/1/1
f 42/3/1 37/3/1 36/3/1
f 42/1/1 36/1/1 41/1/1
f 43/2/1 38/2/1 37/2/1
f 43/3/1 37/3/1 42/3/1
f 44/2/1 38/2/1 43/2/1
f 47/1/1 46/1/1 45/1/1
f 48/1/1 46/1/1 47/1/1
f 52/3/1 49/3/1 48/3/1
f 53/3/1 49/3/1 52/3/1
f 54/2/1 51/2/1 50/2/1
f 55/2/1 51/2/1 54/2/1
f 59/2/1 57/2/1 56/2/1
f 60/2/1 57/2/1 59/2/1
f 61/3/1 59/3/1 58/3/1
f 62/3/1 59/3/1 61/3/1
f 65/2/1 64/2/1 63/2/1
f 66/2/1 64/2/1 65/2/1
f 69/1/1 68/1/1 67/1/1
f 70/1/1 68/1/1 69/1/1
f 75/3/1 72/3/1 71/3/1
f 76/3/1 72/3/1 75/3/1
f 80/1/1 74/1/1 73/1/1
f 81/1/1 74/1/1 80/1/1
f 82/3/1 77/3/1 76/3/1
f 83/3/1 77/3/1 82/3/1
f 84/1/1 79/1/1 78/1/1
f 85/1/1 79/1/1 84/1/1
f 88/3/1 87/3/1 86/3/1
f 89/3/1 87/3/1 88/3/1
f 91/3/1 90/3/1 89/3/1
f 92/3/1 90/3/1 91/3/1
f 95/3/1 94/3/1 93/3/1
f 96/3/1 94/3/1 95/3/1
f 97/3/2 98/3/2 99/3/2
f 99/3/2 98/3/2 100/3/2
f 101/1/2 102/1/2 103/1/2
f 103/1/2 102/1/2 104/1/2
f 105/3/2 106/3/2 107/3/2
f 107/3/2 106/3/2 108/3/2
f 109/3/2 110/3/2 113/3/2
f 113/3/2 110/3/2 114/3/2
f 111/3/2 112/3/2 117/3/2
f 117/3/2 112/3/2 118/3/2
f 113/1/2 114/1/2 119/1/2
f 119/1/2 114/1/2 120/1/2
f 115/3/2 116/3/2 122/3/2
f 122/3/2 116/3/2 123/3/2
f 120/2/2 121/2/2 124/2/2
f 124/2/2 121/2/2 125/2/2
f 126/3/2 127/3/2 130/3/2
f 130/3/2 127/3/2 131/3/2
f 128/3/2 129/3/2 134/3/2
f 134/3/2 129/3/2 135/3/2
f 130/1/2 131/1/2 136/1/2
f 136/1/2 131/1/2 137/1/2
f 132/3/2 133/3/2 143/3/2
f 143/3/2 133/3/2 144/3/2
f 137/1/2 138/1/2 145/1/2
f 145/1/2 138/1/2 146/1/2
f 139/3/2 140/3/2 147/3/2
f 147/3/2 140/3/2 148/3/2
f 141/2/2 142/2/2 149/2/2
f 149/2/2 142/2/2 150/2/2
f 151/1/2 152/1/2 156/1/2
f 156/1/2 152/1/2 157/1/2
f 153/1/2 154/1/2 158/1/2
f 154/3/2 155/3/2 159/3/2
f 158/1/2 154/1/2 159/1/2
f 159/3/2 155/3/2 160/3/2
f 156/3/2 157/3/2 161/3/2
f 161/3/2 157/3/2 162/3/2
f 162/3/2 163/3/2 166/3/2
f 166/3/2 163/3/2 167/3/2
f 164/3/2 165/3/2 168/3/2
f 168/3/2 165/3/2 169/3/2
f 170/3/2 171/3/2 173/3/2
f 171/1/2 172/1/2 174/1/2
f 173/3/2 171/3/2 174/3/2
f 174/1/2 172/1/2 175/1/2
f 175/1/2 172/1/2 176/1/2
f 170/3/2 173/3/2 177/3/2
f 173/1/2 174/1/2 178/1/2
f 177/3/2 173/3/2 178/3/2
f 174/3/2 175/3/2 179/3/2
f 178/1/2 174/1/2 179/1/2
f 175/2/2 176/2/2 180/2/2
f 179/3/2 175/3/2 180/3/2
f 180/2/2 176/2/2 181/2/2
f 184/3/3 183/3/3 182/3/3
f 186/3/3 184/3/3 182/3/3
f 186/3/3 185/3/3 184/3/3
f 187/3/3 185/3/3 186/3/3
f 188/3/3 186/3/3 182/3/3
f 189/1/3 187/1/3 186/1/3
f 189/3/3 186/3/3 188/3/3
f 190/1/3 187/1/3 189/1/3
f 193/2/3 192/2/3 191/2/3
f 194/2/3 192/2/3 193/2/3
f 195/3/3 194/3/3 193/3/3
f 197/3/3 195/3/3 193/3/3
f 197/1/3 196/1/3 195/1/3
f 198/1/3 196/1/3 197/1/3
f 199/3/3 197/3/3 193/3/3
f 199/3/3 198/3/3 197/3/3
f 200/3/3 198/3/3 199/3/3
f 201/3/3 199/3/3 193/3/3
f 202/3/3 199/3/3 201/3/3
f 204/3/3 203/3/3 202/3/3
f 205/3/3 203/3/3 204/3/3
f 207/3/3 206/3/3 205/3/3
f 208/3/3 206/3/3 207/3/3
f 211/2/3 208/2/3 207/2/3
f 212/2/3 208/2/3 211/2/3
f 213/3/3 210/3/3 209/3/3
f 214/1/3 211/1/3 210/1/3
f 214/3/3 210/3/3 213/3/3
f 215/1/3 211/1/3 214/1/3
f 218/2/3 217/2/3 216/2/3
f 219/2/3 217/2/3 218/2/3
f 222/1/3 221/1/3 220/1/3
f 223/1/3 221/1/3 222/1/3
f 225/3/3 224/3/3 223/3/3
f 227/3/3 224/3/3 225/3/3
f 228/3/3 227/3/3 226/3/3
f 229/3/3 224/3/3 227/3/3
f 229/3/3 227/3/3 228/3/3
f 230/3/3 224/3/3 229/3/3
f 231/3/3 224/3/3 230/3/3
f 236/1/3 233/1/3 232/1/3
f 237/1/3 233/1/3 236/1/3
f 238/1/3 235/1/3 234/1/3
f 239/3/3 236/3/3 235/3/3
f 239/1/3 235/1/3 238/1/3
f 240/3/3 236/3/3 239/3/3
f 243/3/3 242/3/3 241/3/3
f 244/3/3 242/3/3 243/3/3
f 246/3/3 245/3/3 244/3/3
f 247/3/3 245/3/3 246/3/3
f 248/3/3 245/3/3 247/3/3
f 250/1/3 249/1/3 248/1/3
f 251/1/3 249/1/3 250/1/3
f 256/3/3 253/3/3 252/3/3
f 257/3/3 253/3/3 256/3/3
f 258/3/3 255/3/3 254/3/3
f 258/3/3 256/3/3 255/3/3
f 259/3/3 256/3/3 258/3/3
f 262/3/3 261/3/3 260/3/3
f 263/3/3 261/3/3 262/3/3
f 264/3/4 265/3/4 266/3/4
f 266/3/4 265/3/4 267/3/4
f 268/2/4 269/2/4 270/2/4
f 270/2/4 269/2/4 271/2/4
f 272/1/4 273/1/4 274/1/4
f 274/1/4 273/1/4 275/1/4
f 276/3/4 277/3/4 278/3/4
f 278/3/4 277/3/4 279/3/4
f 280/3/4 281/3/4 282/3/4
f 282/3/4 281/3/4 283/3/4
f 283/3/4 284/3/4 285/3/4
f 285/3/4 284/3/4 286/3/4
f 285/1/4 286/1/4 287/1/4
f 287/1/4 286/1/4 288/1/4
f 289/2/4 290/2/4 291/2/4
f 291/2/4 290/2/4 292/2/4
f 291/3/4 292/3/4 293/3/4
f 293/3/4 292/3/4 294/3/4
f 295/3/4 296/3/4 297/3/4
f 297/3/4 296/3/4 298/3/4
f 299/3/4 300/3/4 301/3/4
f 301/3/4 300/3/4 302/3/4
f 301/2/4 302/2/4 303/2/4
f 303/2/4 302/2/4 304/2/4
f 305/3/4 306/3/4 307/3/4
f 307/3/4 306/3/4 308/3/4
f 308/3/4 309/3/4 310/3/4
f 310/3/4 309/3/4 311/3/4
f 312/1/4 313/1/4 314/1/4
f 314/1/4 313/1/4 315/1/4
f 316/2/4 317/2/4 319/2/4
f 318/1/4 319/1/4 320/1/4
f 319/2/4 317/2/4 321/2/4
f 320/1/4 319/1/4 321/1/4
f 321/2/4 317/2/4 322/2/4
f 323/3/4 324/3/4 325/3/4
f 325/3/4 324/3/4 326/3/4
f 326/3/4 327/3/4 328/3/4
f 328/3/4 327/3/4 329/3/4
f 328/1/4 329/1/4 330/1/4
f 330/1/4 329/1/4 331/1/4
f 332/3/4 333/3/4 334/3/4
f 334/3/4 333/3/4 335/3/4
f 336/2/4 337/2/4 338/2/4
f 338/2/4 337/2/4 339/2/4
f 340/1/4 341/1/4 342/1/4
f 342/1/4 341/1/4 343/1/4
f 342/3/4 343/3/4 344/3/4
f 344/3/4 343/3/4 345/3/4
f 345/3/4 343/3/4 346/3/4
f 347/3/4 348/3/4 349/3/4
f 349/3/4 348/3/4 350/3/4
f 351/2/4 352/2/4 353/2/4
f 353/2/4 352/2/4 354/2/4
f 355/3/4 356/3/4 357/3/4
f 357/3/4 356/3/4 358/3/4
f 359/1/4 360/1/4 361/1/4
f 361/1/4 360/1/4 362/1/4
f 361/3/4 362/3/4 363/3/4
f 363/3/4 362/3/4 364/3/4
f 369/3/5 366/3/5 365/3/5
f 370/3/5 366/3/5 369/3/5
f 373/2/5 368/2/5 367/2/5
f 374/3/5 371/3/5 370/3/5
f 374/3/5 369/3/5 368/3/5
f 374/2/5 368/2/5 373/2/5
f 374/3/5 370/3/5 369/3/5
f 375/3/5 371/3/5 374/3/5
f 378/2/5 373/2/5 372/2/5
f 379/3/5 374/3/5 373/3/5
f 379/3/5 375/3/5 374/3/5
f 379/2/5 373/2/5 378/2/5
f 380/1/5 376/1/5 375/1/5
f 380/3/5 375/3/5 379/3/5
f 381/1/5 376/1/5 380/1/5
f 383/3/5 379/3/5 378/3/5
f 383/3/5 382/3/5 381/3/5
f 383/3/5 381/3/5 380/3/5
f 383/3/5 380/3/5 379/3/5
f 383/3/5 378/3/5 377/3/5
f 384/3/5 382/3/5 383/3/5
f 385/3/5 382/3/5 384/3/5
f 386/3/5 382/3/5 385/3/5
f 387/1/5 384/1/5 383/1/5
f 388/3/5 385/3/5 384/3/5
f 388/1/5 384/1/5 387/1/5
f 389/3/5 388/3/5 387/3/5
f 390/3/5 385/3/5 388/3/5
f 390/3/5 388/3/5 389/3/5
f 391/3/5 385/3/5 390/3/5
f 392/3/5 385/3/5 391/3/5
f 393/3/5 385/3/5 392/3/5
f 394/1/5 386/1/5 385/1/5
f 394/3/5 385/3/5 393/3/5
f 395/1/5 386/1/5 394/1/5
f 396/3/5 393/3/5 392/3/5
f 397/3/5 393/3/5 396/3/5
f 398/3/5 393/3/5 397/3/5
f 399/3/5 393/3/5 398/3/5
f 400/1/5 394/1/5 393/1/5
f 400/3/5 393/3/5 399/3/5
f 401/1/5 394/1/5 400/1/5
f 402/2/5 398/2/5 397/2/5
f 403/3/5 399/3/5 398/3/5
f 403/2/5 398/2/5 402/2/5
f 404/3/5 399/3/5 403/3/5
f 405/3/5 399/3/5 404/3/5
f 406/3/5 399/3/5 405/3/5
f 407/1/5 400/1/5 399/1/5
f 407/3/5 399/3/5 406/3/5
f 408/3/5 401/3/5 400/3/5
f 408/1/5 400/1/5 407/1/5
f 409/3/5 401/3/5 408/3/5
f 410/2/5 404/2/5 403/2/5
f 411/3/5 405/3/5 404/3/5
f 411/2/5 404/2/5 410/2/5
f 412/1/5 406/1/5 405/1/5
f 412/3/5 405/3/5 411/3/5
f 413/3/5 407/3/5 406/3/5
f 413/1/5 406/1/5 412/1/5
f 413/3/5 408/3/5 407/3/5
f 414/3/5 408/3/5 413/3/5
f 415/3/5 408/3/5 414/3/5
f 416/1/5 412/1/5 411/1/5
f 417/3/5 414/3/5 413/3/5
f 417/1/5 412/1/5 416/1/5
f 417/3/5 413/3/5 412/3/5
f 418/3/5 414/3/5 417/3/5
f 419/3/6 420/3/6 425/3/6
f 425/3/6 420/3/6 426/3/6
f 421/2/6 422/2/6 428/2/6
f 422/3/6 423/3/6 429/3/6
f 428/2/6 422/2/6 429/2/6
f 429/3/6 423/3/6 430/3/6
f 424/3/6 425/3/6 431/3/6
f 431/3/6 425/3/6 432/3/6
f 427/2/6 428/2/6 434/2/6
f 428/3/6 429/3/6 435/3/6
f 434/2/6 428/2/6 435/2/6
f 435/3/6 429/3/6 436/3/6
f 433/3/6 434/3/6 437/3/6
f 437/3/6 434/3/6 438/3/6
f 437/1/6 438/1/6 439/1/6
f 439/1/6 438/1/6 440/1/6
f 439/3/6 440/3/6 441/3/6
f 441/3/6 440/3/6 442/3/6
f 443/3/6 444/3/6 445/3/6
f 442/3/6 443/3/6 445/3/6
f 445/3/6 444/3/6 446/3/6
f 446/3/6 447/3/6 450/3/6
f 450/3/6 447/3/6 451/3/6
f 448/1/6 449/1/6 455/1/6
f 455/1/6 449/1/6 456/1/6
f 451/2/6 452/2/6 457/2/6
f 452/3/6 453/3/6 458/3/6
f 457/2/6 452/2/6 458/2/6
f 458/3/6 453/3/6 459/3/6
f 454/1/6 455/1/6 462/1/6
f 455/3/6 456/3/6 463/3/6
f 462/1/6 455/1/6 463/1/6
f 463/3/6 456/3/6 464/3/6
f 458/2/6 459/2/6 465/2/6
f 459/3/6 460/3/6 466/3/6
f 465/2/6 459/2/6 466/2/6
f 460/1/6 461/1/6 467/1/6
f 466/3/6 460/3/6 467/3/6
f 461/3/6 462/3/6 468/3/6
f 467/1/6 461/1/6 468/1/6
f 462/3/6 463/3/6 468/3/6
f 468/3/6 463/3/6 469/3/6
f 469/3/6 463/3/6 470/3/6
f 466/1/6 467/1/6 471/1/6
f 468/3/6 469/3/6 472/3/6
f 471/1/6 467/1/6 472/1/6
f 467/3/6 468/3/6 472/3/6
f 472/3/6 469/3/6 473/3/6
f 474/3/6 475/3/6 481/3/6
f 475/1/6 476/1/6 482/1/6
f 481/3/6 475/3/6 482/3/6
f 482/1/6 476/1/6 483/1/6
f 477/1/6 478/1/6 486/1/6
f 478/3/6 479/3/6 487/3/6
f 486/1/6 478/1/6 487/1/6
f 487/3/6 479/3/6 488/3/6
f 480/3/6 481/3/6 489/3/6
f 489/3/6 481/3/6 490/3/6
f 483/1/6 484/1/6 491/1/6
f 491/1/6 484/1/6 492/1/6
f 485/1/6 486/1/6 495/1/6
f 495/1/6 486/1/6 496/1/6
f 492/3/6 493/3/6 497/3/6
f 497/3/6 493/3/6 498/3/6
f 494/3/6 495/3/6 500/3/6
f 498/3/6 499/3/6 502/3/6
f 502/3/6 499/3/6 503/3/6
f 494/3/6 500/3/6 504/3/6
f 504/3/6 500/3/6 505/3/6
f 505/3/6 500/3/6 506/3/6
f 501/1/6 502/1/6 507/1/6
f 502/1/6 503/1/6 507/1/6
f 507/1/6 503/1/6 508/1/6
f 508/1/6 503/1/6 509/1/6
f 504/1/6 505/1/6 510/1/6
f 505/3/6 506/3/6 511/3/6
f 510/1/6 505/1/6 511/1/6
f 511/3/6 506/3/6 512/3/6
f 508/3/6 509/3/6 517/3/6
f 517/3/6 509/3/6 518/3/6
f 510/3/6 511/3/6 519/3/6
f 511/1/6 512/1/6 520/1/6
f 519/3/6 511/3/6 520/3/6
f 512/1/6 513/1/6 520/1/6
f 520/1/6 513/1/6 521/1/6
f 521/1/6 513/1/6 522/1/6
f 514/3/6 515/3/6 526/3/6
f 526/3/6 515/3/6 527/3/6
f 516/3/6 517/3/6 529/3/6
f 517/2/6 518/2/6 530/2/6
f 529/3/6 517/3/6 530/3/6
f 523/3/6 524/3/6 531/3/6
f 521/3/6 522/3/6 531/3/6
f 522/3/6 523/3/6 531/3/6
f 531/3/6 524/3/6 532/3/6
f 532/3/6 524/3/6 533/3/6
f 528/3/6 529/3/6 534/3/6
f 527/3/6 528/3/6 534/3/6
f 526/3/6 527/3/6 534/3/6
f 525/3/6 526/3/6 534/3/6
f 529/2/6 530/2/6 535/2/6
f 534/3/6 529/3/6 535/3/6
f 530/2/6 518/2/6 536/2/6
f 535/2/6 530/2/6 536/2/6
f 532/3/6 533/3/6 537/3/6
f 533/1/6 534/1/6 538/1/6
f 537/3/6 533/3/6 538/3/6
f 534/3/6 535/3/6 539/3/6
f 538/1/6 534/1/6 539/1/6
f 539/3/6 535/3/6 540/3/6
f 540/3/6 535/3/6 541/3/6
f 541/3/6 535/3/6 542/3/6
f 539/1/6 540/1/6 543/1/6
f 540/3/6 541/3/6 544/3/6
f 543/1/6 540/1/6 544/1/6
f 544/3/6 541/3/6 545/3/6
f 546/3/6 547/3/6 550/3/6
f 547/2/6 548/2/6 551/2/6
f 550/3/6 547/3/6 551/3/6
f 551/2/6 548/2/6 552/2/6
f 549/3/6 550/3/6 555/3/6
f 550/3/6 551/3/6 555/3/6
f 555/3/6 551/3/6 556/3/6
f 552/1/6 553/1/6 557/1/6
f 556/3/6 551/3/6 557/3/6
f 551/1/6 552/1/6 557/1/6
f 557/1/6 553/1/6 558/1/6
f 555/1/6 556/1/6 560/1/6
f 554/1/6 555/1/6 560/1/6
f 560/1/6 556/1/6 561/1/6
f 558/3/6 559/3/6 562/3/6
f 561/1/6 556/1/6 562/1/6
f 557/3/6 558/3/6 562/3/6
f 556/3/6 557/3/6 562/3/6
f 562/3/6 559/3/6 563/3/6
f 563/3/6 559/3/6 564/3/6
f 564/3/6 559/3/6 565/3/6
f 560/3/6 561/3/6 566/3/6
f 566/3/6 561/3/6 567/3/6
f 561/2/6 562/2/6 568/2/6
f 567/3/6 561/3/6 568/3/6
f 562/1/6 563/1/6 569/1/6
f 568/2/6 562/2/6 569/2/6
f 569/1/6 563/1/6 570/1/6
f 563/3/6 564/3/6 571/3/6
f 566/2/6 567/2/6 573/2/6
f 567/3/6 568/3/6 574/3/6
f 573/2/6 567/2/6 574/2/6
f 568/3/6 569/3/6 574/3/6
f 569/3/6 570/3/6 574/3/6
f 574/3/6 570/3/6 575/3/6
f 570/1/6 563/1/6 576/1/6
f 575/3/6 570/3/6 576/3/6
f 571/3/6 572/3/6 577/3/6
f 576/1/6 563/1/6 577/1/6
f 563/3/6 571/3/6 577/3/6
f 577/3/6 572/3/6 578/3/6
f 578/3/6 572/3/6 579/3/6
f 579/3/6 572/3/6 580/3/6
f 574/2/6 575/2/6 581/2/6
f 575/3/6 576/3/6 582/3/6
f 581/2/6 575/2/6 582/2/6
f 582/3/6 576/3/6 583/3/6
f 583/3/6 576/3/6 584/3/6
f 584/3/6 576/3/6 585/3/6
f 577/3/6 578/3/6 586/3/6
f 578/2/6 579/2/6 587/2/6
f 586/3/6 578/3/6 587/3/6
f 587/2/6 579/2/6 588/2/6
f 583/1/6 584/1/6 589/1/6
f 589/1/6 584/1/6 590/1/6
