# MagicaVoxel @ Ephtracy

# group
o Mushroom1_M

# material
mtllib Mushroom1_M.mtl
usemtl palette

# normals
vn -1 0 0
vn 1 0 0
vn 0 0 1
vn 0 0 -1
vn 0 -1 0
vn 0 1 0

# texcoords
vt 0.0136719 0.5
vt 0.189453 0.5
vt 0.380859 0.5

# verts
v -0.1 0.2 0.1
v -0.1 0.2 0
v -0.1 0.2 -0.1
v -0.1 0.2 -0.2
v -0.1 0.3 0.1
v -0.1 0.3 0
v -0.1 0.3 -0.1
v -0.1 0.3 -0.2
v -0.1 0.4 0
v -0.1 0.4 -0.1
v 0 0 0.1
v 0 0 -0.1
v 0 0.1 0.1
v 0 0.1 0
v 0 0.2 0
v 0 0.2 -0.1
v 0 0.3 0.1
v 0 0.3 0
v 0 0.3 -0.1
v 0 0.3 -0.2
v 0 0.4 0.1
v 0 0.4 0
v 0 0.4 -0.1
v 0 0.4 -0.2
v 0.1 0 0
v 0.1 0 -0.1
v 0.1 0.1 0
v 0.1 0.2 0
v 0.1 0.2 -0.1
v 0.1 0.3 0.1
v 0.1 0.3 0
v 0.1 0.3 -0.1
v 0.1 0.3 -0.2
v 0.1 0.4 0.1
v 0.1 0.4 0
v 0.1 0.4 -0.1
v 0.1 0.4 -0.2
v 0.2 0 0.1
v 0.2 0 0
v 0.2 0.1 0.1
v 0.2 0.1 0
v 0.2 0.2 0.1
v 0.2 0.2 0
v 0.2 0.2 -0.1
v 0.2 0.2 -0.2
v 0.2 0.3 0.1
v 0.2 0.3 0
v 0.2 0.3 -0.1
v 0.2 0.3 -0.2
v 0.2 0.4 0
v 0.2 0.4 -0.1
v -0.1 0.2 0.1
v -0.1 0.3 0.1
v 0 0 0.1
v 0 0.1 0.1
v 0 0.3 0.1
v 0 0.4 0.1
v 0.1 0.3 0.1
v 0.1 0.4 0.1
v 0.2 0 0.1
v 0.2 0.1 0.1
v 0.2 0.2 0.1
v 0.2 0.3 0.1
v -0.1 0.3 0
v -0.1 0.4 0
v 0 0.1 0
v 0 0.2 0
v 0 0.3 0
v 0 0.4 0
v 0.1 0.1 0
v 0.1 0.2 0
v 0.1 0.3 0
v 0.1 0.4 0
v 0.2 0.3 0
v 0.2 0.4 0
v 0.1 0 0
v 0.1 0.1 0
v 0.2 0 0
v 0.2 0.1 0
v -0.1 0.3 -0.1
v -0.1 0.4 -0.1
v 0 0 -0.1
v 0 0.2 -0.1
v 0 0.3 -0.1
v 0 0.4 -0.1
v 0.1 0 -0.1
v 0.1 0.2 -0.1
v 0.1 0.3 -0.1
v 0.1 0.4 -0.1
v 0.2 0.3 -0.1
v 0.2 0.4 -0.1
v -0.1 0.2 -0.2
v -0.1 0.3 -0.2
v 0 0.3 -0.2
v 0 0.4 -0.2
v 0.1 0.3 -0.2
v 0.1 0.4 -0.2
v 0.2 0.2 -0.2
v 0.2 0.3 -0.2
v 0 0 0.1
v 0.2 0 0.1
v 0.1 0 0
v 0.2 0 0
v 0 0 -0.1
v 0.1 0 -0.1
v -0.1 0.2 0.1
v 0.2 0.2 0.1
v -0.1 0.2 0
v 0 0.2 0
v 0.1 0.2 0
v 0.2 0.2 0
v -0.1 0.2 -0.1
v 0 0.2 -0.1
v 0.1 0.2 -0.1
v 0.2 0.2 -0.1
v -0.1 0.2 -0.2
v 0.2 0.2 -0.2
v 0 0.1 0.1
v 0.2 0.1 0.1
v 0 0.1 0
v 0.1 0.1 0
v 0.2 0.1 0
v -0.1 0.3 0.1
v 0 0.3 0.1
v 0.1 0.3 0.1
v 0.2 0.3 0.1
v -0.1 0.3 0
v 0 0.3 0
v 0.1 0.3 0
v 0.2 0.3 0
v -0.1 0.3 -0.1
v 0 0.3 -0.1
v 0.1 0.3 -0.1
v 0.2 0.3 -0.1
v -0.1 0.3 -0.2
v 0 0.3 -0.2
v 0.1 0.3 -0.2
v 0.2 0.3 -0.2
v 0 0.4 0.1
v 0.1 0.4 0.1
v -0.1 0.4 0
v 0 0.4 0
v 0.1 0.4 0
v 0.2 0.4 0
v -0.1 0.4 -0.1
v 0 0.4 -0.1
v 0.1 0.4 -0.1
v 0.2 0.4 -0.1
v 0 0.4 -0.2
v 0.1 0.4 -0.2

# faces
f 5/1/1 2/1/1 1/1/1
f 6/3/1 3/3/1 2/3/1
f 6/1/1 2/1/1 5/1/1
f 7/1/1 4/1/1 3/1/1
f 7/3/1 3/3/1 6/3/1
f 8/1/1 4/1/1 7/1/1
f 9/1/1 7/1/1 6/1/1
f 10/1/1 7/1/1 9/1/1
f 13/2/1 12/2/1 11/2/1
f 14/2/1 12/2/1 13/2/1
f 15/2/1 12/2/1 14/2/1
f 16/2/1 12/2/1 15/2/1
f 21/3/1 18/3/1 17/3/1
f 22/3/1 18/3/1 21/3/1
f 23/3/1 20/3/1 19/3/1
f 24/3/1 20/3/1 23/3/1
f 25/2/2 26/2/2 27/2/2
f 27/2/2 26/2/2 28/2/2
f 28/2/2 26/2/2 29/2/2
f 30/3/2 31/3/2 34/3/2
f 34/3/2 31/3/2 35/3/2
f 32/3/2 33/3/2 36/3/2
f 36/3/2 33/3/2 37/3/2
f 38/2/2 39/2/2 40/2/2
f 40/2/2 39/2/2 41/2/2
f 42/1/2 43/1/2 46/1/2
f 43/3/2 44/3/2 47/3/2
f 46/1/2 43/1/2 47/1/2
f 44/1/2 45/1/2 48/1/2
f 47/3/2 44/3/2 48/3/2
f 48/1/2 45/1/2 49/1/2
f 47/1/2 48/1/2 50/1/2
f 50/1/2 48/1/2 51/1/2
f 56/1/3 53/1/3 52/1/3
f 58/1/3 56/1/3 52/1/3
f 58/3/3 57/3/3 56/3/3
f 59/3/3 57/3/3 58/3/3
f 60/2/3 55/2/3 54/2/3
f 61/2/3 55/2/3 60/2/3
f 62/1/3 58/1/3 52/1/3
f 63/1/3 58/1/3 62/1/3
f 68/1/3 65/1/3 64/1/3
f 69/1/3 65/1/3 68/1/3
f 70/2/3 67/2/3 66/2/3
f 71/2/3 67/2/3 70/2/3
f 74/1/3 73/1/3 72/1/3
f 75/1/3 73/1/3 74/1/3
f 76/2/4 77/2/4 78/2/4
f 78/2/4 77/2/4 79/2/4
f 80/1/4 81/1/4 84/1/4
f 84/1/4 81/1/4 85/1/4
f 82/2/4 83/2/4 86/2/4
f 86/2/4 83/2/4 87/2/4
f 88/1/4 89/1/4 90/1/4
f 90/1/4 89/1/4 91/1/4
f 92/1/4 93/1/4 94/1/4
f 92/1/4 94/1/4 96/1/4
f 94/3/4 95/3/4 96/3/4
f 96/3/4 95/3/4 97/3/4
f 92/1/4 96/1/4 98/1/4
f 98/1/4 96/1/4 99/1/4
f 102/2/5 101/2/5 100/2/5
f 103/2/5 101/2/5 102/2/5
f 104/2/5 102/2/5 100/2/5
f 105/2/5 102/2/5 104/2/5
f 108/1/5 107/1/5 106/1/5
f 109/1/5 107/1/5 108/1/5
f 110/1/5 107/1/5 109/1/5
f 111/1/5 107/1/5 110/1/5
f 112/3/5 109/3/5 108/3/5
f 113/3/5 109/3/5 112/3/5
f 114/3/5 111/3/5 110/3/5
f 115/3/5 111/3/5 114/3/5
f 116/1/5 113/1/5 112/1/5
f 116/1/5 114/1/5 113/1/5
f 116/1/5 115/1/5 114/1/5
f 117/1/5 115/1/5 116/1/5
f 118/2/6 119/2/6 120/2/6
f 120/2/6 119/2/6 121/2/6
f 121/2/6 119/2/6 122/2/6
f 123/1/6 124/1/6 127/1/6
f 127/1/6 124/1/6 128/1/6
f 125/1/6 126/1/6 129/1/6
f 129/1/6 126/1/6 130/1/6
f 131/1/6 132/1/6 135/1/6
f 135/1/6 132/1/6 136/1/6
f 133/1/6 134/1/6 137/1/6
f 137/1/6 134/1/6 138/1/6
f 139/3/6 140/3/6 142/3/6
f 142/3/6 140/3/6 143/3/6
f 141/1/6 142/1/6 145/1/6
f 143/1/6 144/1/6 145/1/6
f 142/1/6 143/1/6 145/1/6
f 145/1/6 144/1/6 146/1/6
f 146/1/6 144/1/6 147/1/6
f 147/1/6 144/1/6 148/1/6
f 146/3/6 147/3/6 149/3/6
f 149/3/6 147/3/6 150/3/6
