# MagicaVoxel @ Ephtracy

# group
o boots

# material
mtllib foot.mtl
usemtl palette

# normals
vn -1 0 0
vn 1 0 0
vn 0 0 1
vn 0 0 -1
vn 0 -1 0
vn 0 1 0

# texcoords
vt 0.294922 0.5
vt 0.306641 0.5

# verts
v -0.2 0 0.2
v -0.2 0 -0.3
v -0.2 0.1 0.2
v -0.2 0.1 -0.3
v -0.2 0.2 0.2
v -0.2 0.2 0.1
v -0.2 0.2 -0.2
v -0.2 0.2 -0.3
v -0.2 0.3 0.1
v -0.2 0.3 -0.2
v -0.0999999 0 0.3
v -0.0999999 0 0.2
v -0.0999999 0 -0.3
v -0.0999999 0 -0.4
v -0.0999999 0.1 0.3
v -0.0999999 0.1 0.2
v -0.0999999 0.1 -0.3
v -0.0999999 0.1 -0.4
v -0.0999999 0.2 0.3
v -0.0999999 0.2 0.2
v -0.0999999 0.2 0.1
v -0.0999999 0.2 -0.2
v -0.0999999 0.2 -0.3
v -0.0999999 0.2 -0.4
v -0.0999999 0.3 0.2
v -0.0999999 0.3 0.1
v -0.0999999 0.3 -0.2
v -0.0999999 0.3 -0.3
v 0.2 0.1 0.2
v 0.2 0.1 -0.3
v 0.2 0.2 0.2
v 0.2 0.2 -0.3
v -0.0999999 0.1 0.2
v -0.0999999 0.1 -0.3
v -0.0999999 0.2 0.2
v -0.0999999 0.2 -0.3
v 0.2 0 0.3
v 0.2 0 0.2
v 0.2 0 -0.3
v 0.2 0 -0.4
v 0.2 0.1 0.3
v 0.2 0.1 0.2
v 0.2 0.1 -0.3
v 0.2 0.1 -0.4
v 0.2 0.2 0.3
v 0.2 0.2 0.2
v 0.2 0.2 0.1
v 0.2 0.2 -0.2
v 0.2 0.2 -0.3
v 0.2 0.2 -0.4
v 0.2 0.3 0.2
v 0.2 0.3 0.1
v 0.2 0.3 -0.2
v 0.2 0.3 -0.3
v 0.3 0 0.2
v 0.3 0 -0.3
v 0.3 0.1 0.2
v 0.3 0.1 -0.3
v 0.3 0.2 0.2
v 0.3 0.2 0.1
v 0.3 0.2 -0.2
v 0.3 0.2 -0.3
v 0.3 0.3 0.1
v 0.3 0.3 -0.2
v -0.0999999 0 0.3
v -0.0999999 0.1 0.3
v -0.0999999 0.2 0.3
v 0.2 0 0.3
v 0.2 0.1 0.3
v 0.2 0.2 0.3
v -0.2 0 0.2
v -0.2 0.1 0.2
v -0.2 0.2 0.2
v -0.0999999 0 0.2
v -0.0999999 0.1 0.2
v -0.0999999 0.2 0.2
v -0.0999999 0.3 0.2
v 0.2 0 0.2
v 0.2 0.1 0.2
v 0.2 0.2 0.2
v 0.2 0.3 0.2
v 0.3 0 0.2
v 0.3 0.1 0.2
v 0.3 0.2 0.2
v -0.2 0.2 0.1
v -0.2 0.3 0.1
v -0.0999999 0.2 0.1
v -0.0999999 0.3 0.1
v 0.2 0.2 0.1
v 0.2 0.3 0.1
v 0.3 0.2 0.1
v 0.3 0.3 0.1
v -0.0999999 0.1 -0.3
v -0.0999999 0.2 -0.3
v 0.2 0.1 -0.3
v 0.2 0.2 -0.3
v -0.0999999 0.1 0.2
v -0.0999999 0.2 0.2
v 0.2 0.1 0.2
v 0.2 0.2 0.2
v -0.2 0.2 -0.2
v -0.2 0.3 -0.2
v -0.0999999 0.2 -0.2
v -0.0999999 0.3 -0.2
v 0.2 0.2 -0.2
v 0.2 0.3 -0.2
v 0.3 0.2 -0.2
v 0.3 0.3 -0.2
v -0.2 0 -0.3
v -0.2 0.1 -0.3
v -0.2 0.2 -0.3
v -0.0999999 0 -0.3
v -0.0999999 0.1 -0.3
v -0.0999999 0.2 -0.3
v -0.0999999 0.3 -0.3
v 0.2 0 -0.3
v 0.2 0.1 -0.3
v 0.2 0.2 -0.3
v 0.2 0.3 -0.3
v 0.3 0 -0.3
v 0.3 0.1 -0.3
v 0.3 0.2 -0.3
v -0.0999999 0 -0.4
v -0.0999999 0.1 -0.4
v -0.0999999 0.2 -0.4
v 0.2 0 -0.4
v 0.2 0.1 -0.4
v 0.2 0.2 -0.4
v -0.0999999 0 0.3
v 0.2 0 0.3
v -0.2 0 0.2
v -0.0999999 0 0.2
v 0.2 0 0.2
v 0.3 0 0.2
v -0.2 0 -0.3
v -0.0999999 0 -0.3
v 0.2 0 -0.3
v 0.3 0 -0.3
v -0.0999999 0 -0.4
v 0.2 0 -0.4
v -0.0999999 0.2 0.2
v 0.2 0.2 0.2
v -0.0999999 0.2 -0.3
v 0.2 0.2 -0.3
v -0.0999999 0.1 0.2
v 0.2 0.1 0.2
v -0.0999999 0.1 -0.3
v 0.2 0.1 -0.3
v -0.0999999 0.2 0.3
v 0.2 0.2 0.3
v -0.2 0.2 0.2
v -0.0999999 0.2 0.2
v 0.2 0.2 0.2
v 0.3 0.2 0.2
v -0.2 0.2 0.1
v -0.0999999 0.2 0.1
v 0.2 0.2 0.1
v 0.3 0.2 0.1
v -0.2 0.2 -0.2
v -0.0999999 0.2 -0.2
v 0.2 0.2 -0.2
v 0.3 0.2 -0.2
v -0.2 0.2 -0.3
v -0.0999999 0.2 -0.3
v 0.2 0.2 -0.3
v 0.3 0.2 -0.3
v -0.0999999 0.2 -0.4
v 0.2 0.2 -0.4
v -0.0999999 0.3 0.2
v 0.2 0.3 0.2
v -0.2 0.3 0.1
v -0.0999999 0.3 0.1
v 0.2 0.3 0.1
v 0.3 0.3 0.1
v -0.2 0.3 -0.2
v -0.0999999 0.3 -0.2
v 0.2 0.3 -0.2
v 0.3 0.3 -0.2
v -0.0999999 0.3 -0.3
v 0.2 0.3 -0.3

# faces
f 3/2/1 2/2/1 1/2/1
f 4/2/1 2/2/1 3/2/1
f 5/1/1 4/1/1 3/1/1
f 6/1/1 4/1/1 5/1/1
f 7/1/1 4/1/1 6/1/1
f 8/1/1 4/1/1 7/1/1
f 9/1/1 7/1/1 6/1/1
f 10/1/1 7/1/1 9/1/1
f 15/2/1 12/2/1 11/2/1
f 16/2/1 12/2/1 15/2/1
f 17/2/1 14/2/1 13/2/1
f 18/2/1 14/2/1 17/2/1
f 19/1/1 16/1/1 15/1/1
f 20/1/1 16/1/1 19/1/1
f 23/1/1 18/1/1 17/1/1
f 24/1/1 18/1/1 23/1/1
f 25/1/1 21/1/1 20/1/1
f 26/1/1 21/1/1 25/1/1
f 27/1/1 23/1/1 22/1/1
f 28/1/1 23/1/1 27/1/1
f 31/1/1 30/1/1 29/1/1
f 32/1/1 30/1/1 31/1/1
f 33/1/2 34/1/2 35/1/2
f 35/1/2 34/1/2 36/1/2
f 37/2/2 38/2/2 41/2/2
f 41/2/2 38/2/2 42/2/2
f 39/2/2 40/2/2 43/2/2
f 43/2/2 40/2/2 44/2/2
f 41/1/2 42/1/2 45/1/2
f 45/1/2 42/1/2 46/1/2
f 43/1/2 44/1/2 49/1/2
f 49/1/2 44/1/2 50/1/2
f 46/1/2 47/1/2 51/1/2
f 51/1/2 47/1/2 52/1/2
f 48/1/2 49/1/2 53/1/2
f 53/1/2 49/1/2 54/1/2
f 55/2/2 56/2/2 57/2/2
f 57/2/2 56/2/2 58/2/2
f 57/1/2 58/1/2 59/1/2
f 59/1/2 58/1/2 60/1/2
f 60/1/2 58/1/2 61/1/2
f 61/1/2 58/1/2 62/1/2
f 60/1/2 61/1/2 63/1/2
f 63/1/2 61/1/2 64/1/2
f 68/2/3 66/2/3 65/2/3
f 69/1/3 67/1/3 66/1/3
f 69/2/3 66/2/3 68/2/3
f 70/1/3 67/1/3 69/1/3
f 74/2/3 72/2/3 71/2/3
f 75/1/3 73/1/3 72/1/3
f 75/2/3 72/2/3 74/2/3
f 76/1/3 73/1/3 75/1/3
f 80/1/3 77/1/3 76/1/3
f 81/1/3 77/1/3 80/1/3
f 82/2/3 79/2/3 78/2/3
f 83/1/3 80/1/3 79/1/3
f 83/2/3 79/2/3 82/2/3
f 84/1/3 80/1/3 83/1/3
f 87/1/3 86/1/3 85/1/3
f 88/1/3 86/1/3 87/1/3
f 91/1/3 90/1/3 89/1/3
f 92/1/3 90/1/3 91/1/3
f 95/1/3 94/1/3 93/1/3
f 96/1/3 94/1/3 95/1/3
f 97/1/4 98/1/4 99/1/4
f 99/1/4 98/1/4 100/1/4
f 101/1/4 102/1/4 103/1/4
f 103/1/4 102/1/4 104/1/4
f 105/1/4 106/1/4 107/1/4
f 107/1/4 106/1/4 108/1/4
f 109/2/4 110/2/4 112/2/4
f 110/1/4 111/1/4 113/1/4
f 112/2/4 110/2/4 113/2/4
f 113/1/4 111/1/4 114/1/4
f 114/1/4 115/1/4 118/1/4
f 118/1/4 115/1/4 119/1/4
f 116/2/4 117/2/4 120/2/4
f 117/1/4 118/1/4 121/1/4
f 120/2/4 117/2/4 121/2/4
f 121/1/4 118/1/4 122/1/4
f 123/2/4 124/2/4 126/2/4
f 124/1/4 125/1/4 127/1/4
f 126/2/4 124/2/4 127/2/4
f 127/1/4 125/1/4 128/1/4
f 132/2/5 130/2/5 129/2/5
f 133/2/5 130/2/5 132/2/5
f 135/2/5 132/2/5 131/2/5
f 135/2/5 134/2/5 133/2/5
f 135/2/5 133/2/5 132/2/5
f 136/2/5 134/2/5 135/2/5
f 137/2/5 134/2/5 136/2/5
f 138/2/5 134/2/5 137/2/5
f 139/2/5 137/2/5 136/2/5
f 140/2/5 137/2/5 139/2/5
f 143/1/5 142/1/5 141/1/5
f 144/1/5 142/1/5 143/1/5
f 145/2/6 146/2/6 147/2/6
f 147/2/6 146/2/6 148/2/6
f 149/1/6 150/1/6 152/1/6
f 152/1/6 150/1/6 153/1/6
f 151/1/6 152/1/6 155/1/6
f 155/1/6 152/1/6 156/1/6
f 153/1/6 154/1/6 157/1/6
f 157/1/6 154/1/6 158/1/6
f 159/1/6 160/1/6 163/1/6
f 163/1/6 160/1/6 164/1/6
f 161/1/6 162/1/6 165/1/6
f 165/1/6 162/1/6 166/1/6
f 164/1/6 165/1/6 167/1/6
f 167/1/6 165/1/6 168/1/6
f 169/1/6 170/1/6 172/1/6
f 172/1/6 170/1/6 173/1/6
f 171/1/6 172/1/6 175/1/6
f 173/1/6 174/1/6 175/1/6
f 172/1/6 173/1/6 175/1/6
f 175/1/6 174/1/6 176/1/6
f 176/1/6 174/1/6 177/1/6
f 177/1/6 174/1/6 178/1/6
f 176/1/6 177/1/6 179/1/6
f 179/1/6 177/1/6 180/1/6
