# MagicaVoxel @ Ephtracy

# group
o IronDeposit_S

# material
mtllib IronDeposit_S.mtl
usemtl palette

# normals
vn -1 0 0
vn 1 0 0
vn 0 0 1
vn 0 0 -1
vn 0 -1 0
vn 0 1 0

# texcoords
vt 0.0332031 0.5
vt 0.0371094 0.5
vt 0.291016 0.5
vt 0.298828 0.5

# verts
v -0.4 0 0.1
v -0.4 0 -0.2
v -0.4 0.1 0.1
v -0.4 0.1 -0.1
v -0.4 0.2 0.1
v -0.4 0.2 0
v -0.4 0.2 -0.1
v -0.4 0.2 -0.2
v -0.4 0.3 0
v -0.4 0.3 -0.1
v -0.3 0 0.2
v -0.3 0 0.1
v -0.3 0 -0.2
v -0.3 0 -0.3
v -0.3 0.1 0.2
v -0.3 0.1 0.1
v -0.3 0.2 0.2
v -0.3 0.2 0.1
v -0.3 0.2 0
v -0.3 0.2 -0.1
v -0.3 0.2 -0.2
v -0.3 0.2 -0.3
v -0.3 0.3 0.1
v -0.3 0.3 0
v -0.3 0.3 -0.1
v -0.3 0.3 -0.2
v -0.1 0 0.3
v -0.1 0 0.2
v -0.1 0 -0.3
v -0.1 0 -0.4
v -0.1 0.1 -0.3
v -0.1 0.1 -0.4
v -0.1 0.2 0.3
v -0.1 0.2 0.2
v -0.1 0.2 0.1
v -0.1 0.2 -0.2
v -0.1 0.2 -0.3
v -0.1 0.2 -0.4
v -0.1 0.3 0.2
v -0.1 0.3 0.1
v -0.1 0.3 0
v -0.1 0.3 -0.1
v -0.1 0.3 -0.2
v -0.1 0.3 -0.3
v -0.1 0.4 0
v -0.1 0.4 -0.1
v 0 0.2 0.3
v 0 0.2 0.2
v 0 0.2 -0.3
v 0 0.2 -0.4
v 0 0.3 0.2
v 0 0.3 -0.3
v 0 0.3 -0.4
v 0 0.4 0.3
v 0 0.4 0.2
v 0.2 0.3 -0.2
v 0.2 0.3 -0.3
v 0.2 0.4 -0.2
v 0.2 0.4 -0.3
v 0.4 0.3 0.1
v 0.4 0.3 0
v 0.4 0.4 0.1
v 0.4 0.4 0
v 0 0.3 0
v 0 0.3 -0.1
v 0 0.4 0
v 0 0.4 -0.1
v 0.1 0.2 -0.3
v 0.1 0.2 -0.4
v 0.1 0.3 0.3
v 0.1 0.3 0.2
v 0.1 0.3 -0.3
v 0.1 0.3 -0.4
v 0.1 0.4 0.3
v 0.1 0.4 0.2
v 0.2 0.2 0.3
v 0.2 0.2 0.2
v 0.2 0.3 0.3
v 0.2 0.3 0.2
v 0.3 0 0.3
v 0.3 0 0.2
v 0.3 0 -0.3
v 0.3 0 -0.4
v 0.3 0.1 0.3
v 0.3 0.1 0.2
v 0.3 0.1 -0.3
v 0.3 0.2 0.3
v 0.3 0.2 0.2
v 0.3 0.2 0.1
v 0.3 0.2 -0.2
v 0.3 0.2 -0.3
v 0.3 0.2 -0.4
v 0.3 0.3 0.2
v 0.3 0.3 0.1
v 0.3 0.3 -0.2
v 0.3 0.3 -0.3
v 0.3 0.4 -0.2
v 0.3 0.4 -0.3
v 0.4 0 0.2
v 0.4 0 0.1
v 0.4 0 -0.2
v 0.4 0 -0.3
v 0.4 0.1 0.2
v 0.4 0.1 0.1
v 0.4 0.1 -0.2
v 0.4 0.1 -0.3
v 0.4 0.2 0.2
v 0.4 0.2 0.1
v 0.4 0.2 -0.1
v 0.4 0.2 -0.2
v 0.4 0.2 -0.3
v 0.4 0.3 -0.1
v 0.4 0.3 -0.2
v 0.5 0 0.1
v 0.5 0 0
v 0.5 0 -0.1
v 0.5 0 -0.2
v 0.5 0.1 0.1
v 0.5 0.1 0
v 0.5 0.2 0.1
v 0.5 0.2 0
v 0.5 0.2 -0.1
v 0.5 0.2 -0.2
v 0.5 0.3 0.1
v 0.5 0.3 0
v 0.5 0.3 -0.1
v 0.5 0.4 0.1
v 0.5 0.4 0
v -0.1 0 0.3
v -0.1 0.2 0.3
v 0 0 0.3
v 0 0.2 0.3
v 0 0.4 0.3
v 0.1 0.2 0.3
v 0.1 0.3 0.3
v 0.1 0.4 0.3
v 0.2 0.1 0.3
v 0.2 0.2 0.3
v 0.2 0.3 0.3
v 0.3 0 0.3
v 0.3 0.1 0.3
v 0.3 0.2 0.3
v -0.3 0 0.2
v -0.3 0.1 0.2
v -0.3 0.2 0.2
v -0.2 0.1 0.2
v -0.2 0.2 0.2
v -0.1 0 0.2
v -0.1 0.2 0.2
v -0.1 0.3 0.2
v 0 0.2 0.2
v 0 0.3 0.2
v 0.2 0.2 0.2
v 0.2 0.3 0.2
v 0.3 0 0.2
v 0.3 0.1 0.2
v 0.3 0.2 0.2
v 0.3 0.3 0.2
v 0.4 0 0.2
v 0.4 0.1 0.2
v 0.4 0.2 0.2
v -0.4 0 0.1
v -0.4 0.1 0.1
v -0.4 0.2 0.1
v -0.3 0 0.1
v -0.3 0.1 0.1
v -0.3 0.2 0.1
v -0.3 0.3 0.1
v -0.2 0.2 0.1
v -0.1 0.2 0.1
v -0.1 0.3 0.1
v 0.3 0.2 0.1
v 0.3 0.3 0.1
v 0.4 0 0.1
v 0.4 0.1 0.1
v 0.4 0.2 0.1
v 0.4 0.3 0.1
v 0.4 0.4 0.1
v 0.5 0 0.1
v 0.5 0.1 0.1
v 0.5 0.2 0.1
v 0.5 0.3 0.1
v 0.5 0.4 0.1
v -0.4 0.2 0
v -0.4 0.3 0
v -0.3 0.2 0
v -0.3 0.3 0
v -0.1 0.3 0
v -0.1 0.4 0
v 0 0.3 0
v 0 0.4 0
v 0.2 0.3 -0.2
v 0.2 0.4 -0.2
v 0.3 0.3 -0.2
v 0.3 0.4 -0.2
v 0 0.3 0.2
v 0 0.4 0.2
v 0.1 0.3 0.2
v 0.1 0.4 0.2
v 0.4 0.3 0
v 0.4 0.4 0
v 0.5 0.3 0
v 0.5 0.4 0
v -0.4 0.2 -0.1
v -0.4 0.3 -0.1
v -0.3 0.2 -0.1
v -0.3 0.3 -0.1
v -0.1 0.3 -0.1
v -0.1 0.4 -0.1
v 0 0.3 -0.1
v 0 0.4 -0.1
v 0.4 0.2 -0.1
v 0.4 0.3 -0.1
v 0.5 0.2 -0.1
v 0.5 0.3 -0.1
v -0.4 0 -0.2
v -0.4 0.2 -0.2
v -0.3 0 -0.2
v -0.3 0.2 -0.2
v -0.3 0.3 -0.2
v -0.2 0.2 -0.2
v -0.2 0.3 -0.2
v -0.1 0.2 -0.2
v -0.1 0.3 -0.2
v 0.3 0.2 -0.2
v 0.3 0.3 -0.2
v 0.4 0 -0.2
v 0.4 0.1 -0.2
v 0.4 0.2 -0.2
v 0.4 0.3 -0.2
v 0.5 0 -0.2
v 0.5 0.2 -0.2
v -0.3 0 -0.3
v -0.3 0.2 -0.3
v -0.2 0 -0.3
v -0.2 0.1 -0.3
v -0.2 0.2 -0.3
v -0.1 0 -0.3
v -0.1 0.1 -0.3
v -0.1 0.2 -0.3
v -0.1 0.3 -0.3
v 0 0.2 -0.3
v 0 0.3 -0.3
v 0.1 0.2 -0.3
v 0.1 0.3 -0.3
v 0.2 0.2 -0.3
v 0.2 0.3 -0.3
v 0.2 0.4 -0.3
v 0.3 0 -0.3
v 0.3 0.1 -0.3
v 0.3 0.2 -0.3
v 0.3 0.3 -0.3
v 0.3 0.4 -0.3
v 0.4 0 -0.3
v 0.4 0.1 -0.3
v 0.4 0.2 -0.3
v -0.1 0 -0.4
v -0.1 0.1 -0.4
v -0.1 0.2 -0.4
v 0 0.2 -0.4
v 0 0.3 -0.4
v 0.1 0.1 -0.4
v 0.1 0.2 -0.4
v 0.1 0.3 -0.4
v 0.2 0 -0.4
v 0.2 0.2 -0.4
v 0.3 0 -0.4
v 0.3 0.2 -0.4
v -0.1 0 0.3
v 0 0 0.3
v 0.3 0 0.3
v -0.3 0 0.2
v -0.1 0 0.2
v 0 0 0.2
v 0.3 0 0.2
v 0.4 0 0.2
v -0.4 0 0.1
v -0.3 0 0.1
v 0.4 0 0.1
v 0.5 0 0.1
v 0.4 0 0
v 0.5 0 0
v 0.4 0 -0.1
v 0.5 0 -0.1
v -0.4 0 -0.2
v -0.3 0 -0.2
v -0.2 0 -0.2
v 0.4 0 -0.2
v 0.5 0 -0.2
v -0.3 0 -0.3
v -0.2 0 -0.3
v -0.1 0 -0.3
v 0.2 0 -0.3
v 0.3 0 -0.3
v 0.4 0 -0.3
v -0.1 0 -0.4
v 0.2 0 -0.4
v 0.3 0 -0.4
v -0.1 0.2 0.3
v 0 0.2 0.3
v 0.2 0.2 0.3
v 0.3 0.2 0.3
v -0.3 0.2 0.2
v -0.2 0.2 0.2
v -0.1 0.2 0.2
v 0 0.2 0.2
v 0.2 0.2 0.2
v 0.3 0.2 0.2
v 0.4 0.2 0.2
v -0.4 0.2 0.1
v -0.3 0.2 0.1
v -0.2 0.2 0.1
v -0.1 0.2 0.1
v 0.3 0.2 0.1
v 0.4 0.2 0.1
v -0.4 0.2 0
v -0.3 0.2 0
v -0.4 0.2 -0.1
v -0.3 0.2 -0.1
v 0.4 0.2 -0.1
v 0.5 0.2 -0.1
v -0.4 0.2 -0.2
v -0.3 0.2 -0.2
v -0.2 0.2 -0.2
v -0.1 0.2 -0.2
v 0.3 0.2 -0.2
v 0.4 0.2 -0.2
v 0.5 0.2 -0.2
v -0.3 0.2 -0.3
v -0.2 0.2 -0.3
v -0.1 0.2 -0.3
v 0 0.2 -0.3
v 0.1 0.2 -0.3
v 0.2 0.2 -0.3
v 0.3 0.2 -0.3
v 0.4 0.2 -0.3
v -0.1 0.2 -0.4
v 0 0.2 -0.4
v 0.1 0.2 -0.4
v 0.2 0.2 -0.4
v 0.3 0.2 -0.4
v 0.1 0.3 0.3
v 0.2 0.3 0.3
v -0.1 0.3 0.2
v 0 0.3 0.2
v 0.1 0.3 0.2
v 0.2 0.3 0.2
v 0.3 0.3 0.2
v -0.3 0.3 0.1
v -0.1 0.3 0.1
v 0 0.3 0.1
v 0.1 0.3 0.1
v 0.2 0.3 0.1
v 0.3 0.3 0.1
v 0.4 0.3 0.1
v -0.4 0.3 0
v -0.3 0.3 0
v -0.1 0.3 0
v 0 0.3 0
v 0.1 0.3 0
v 0.2 0.3 0
v 0.4 0.3 0
v 0.5 0.3 0
v -0.4 0.3 -0.1
v -0.3 0.3 -0.1
v -0.2 0.3 -0.1
v -0.1 0.3 -0.1
v 0 0.3 -0.1
v 0.1 0.3 -0.1
v 0.2 0.3 -0.1
v 0.4 0.3 -0.1
v 0.5 0.3 -0.1
v -0.3 0.3 -0.2
v -0.2 0.3 -0.2
v -0.1 0.3 -0.2
v 0 0.3 -0.2
v 0.1 0.3 -0.2
v 0.2 0.3 -0.2
v 0.3 0.3 -0.2
v 0.4 0.3 -0.2
v -0.1 0.3 -0.3
v 0 0.3 -0.3
v 0.1 0.3 -0.3
v 0.2 0.3 -0.3
v 0 0.3 -0.4
v 0.1 0.3 -0.4
v 0 0.4 0.3
v 0.1 0.4 0.3
v 0 0.4 0.2
v 0.1 0.4 0.2
v 0.4 0.4 0.1
v 0.5 0.4 0.1
v -0.1 0.4 0
v 0 0.4 0
v 0.4 0.4 0
v 0.5 0.4 0
v -0.1 0.4 -0.1
v 0 0.4 -0.1
v 0.2 0.4 -0.2
v 0.3 0.4 -0.2
v 0.2 0.4 -0.3
v 0.3 0.4 -0.3

# faces
f 3/4/1 2/4/1 1/4/1
f 4/4/1 2/4/1 3/4/1
f 5/3/1 4/3/1 3/3/1
f 6/3/1 4/3/1 5/3/1
f 7/4/1 2/4/1 4/4/1
f 7/3/1 4/3/1 6/3/1
f 8/4/1 2/4/1 7/4/1
f 9/3/1 7/3/1 6/3/1
f 10/3/1 7/3/1 9/3/1
f 15/4/1 12/4/1 11/4/1
f 16/4/1 12/4/1 15/4/1
f 17/3/1 16/3/1 15/3/1
f 18/3/1 16/3/1 17/3/1
f 21/1/1 14/1/1 13/1/1
f 22/1/1 14/1/1 21/1/1
f 23/4/1 19/4/1 18/4/1
f 24/4/1 19/4/1 23/4/1
f 25/1/1 21/1/1 20/1/1
f 26/1/1 21/1/1 25/1/1
f 31/4/1 30/4/1 29/4/1
f 32/4/1 30/4/1 31/4/1
f 33/1/1 28/1/1 27/1/1
f 34/1/1 28/1/1 33/1/1
f 37/3/1 32/3/1 31/3/1
f 38/3/1 32/3/1 37/3/1
f 39/1/1 35/1/1 34/1/1
f 40/1/1 35/1/1 39/1/1
f 43/4/1 37/4/1 36/4/1
f 44/4/1 37/4/1 43/4/1
f 45/2/1 42/2/1 41/2/1
f 46/2/1 42/2/1 45/2/1
f 51/2/1 48/2/1 47/2/1
f 52/4/1 50/4/1 49/4/1
f 53/4/1 50/4/1 52/4/1
f 54/2/1 51/2/1 47/2/1
f 55/2/1 51/2/1 54/2/1
f 58/2/1 57/2/1 56/2/1
f 59/2/1 57/2/1 58/2/1
f 62/2/1 61/2/1 60/2/1
f 63/2/1 61/2/1 62/2/1
f 64/2/2 65/2/2 66/2/2
f 66/2/2 65/2/2 67/2/2
f 68/4/2 69/4/2 72/4/2
f 72/4/2 69/4/2 73/4/2
f 70/2/2 71/2/2 74/2/2
f 74/2/2 71/2/2 75/2/2
f 76/3/2 77/3/2 78/3/2
f 78/3/2 77/3/2 79/3/2
f 80/4/2 81/4/2 84/4/2
f 84/4/2 81/4/2 85/4/2
f 82/1/2 83/1/2 86/1/2
f 84/3/2 85/3/2 87/3/2
f 87/3/2 85/3/2 88/3/2
f 86/1/2 83/1/2 91/1/2
f 91/1/2 83/1/2 92/1/2
f 88/4/2 89/4/2 93/4/2
f 93/4/2 89/4/2 94/4/2
f 90/1/2 91/1/2 95/1/2
f 95/1/2 91/1/2 96/1/2
f 95/2/2 96/2/2 97/2/2
f 97/2/2 96/2/2 98/2/2
f 99/4/2 100/4/2 103/4/2
f 103/4/2 100/4/2 104/4/2
f 101/4/2 102/4/2 105/4/2
f 105/4/2 102/4/2 106/4/2
f 103/3/2 104/3/2 107/3/2
f 107/3/2 104/3/2 108/3/2
f 105/3/2 106/3/2 110/3/2
f 110/3/2 106/3/2 111/3/2
f 109/4/2 110/4/2 112/4/2
f 112/4/2 110/4/2 113/4/2
f 114/3/2 115/3/2 118/3/2
f 115/1/2 116/1/2 119/1/2
f 118/3/2 115/3/2 119/3/2
f 118/4/2 119/4/2 120/4/2
f 119/1/2 116/1/2 121/1/2
f 120/4/2 119/4/2 121/4/2
f 116/4/2 117/4/2 122/4/2
f 121/1/2 116/1/2 122/1/2
f 122/4/2 117/4/2 123/4/2
f 120/1/2 121/1/2 124/1/2
f 121/4/2 122/4/2 125/4/2
f 124/1/2 121/1/2 125/1/2
f 125/4/2 122/4/2 126/4/2
f 124/2/2 125/2/2 127/2/2
f 127/2/2 125/2/2 128/2/2
f 131/1/3 130/1/3 129/1/3
f 132/1/3 130/1/3 131/1/3
f 134/4/3 132/4/3 131/4/3
f 134/2/3 133/2/3 132/2/3
f 135/2/3 133/2/3 134/2/3
f 136/2/3 133/2/3 135/2/3
f 137/4/3 134/4/3 131/4/3
f 138/3/3 135/3/3 134/3/3
f 138/4/3 134/4/3 137/4/3
f 139/3/3 135/3/3 138/3/3
f 140/4/3 137/4/3 131/4/3
f 141/3/3 138/3/3 137/3/3
f 141/4/3 137/4/3 140/4/3
f 142/3/3 138/3/3 141/3/3
f 146/4/3 144/4/3 143/4/3
f 146/3/3 145/3/3 144/3/3
f 147/3/3 145/3/3 146/3/3
f 148/4/3 146/4/3 143/4/3
f 148/4/3 147/4/3 146/4/3
f 149/4/3 147/4/3 148/4/3
f 151/1/3 150/1/3 149/1/3
f 152/1/3 150/1/3 151/1/3
f 157/4/3 154/4/3 153/4/3
f 158/4/3 154/4/3 157/4/3
f 159/4/3 156/4/3 155/4/3
f 160/3/3 157/3/3 156/3/3
f 160/4/3 156/4/3 159/4/3
f 161/3/3 157/3/3 160/3/3
f 165/4/3 163/4/3 162/4/3
f 166/3/3 164/3/3 163/3/3
f 166/4/3 163/4/3 165/4/3
f 167/3/3 164/3/3 166/3/3
f 169/4/3 168/4/3 167/4/3
f 170/4/3 168/4/3 169/4/3
f 171/4/3 168/4/3 170/4/3
f 176/3/3 173/3/3 172/3/3
f 177/3/3 173/3/3 176/3/3
f 179/3/3 175/3/3 174/3/3
f 180/4/3 176/4/3 175/4/3
f 180/3/3 175/3/3 179/3/3
f 181/1/3 177/1/3 176/1/3
f 181/4/3 176/4/3 180/4/3
f 182/2/3 178/2/3 177/2/3
f 182/1/3 177/1/3 181/1/3
f 183/2/3 178/2/3 182/2/3
f 186/3/3 185/3/3 184/3/3
f 187/3/3 185/3/3 186/3/3
f 190/2/3 189/2/3 188/2/3
f 191/2/3 189/2/3 190/2/3
f 194/2/3 193/2/3 192/2/3
f 195/2/3 193/2/3 194/2/3
f 196/2/4 197/2/4 198/2/4
f 198/2/4 197/2/4 199/2/4
f 200/2/4 201/2/4 202/2/4
f 202/2/4 201/2/4 203/2/4
f 204/3/4 205/3/4 206/3/4
f 206/3/4 205/3/4 207/3/4
f 208/2/4 209/2/4 210/2/4
f 210/2/4 209/2/4 211/2/4
f 212/4/4 213/4/4 214/4/4
f 214/4/4 213/4/4 215/4/4
f 216/4/4 217/4/4 218/4/4
f 218/4/4 217/4/4 219/4/4
f 219/1/4 220/1/4 221/1/4
f 221/1/4 220/1/4 222/1/4
f 221/2/4 222/2/4 223/2/4
f 223/2/4 222/2/4 224/2/4
f 225/4/4 226/4/4 229/4/4
f 229/4/4 226/4/4 230/4/4
f 227/4/4 228/4/4 231/4/4
f 228/4/4 229/4/4 231/4/4
f 231/4/4 229/4/4 232/4/4
f 233/1/4 234/1/4 235/1/4
f 235/1/4 234/1/4 236/1/4
f 236/1/4 234/1/4 237/1/4
f 235/4/4 236/4/4 238/4/4
f 236/3/4 237/3/4 239/3/4
f 238/4/4 236/4/4 239/4/4
f 239/3/4 237/3/4 240/3/4
f 240/4/4 241/4/4 242/4/4
f 242/4/4 241/4/4 243/4/4
f 244/3/4 245/3/4 246/3/4
f 246/3/4 245/3/4 247/3/4
f 246/1/4 247/1/4 251/1/4
f 247/2/4 248/2/4 252/2/4
f 251/1/4 247/1/4 252/1/4
f 252/2/4 248/2/4 253/2/4
f 249/4/4 250/4/4 254/4/4
f 250/3/4 251/3/4 255/3/4
f 254/4/4 250/4/4 255/4/4
f 255/3/4 251/3/4 256/3/4
f 258/3/4 259/3/4 260/3/4
f 257/4/4 258/4/4 262/4/4
f 258/3/4 260/3/4 262/3/4
f 260/4/4 261/4/4 263/4/4
f 262/3/4 260/3/4 263/3/4
f 263/4/4 261/4/4 264/4/4
f 257/4/4 262/4/4 265/4/4
f 262/4/4 263/4/4 265/4/4
f 265/4/4 263/4/4 266/4/4
f 265/1/4 266/1/4 267/1/4
f 267/1/4 266/1/4 268/1/4
f 273/1/5 270/1/5 269/1/5
f 274/4/5 271/4/5 270/4/5
f 274/1/5 270/1/5 273/1/5
f 275/4/5 271/4/5 274/4/5
f 278/4/5 273/4/5 272/4/5
f 278/4/5 276/4/5 275/4/5
f 278/4/5 275/4/5 274/4/5
f 278/4/5 274/4/5 273/4/5
f 279/4/5 276/4/5 278/4/5
f 281/4/5 278/4/5 277/4/5
f 281/3/5 280/3/5 279/3/5
f 281/4/5 279/4/5 278/4/5
f 282/3/5 280/3/5 281/3/5
f 283/4/5 281/4/5 277/4/5
f 283/1/5 282/1/5 281/1/5
f 284/1/5 282/1/5 283/1/5
f 285/4/5 283/4/5 277/4/5
f 285/4/5 284/4/5 283/4/5
f 286/4/5 284/4/5 285/4/5
f 287/4/5 284/4/5 286/4/5
f 288/4/5 284/4/5 287/4/5
f 289/4/5 284/4/5 288/4/5
f 290/1/5 287/1/5 286/1/5
f 291/4/5 288/4/5 287/4/5
f 291/1/5 287/1/5 290/1/5
f 292/4/5 288/4/5 291/4/5
f 293/4/5 288/4/5 292/4/5
f 294/4/5 288/4/5 293/4/5
f 295/4/5 288/4/5 294/4/5
f 296/4/5 293/4/5 292/4/5
f 297/1/5 294/1/5 293/1/5
f 297/4/5 293/4/5 296/4/5
f 298/1/5 294/1/5 297/1/5
f 299/1/6 300/1/6 305/1/6
f 305/1/6 300/1/6 306/1/6
f 301/3/6 302/3/6 307/3/6
f 307/3/6 302/3/6 308/3/6
f 303/3/6 304/3/6 311/3/6
f 304/4/6 305/4/6 312/4/6
f 311/3/6 304/3/6 312/3/6
f 312/4/6 305/4/6 313/4/6
f 308/3/6 309/3/6 314/3/6
f 314/3/6 309/3/6 315/3/6
f 310/3/6 311/3/6 316/3/6
f 316/3/6 311/3/6 317/3/6
f 318/4/6 319/4/6 322/4/6
f 322/4/6 319/4/6 323/4/6
f 320/4/6 321/4/6 327/4/6
f 327/4/6 321/4/6 328/4/6
f 323/1/6 324/1/6 329/1/6
f 324/3/6 325/3/6 330/3/6
f 329/1/6 324/1/6 330/1/6
f 330/3/6 325/3/6 331/3/6
f 326/3/6 327/3/6 335/3/6
f 335/3/6 327/3/6 336/3/6
f 331/3/6 332/3/6 337/3/6
f 337/3/6 332/3/6 338/3/6
f 333/4/6 334/4/6 339/4/6
f 334/1/6 335/1/6 340/1/6
f 339/4/6 334/4/6 340/4/6
f 340/1/6 335/1/6 341/1/6
f 342/3/6 343/3/6 346/3/6
f 346/3/6 343/3/6 347/3/6
f 344/1/6 345/1/6 350/1/6
f 345/3/6 346/3/6 351/3/6
f 350/1/6 345/1/6 351/1/6
f 347/4/6 348/4/6 352/4/6
f 351/3/6 346/3/6 352/3/6
f 346/4/6 347/4/6 352/4/6
f 352/4/6 348/4/6 353/4/6
f 353/4/6 348/4/6 354/4/6
f 350/4/6 351/4/6 357/4/6
f 349/4/6 350/4/6 357/4/6
f 351/4/6 352/4/6 357/4/6
f 352/4/6 353/4/6 357/4/6
f 357/4/6 353/4/6 358/4/6
f 358/4/6 353/4/6 359/4/6
f 359/4/6 353/4/6 360/4/6
f 354/3/6 355/3/6 361/3/6
f 360/4/6 353/4/6 361/4/6
f 353/3/6 354/3/6 361/3/6
f 361/3/6 355/3/6 362/3/6
f 356/3/6 357/3/6 364/3/6
f 357/3/6 358/3/6 364/3/6
f 364/3/6 358/3/6 365/3/6
f 365/3/6 358/3/6 366/3/6
f 366/3/6 358/3/6 367/3/6
f 359/1/6 360/1/6 368/1/6
f 362/4/6 363/4/6 369/4/6
f 361/4/6 362/4/6 369/4/6
f 368/1/6 360/1/6 369/1/6
f 360/4/6 361/4/6 369/4/6
f 369/4/6 363/4/6 370/4/6
f 370/4/6 363/4/6 371/4/6
f 371/4/6 363/4/6 372/4/6
f 365/1/6 366/1/6 373/1/6
f 366/2/6 367/2/6 374/2/6
f 373/1/6 366/1/6 374/1/6
f 367/4/6 368/4/6 375/4/6
f 374/2/6 367/2/6 375/2/6
f 368/3/6 369/3/6 376/3/6
f 375/4/6 368/4/6 376/4/6
f 369/3/6 370/3/6 376/3/6
f 376/3/6 370/3/6 377/3/6
f 370/4/6 371/4/6 378/4/6
f 377/3/6 370/3/6 378/3/6
f 378/4/6 371/4/6 379/4/6
f 379/4/6 371/4/6 380/4/6
f 376/4/6 377/4/6 381/4/6
f 375/4/6 376/4/6 381/4/6
f 381/4/6 377/4/6 382/4/6
f 377/3/6 378/3/6 383/3/6
f 382/4/6 377/4/6 383/4/6
f 383/3/6 378/3/6 384/3/6
f 382/4/6 383/4/6 385/4/6
f 385/4/6 383/4/6 386/4/6
f 387/2/6 388/2/6 389/2/6
f 389/2/6 388/2/6 390/2/6
f 391/2/6 392/2/6 395/2/6
f 395/2/6 392/2/6 396/2/6
f 393/2/6 394/2/6 397/2/6
f 397/2/6 394/2/6 398/2/6
f 399/2/6 400/2/6 401/2/6
f 401/2/6 400/2/6 402/2/6
