# MagicaVoxel @ Ephtracy

# group
o BismuthDeposit_S

# material
mtllib BismuthDeposit_S.mtl
usemtl palette

# normals
vn -1 0 0
vn 1 0 0
vn 0 0 1
vn 0 0 -1
vn 0 -1 0
vn 0 1 0

# texcoords
vt 0.291016 0.5
vt 0.298828 0.5
vt 0.357422 0.5
vt 0.361328 0.5

# verts
v -0.4 0 0.1
v -0.4 0 -0.2
v -0.4 0.1 0.1
v -0.4 0.1 0
v -0.4 0.1 -0.1
v -0.4 0.2 -0.1
v -0.4 0.2 -0.2
v -0.4 0.3 0
v -0.4 0.3 -0.1
v -0.3 0 0.2
v -0.3 0 0.1
v -0.3 0 -0.2
v -0.3 0 -0.3
v -0.3 0.1 0.2
v -0.3 0.1 0.1
v -0.3 0.1 -0.2
v -0.3 0.1 -0.3
v -0.3 0.2 -0.1
v -0.3 0.2 -0.2
v -0.3 0.3 -0.1
v -0.3 0.5 -0.1
v -0.3 0.5 -0.2
v -0.2 0.1 0.2
v -0.2 0.1 0.1
v -0.2 0.1 0
v -0.2 0.1 -0.2
v -0.2 0.1 -0.3
v -0.2 0.2 0.2
v -0.2 0.2 0.1
v -0.2 0.2 0
v -0.2 0.2 -0.2
v -0.2 0.2 -0.3
v -0.2 0.3 0.1
v -0.2 0.3 0
v -0.2 0.5 0.2
v -0.2 0.5 0.1
v -0.1 0 -0.3
v -0.1 0 -0.4
v -0.1 0.1 -0.3
v -0.1 0.1 -0.4
v -0.1 0.2 -0.2
v -0.1 0.2 -0.3
v -0.1 0.3 0
v -0.1 0.3 -0.1
v -0.1 0.3 -0.2
v -0.1 0.3 -0.3
v -0.1 0.4 0
v -0.1 0.4 -0.1
v -0.1 0.4 -0.3
v -0.1 0.4 -0.4
v -0.1 0.6 0
v -0.1 0.6 -0.1
v 0 0 0.3
v 0 0 0.2
v 0 0.2 0.3
v 0 0.2 0.2
v 0 0.2 0.1
v 0 0.3 0.2
v 0 0.3 0.1
v 0.1 0.3 0.1
v 0.1 0.3 0
v 0.1 0.3 -0.2
v 0.1 0.3 -0.3
v 0.1 0.5 -0.2
v 0.1 0.5 -0.3
v 0.1 0.6 0.1
v 0.1 0.6 0
v 0.3 0.1 -0.2
v 0.3 0.1 -0.3
v 0.3 0.2 -0.1
v 0.3 0.2 -0.2
v 0.3 0.3 -0.1
v 0.3 0.3 -0.2
v 0.3 0.4 -0.2
v 0.3 0.4 -0.3
v 0.4 0.3 0
v 0.4 0.3 -0.1
v 0.4 0.5 0
v 0.4 0.5 -0.1
v -0.2 0.3 -0.1
v -0.2 0.3 -0.2
v -0.2 0.5 -0.1
v -0.2 0.5 -0.2
v -0.1 0.2 0.2
v -0.1 0.2 0.1
v -0.1 0.3 0.1
v -0.1 0.5 0.2
v -0.1 0.5 0.1
v 0 0.3 0
v 0 0.3 -0.1
v 0 0.3 -0.3
v 0 0.3 -0.4
v 0 0.4 0
v 0 0.4 -0.1
v 0 0.4 -0.3
v 0 0.4 -0.4
v 0 0.6 0
v 0 0.6 -0.1
v 0.1 0 -0.3
v 0.1 0 -0.4
v 0.1 0.1 -0.3
v 0.1 0.1 -0.4
v 0.1 0.2 -0.3
v 0.1 0.2 -0.4
v 0.1 0.3 -0.3
v 0.1 0.3 -0.4
v 0.2 0.1 -0.2
v 0.2 0.1 -0.3
v 0.2 0.2 -0.1
v 0.2 0.2 -0.2
v 0.2 0.2 -0.3
v 0.2 0.3 0.1
v 0.2 0.3 0
v 0.2 0.3 -0.1
v 0.2 0.3 -0.2
v 0.2 0.5 -0.2
v 0.2 0.5 -0.3
v 0.2 0.6 0.1
v 0.2 0.6 0
v 0.3 0 0.3
v 0.3 0 0.2
v 0.3 0.1 0.3
v 0.3 0.1 0.2
v 0.3 0.2 0.3
v 0.3 0.2 0.2
v 0.3 0.2 0.1
v 0.3 0.3 0.2
v 0.3 0.3 0.1
v 0.4 0 0.2
v 0.4 0 0.1
v 0.4 0 -0.2
v 0.4 0 -0.3
v 0.4 0.1 0.2
v 0.4 0.1 0.1
v 0.4 0.1 -0.2
v 0.4 0.1 -0.3
v 0.4 0.2 0.2
v 0.4 0.2 0.1
v 0.4 0.2 0
v 0.4 0.2 -0.1
v 0.4 0.2 -0.2
v 0.4 0.3 0.1
v 0.4 0.3 0
v 0.4 0.3 -0.1
v 0.4 0.3 -0.2
v 0.4 0.4 -0.2
v 0.4 0.4 -0.3
v 0.5 0 0.1
v 0.5 0 0
v 0.5 0 -0.1
v 0.5 0 -0.2
v 0.5 0.1 0.1
v 0.5 0.1 0
v 0.5 0.2 0.1
v 0.5 0.2 0
v 0.5 0.2 -0.1
v 0.5 0.2 -0.2
v 0.5 0.5 0
v 0.5 0.5 -0.1
v 0 0 0.3
v 0 0.2 0.3
v 0.2 0.1 0.3
v 0.2 0.2 0.3
v 0.3 0 0.3
v 0.3 0.1 0.3
v 0.3 0.2 0.3
v -0.3 0 0.2
v -0.3 0.1 0.2
v -0.2 0.1 0.2
v -0.2 0.2 0.2
v -0.2 0.5 0.2
v -0.1 0.1 0.2
v -0.1 0.2 0.2
v -0.1 0.5 0.2
v 0 0 0.2
v 0 0.2 0.2
v 0 0.3 0.2
v 0.1 0.2 0.2
v 0.1 0.3 0.2
v 0.2 0.2 0.2
v 0.3 0 0.2
v 0.3 0.1 0.2
v 0.3 0.2 0.2
v 0.3 0.3 0.2
v 0.4 0 0.2
v 0.4 0.1 0.2
v 0.4 0.2 0.2
v -0.4 0 0.1
v -0.4 0.1 0.1
v -0.3 0 0.1
v -0.3 0.1 0.1
v -0.1 0.2 0.1
v -0.1 0.3 0.1
v 0 0.2 0.1
v 0 0.3 0.1
v 0.1 0.3 0.1
v 0.1 0.6 0.1
v 0.2 0.3 0.1
v 0.2 0.6 0.1
v 0.3 0.2 0.1
v 0.3 0.3 0.1
v 0.4 0 0.1
v 0.4 0.1 0.1
v 0.4 0.2 0.1
v 0.4 0.3 0.1
v 0.5 0 0.1
v 0.5 0.1 0.1
v 0.5 0.2 0.1
v -0.4 0.1 0
v -0.4 0.3 0
v -0.3 0.1 0
v -0.3 0.2 0
v -0.2 0.1 0
v -0.2 0.2 0
v -0.2 0.3 0
v -0.1 0.3 0
v -0.1 0.4 0
v -0.1 0.6 0
v 0 0.3 0
v 0 0.4 0
v 0 0.6 0
v 0.4 0.2 0
v 0.4 0.3 0
v 0.4 0.5 0
v 0.5 0.2 0
v 0.5 0.5 0
v -0.3 0.3 -0.1
v -0.3 0.5 -0.1
v -0.2 0.3 -0.1
v -0.2 0.5 -0.1
v 0.1 0.3 -0.2
v 0.1 0.5 -0.2
v 0.2 0.3 -0.2
v 0.2 0.5 -0.2
v 0.3 0.3 -0.2
v 0.3 0.4 -0.2
v 0.4 0.3 -0.2
v 0.4 0.4 -0.2
v -0.1 0.3 -0.3
v -0.1 0.4 -0.3
v 0 0.3 -0.3
v 0 0.4 -0.3
v -0.2 0.3 0.1
v -0.2 0.5 0.1
v -0.1 0.3 0.1
v -0.1 0.5 0.1
v 0.1 0.3 0
v 0.1 0.6 0
v 0.2 0.3 0
v 0.2 0.6 0
v -0.4 0.2 -0.1
v -0.4 0.3 -0.1
v -0.3 0.2 -0.1
v -0.3 0.3 -0.1
v -0.1 0.3 -0.1
v -0.1 0.4 -0.1
v -0.1 0.6 -0.1
v 0 0.3 -0.1
v 0 0.4 -0.1
v 0 0.6 -0.1
v 0.2 0.2 -0.1
v 0.2 0.3 -0.1
v 0.3 0.2 -0.1
v 0.3 0.3 -0.1
v 0.4 0.2 -0.1
v 0.4 0.3 -0.1
v 0.4 0.5 -0.1
v 0.5 0.2 -0.1
v 0.5 0.5 -0.1
v -0.4 0 -0.2
v -0.4 0.2 -0.2
v -0.3 0 -0.2
v -0.3 0.1 -0.2
v -0.3 0.2 -0.2
v -0.3 0.5 -0.2
v -0.2 0.1 -0.2
v -0.2 0.2 -0.2
v -0.2 0.3 -0.2
v -0.2 0.5 -0.2
v -0.1 0.2 -0.2
v -0.1 0.3 -0.2
v 0.2 0.1 -0.2
v 0.2 0.2 -0.2
v 0.3 0.1 -0.2
v 0.3 0.2 -0.2
v 0.4 0 -0.2
v 0.4 0.1 -0.2
v 0.4 0.2 -0.2
v 0.5 0 -0.2
v 0.5 0.2 -0.2
v -0.3 0 -0.3
v -0.3 0.1 -0.3
v -0.2 0.1 -0.3
v -0.2 0.2 -0.3
v -0.1 0 -0.3
v -0.1 0.1 -0.3
v -0.1 0.2 -0.3
v 0.1 0 -0.3
v 0.1 0.1 -0.3
v 0.1 0.2 -0.3
v 0.1 0.3 -0.3
v 0.1 0.5 -0.3
v 0.2 0.1 -0.3
v 0.2 0.2 -0.3
v 0.2 0.5 -0.3
v 0.3 0.1 -0.3
v 0.3 0.4 -0.3
v 0.4 0 -0.3
v 0.4 0.1 -0.3
v 0.4 0.4 -0.3
v -0.1 0 -0.4
v -0.1 0.1 -0.4
v -0.1 0.4 -0.4
v 0 0.1 -0.4
v 0 0.2 -0.4
v 0 0.3 -0.4
v 0 0.4 -0.4
v 0.1 0 -0.4
v 0.1 0.1 -0.4
v 0.1 0.2 -0.4
v 0.1 0.3 -0.4
v 0 0 0.3
v 0.3 0 0.3
v -0.3 0 0.2
v 0 0 0.2
v 0.3 0 0.2
v 0.4 0 0.2
v -0.4 0 0.1
v -0.3 0 0.1
v 0.4 0 0.1
v 0.5 0 0.1
v 0.4 0 0
v 0.5 0 0
v -0.3 0 -0.1
v -0.2 0 -0.1
v 0.4 0 -0.1
v 0.5 0 -0.1
v -0.4 0 -0.2
v -0.3 0 -0.2
v -0.2 0 -0.2
v 0.4 0 -0.2
v 0.5 0 -0.2
v -0.3 0 -0.3
v -0.1 0 -0.3
v 0.1 0 -0.3
v 0.4 0 -0.3
v -0.1 0 -0.4
v 0.1 0 -0.4
v -0.3 0.1 0.2
v -0.2 0.1 0.2
v -0.4 0.1 0.1
v -0.3 0.1 0.1
v -0.2 0.1 0.1
v -0.4 0.1 0
v -0.3 0.1 0
v -0.2 0.1 0
v -0.3 0.1 -0.2
v -0.2 0.1 -0.2
v 0.2 0.1 -0.2
v 0.3 0.1 -0.2
v -0.3 0.1 -0.3
v -0.2 0.1 -0.3
v 0.2 0.1 -0.3
v 0.3 0.1 -0.3
v 0 0.2 0.3
v 0.2 0.2 0.3
v 0.3 0.2 0.3
v -0.1 0.2 0.2
v 0 0.2 0.2
v 0.1 0.2 0.2
v 0.2 0.2 0.2
v 0.3 0.2 0.2
v 0.4 0.2 0.2
v -0.1 0.2 0.1
v 0 0.2 0.1
v 0.3 0.2 0.1
v 0.4 0.2 0.1
v 0.5 0.2 0.1
v 0.4 0.2 0
v 0.5 0.2 0
v -0.4 0.2 -0.1
v -0.3 0.2 -0.1
v 0.2 0.2 -0.1
v 0.3 0.2 -0.1
v 0.4 0.2 -0.1
v 0.5 0.2 -0.1
v -0.4 0.2 -0.2
v -0.3 0.2 -0.2
v -0.2 0.2 -0.2
v -0.1 0.2 -0.2
v 0.2 0.2 -0.2
v 0.3 0.2 -0.2
v 0.4 0.2 -0.2
v 0.5 0.2 -0.2
v -0.2 0.2 -0.3
v -0.1 0.2 -0.3
v 0 0.3 0.2
v 0.1 0.3 0.2
v 0.3 0.3 0.2
v -0.2 0.3 0.1
v -0.1 0.3 0.1
v 0 0.3 0.1
v 0.1 0.3 0.1
v 0.2 0.3 0.1
v 0.3 0.3 0.1
v 0.4 0.3 0.1
v -0.4 0.3 0
v -0.2 0.3 0
v -0.1 0.3 0
v 0 0.3 0
v 0.1 0.3 0
v 0.2 0.3 0
v 0.4 0.3 0
v -0.4 0.3 -0.1
v -0.3 0.3 -0.1
v -0.2 0.3 -0.1
v -0.1 0.3 -0.1
v 0 0.3 -0.1
v 0.2 0.3 -0.1
v 0.3 0.3 -0.1
v 0.4 0.3 -0.1
v -0.2 0.3 -0.2
v -0.1 0.3 -0.2
v 0 0.3 -0.2
v 0.1 0.3 -0.2
v 0.2 0.3 -0.2
v 0.3 0.3 -0.2
v 0.4 0.3 -0.2
v -0.1 0.3 -0.3
v 0 0.3 -0.3
v 0.1 0.3 -0.3
v 0 0.3 -0.4
v 0.1 0.3 -0.4
v 0.3 0.4 -0.2
v 0.4 0.4 -0.2
v -0.1 0.4 -0.3
v 0 0.4 -0.3
v 0.3 0.4 -0.3
v 0.4 0.4 -0.3
v -0.1 0.4 -0.4
v 0 0.4 -0.4
v -0.2 0.5 0.2
v -0.1 0.5 0.2
v -0.2 0.5 0.1
v -0.1 0.5 0.1
v 0.4 0.5 0
v 0.5 0.5 0
v -0.3 0.5 -0.1
v -0.2 0.5 -0.1
v 0.4 0.5 -0.1
v 0.5 0.5 -0.1
v -0.3 0.5 -0.2
v -0.2 0.5 -0.2
v 0.1 0.5 -0.2
v 0.2 0.5 -0.2
v 0.1 0.5 -0.3
v 0.2 0.5 -0.3
v 0.1 0.6 0.1
v 0.2 0.6 0.1
v -0.1 0.6 0
v 0 0.6 0
v 0.1 0.6 0
v 0.2 0.6 0
v -0.1 0.6 -0.1
v 0 0.6 -0.1

# faces
f 3/2/1 2/2/1 1/2/1
f 4/2/1 2/2/1 3/2/1
f 5/2/1 2/2/1 4/2/1
f 6/2/1 2/2/1 5/2/1
f 6/1/1 5/1/1 4/1/1
f 7/2/1 2/2/1 6/2/1
f 8/1/1 6/1/1 4/1/1
f 9/1/1 6/1/1 8/1/1
f 14/2/1 11/2/1 10/2/1
f 15/2/1 11/2/1 14/2/1
f 16/2/1 13/2/1 12/2/1
f 17/2/1 13/2/1 16/2/1
f 20/4/1 19/4/1 18/4/1
f 21/4/1 19/4/1 20/4/1
f 22/4/1 19/4/1 21/4/1
f 28/3/1 24/3/1 23/3/1
f 29/2/1 25/2/1 24/2/1
f 29/3/1 24/3/1 28/3/1
f 30/2/1 25/2/1 29/2/1
f 31/1/1 27/1/1 26/1/1
f 32/1/1 27/1/1 31/1/1
f 33/2/1 30/2/1 29/2/1
f 33/4/1 29/4/1 28/4/1
f 34/2/1 30/2/1 33/2/1
f 35/4/1 33/4/1 28/4/1
f 36/4/1 33/4/1 35/4/1
f 39/2/1 38/2/1 37/2/1
f 40/2/1 38/2/1 39/2/1
f 42/4/1 40/4/1 39/4/1
f 45/2/1 42/2/1 41/2/1
f 46/4/1 40/4/1 42/4/1
f 46/2/1 42/2/1 45/2/1
f 47/3/1 44/3/1 43/3/1
f 48/3/1 44/3/1 47/3/1
f 49/4/1 40/4/1 46/4/1
f 50/4/1 40/4/1 49/4/1
f 51/4/1 48/4/1 47/4/1
f 52/4/1 48/4/1 51/4/1
f 55/2/1 54/2/1 53/2/1
f 56/2/1 54/2/1 55/2/1
f 58/1/1 57/1/1 56/1/1
f 59/1/1 57/1/1 58/1/1
f 64/4/1 63/4/1 62/4/1
f 65/4/1 63/4/1 64/4/1
f 66/4/1 61/4/1 60/4/1
f 67/4/1 61/4/1 66/4/1
f 71/4/1 69/4/1 68/4/1
f 72/2/1 71/2/1 70/2/1
f 73/4/1 69/4/1 71/4/1
f 73/2/1 71/2/1 72/2/1
f 74/4/1 69/4/1 73/4/1
f 75/4/1 69/4/1 74/4/1
f 78/4/1 77/4/1 76/4/1
f 79/4/1 77/4/1 78/4/1
f 80/4/2 81/4/2 82/4/2
f 82/4/2 81/4/2 83/4/2
f 84/4/2 85/4/2 86/4/2
f 84/4/2 86/4/2 87/4/2
f 87/4/2 86/4/2 88/4/2
f 89/3/2 90/3/2 93/3/2
f 93/3/2 90/3/2 94/3/2
f 91/4/2 92/4/2 95/4/2
f 95/4/2 92/4/2 96/4/2
f 93/4/2 94/4/2 97/4/2
f 97/4/2 94/4/2 98/4/2
f 99/2/2 100/2/2 101/2/2
f 101/2/2 100/2/2 102/2/2
f 101/1/2 102/1/2 103/1/2
f 103/1/2 102/1/2 104/1/2
f 103/2/2 104/2/2 105/2/2
f 105/2/2 104/2/2 106/2/2
f 107/3/2 108/3/2 110/3/2
f 110/3/2 108/3/2 111/3/2
f 109/1/2 110/1/2 114/1/2
f 110/4/2 111/4/2 115/4/2
f 114/1/2 110/1/2 115/1/2
f 115/4/2 111/4/2 116/4/2
f 116/4/2 111/4/2 117/4/2
f 112/4/2 113/4/2 118/4/2
f 118/4/2 113/4/2 119/4/2
f 120/2/2 121/2/2 122/2/2
f 122/2/2 121/2/2 123/2/2
f 122/1/2 123/1/2 124/1/2
f 124/1/2 123/1/2 125/1/2
f 125/2/2 126/2/2 127/2/2
f 127/2/2 126/2/2 128/2/2
f 129/2/2 130/2/2 133/2/2
f 133/2/2 130/2/2 134/2/2
f 131/2/2 132/2/2 135/2/2
f 135/2/2 132/2/2 136/2/2
f 133/1/2 134/1/2 137/1/2
f 137/1/2 134/1/2 138/1/2
f 135/4/2 136/4/2 141/4/2
f 138/1/2 139/1/2 142/1/2
f 142/1/2 139/1/2 143/1/2
f 140/2/2 141/2/2 144/2/2
f 141/4/2 136/4/2 145/4/2
f 144/2/2 141/2/2 145/2/2
f 145/4/2 136/4/2 146/4/2
f 146/4/2 136/4/2 147/4/2
f 148/1/2 149/1/2 152/1/2
f 149/3/2 150/3/2 153/3/2
f 152/1/2 149/1/2 153/1/2
f 152/2/2 153/2/2 154/2/2
f 153/3/2 150/3/2 155/3/2
f 154/2/2 153/2/2 155/2/2
f 150/2/2 151/2/2 156/2/2
f 155/3/2 150/3/2 156/3/2
f 156/2/2 151/2/2 157/2/2
f 155/4/2 156/4/2 158/4/2
f 158/4/2 156/4/2 159/4/2
f 162/2/3 161/2/3 160/2/3
f 163/2/3 161/2/3 162/2/3
f 164/2/3 162/2/3 160/2/3
f 165/1/3 163/1/3 162/1/3
f 165/2/3 162/2/3 164/2/3
f 166/1/3 163/1/3 165/1/3
f 169/2/3 168/2/3 167/2/3
f 172/2/3 169/2/3 167/2/3
f 172/3/3 170/3/3 169/3/3
f 173/4/3 171/4/3 170/4/3
f 173/3/3 170/3/3 172/3/3
f 174/4/3 171/4/3 173/4/3
f 175/2/3 172/2/3 167/2/3
f 175/2/3 173/2/3 172/2/3
f 176/2/3 173/2/3 175/2/3
f 178/1/3 177/1/3 176/1/3
f 179/1/3 177/1/3 178/1/3
f 180/2/3 179/2/3 178/2/3
f 183/2/3 179/2/3 180/2/3
f 184/2/3 179/2/3 183/2/3
f 185/2/3 182/2/3 181/2/3
f 186/1/3 183/1/3 182/1/3
f 186/2/3 182/2/3 185/2/3
f 187/1/3 183/1/3 186/1/3
f 190/2/3 189/2/3 188/2/3
f 191/2/3 189/2/3 190/2/3
f 194/2/3 193/2/3 192/2/3
f 195/2/3 193/2/3 194/2/3
f 198/4/3 197/4/3 196/4/3
f 199/4/3 197/4/3 198/4/3
f 204/1/3 201/1/3 200/1/3
f 205/1/3 201/1/3 204/1/3
f 206/1/3 203/1/3 202/1/3
f 207/2/3 204/2/3 203/2/3
f 207/1/3 203/1/3 206/1/3
f 208/2/3 204/2/3 207/2/3
f 211/1/3 210/1/3 209/1/3
f 212/1/3 210/1/3 211/1/3
f 213/2/3 212/2/3 211/2/3
f 214/1/3 210/1/3 212/1/3
f 214/2/3 212/2/3 213/2/3
f 215/1/3 210/1/3 214/1/3
f 219/3/3 217/3/3 216/3/3
f 220/4/3 218/4/3 217/4/3
f 220/3/3 217/3/3 219/3/3
f 221/4/3 218/4/3 220/4/3
f 225/4/3 223/4/3 222/4/3
f 225/4/3 224/4/3 223/4/3
f 226/4/3 224/4/3 225/4/3
f 229/4/3 228/4/3 227/4/3
f 230/4/3 228/4/3 229/4/3
f 233/4/3 232/4/3 231/4/3
f 234/4/3 232/4/3 233/4/3
f 237/4/3 236/4/3 235/4/3
f 238/4/3 236/4/3 237/4/3
f 241/4/3 240/4/3 239/4/3
f 242/4/3 240/4/3 241/4/3
f 243/4/4 244/4/4 245/4/4
f 245/4/4 244/4/4 246/4/4
f 247/4/4 248/4/4 249/4/4
f 249/4/4 248/4/4 250/4/4
f 251/1/4 252/1/4 253/1/4
f 253/1/4 252/1/4 254/1/4
f 255/3/4 256/3/4 258/3/4
f 256/4/4 257/4/4 259/4/4
f 258/3/4 256/3/4 259/3/4
f 259/4/4 257/4/4 260/4/4
f 261/2/4 262/2/4 263/2/4
f 263/2/4 262/2/4 264/2/4
f 265/4/4 266/4/4 268/4/4
f 266/4/4 267/4/4 268/4/4
f 268/4/4 267/4/4 269/4/4
f 270/2/4 271/2/4 272/2/4
f 272/2/4 271/2/4 273/2/4
f 273/2/4 271/2/4 274/2/4
f 273/3/4 274/3/4 276/3/4
f 274/4/4 275/4/4 277/4/4
f 276/3/4 274/3/4 277/3/4
f 277/4/4 275/4/4 278/4/4
f 278/4/4 275/4/4 279/4/4
f 277/2/4 278/2/4 280/2/4
f 280/2/4 278/2/4 281/2/4
f 282/2/4 283/2/4 284/2/4
f 284/2/4 283/2/4 285/2/4
f 286/2/4 287/2/4 289/2/4
f 287/2/4 288/2/4 289/2/4
f 289/2/4 288/2/4 290/2/4
f 291/2/4 292/2/4 293/2/4
f 291/2/4 293/2/4 295/2/4
f 293/1/4 294/1/4 296/1/4
f 295/2/4 293/2/4 296/2/4
f 296/1/4 294/1/4 297/1/4
f 299/3/4 300/3/4 303/3/4
f 298/2/4 299/2/4 303/2/4
f 301/4/4 302/4/4 304/4/4
f 303/3/4 300/3/4 304/3/4
f 300/4/4 301/4/4 304/4/4
f 304/4/4 302/4/4 305/4/4
f 298/2/4 303/2/4 306/2/4
f 298/2/4 306/2/4 308/2/4
f 306/4/4 307/4/4 309/4/4
f 308/2/4 306/2/4 309/2/4
f 309/4/4 307/4/4 310/4/4
f 311/2/4 312/2/4 314/2/4
f 312/4/4 313/4/4 314/4/4
f 314/4/4 313/4/4 315/4/4
f 315/4/4 313/4/4 316/4/4
f 316/4/4 313/4/4 317/4/4
f 311/2/4 314/2/4 318/2/4
f 314/1/4 315/1/4 319/1/4
f 318/2/4 314/2/4 319/2/4
f 315/2/4 316/2/4 320/2/4
f 319/1/4 315/1/4 320/1/4
f 320/2/4 316/2/4 321/2/4
f 325/2/5 323/2/5 322/2/5
f 326/2/5 323/2/5 325/2/5
f 329/2/5 325/2/5 324/2/5
f 329/2/5 327/2/5 326/2/5
f 329/2/5 326/2/5 325/2/5
f 330/2/5 327/2/5 329/2/5
f 332/2/5 329/2/5 328/2/5
f 332/1/5 331/1/5 330/1/5
f 332/2/5 330/2/5 329/2/5
f 333/1/5 331/1/5 332/1/5
f 334/2/5 332/2/5 328/2/5
f 335/2/5 332/2/5 334/2/5
f 336/3/5 333/3/5 332/3/5
f 336/2/5 332/2/5 335/2/5
f 337/3/5 333/3/5 336/3/5
f 338/2/5 334/2/5 328/2/5
f 339/4/5 335/4/5 334/4/5
f 339/2/5 334/2/5 338/2/5
f 340/2/5 336/2/5 335/2/5
f 340/4/5 335/4/5 339/4/5
f 340/2/5 337/2/5 336/2/5
f 341/2/5 337/2/5 340/2/5
f 342/2/5 337/2/5 341/2/5
f 343/2/5 340/2/5 339/2/5
f 343/2/5 341/2/5 340/2/5
f 344/2/5 341/2/5 343/2/5
f 345/2/5 341/2/5 344/2/5
f 346/2/5 341/2/5 345/2/5
f 347/2/5 345/2/5 344/2/5
f 348/2/5 345/2/5 347/2/5
f 349/2/6 350/2/6 352/2/6
f 352/2/6 350/2/6 353/2/6
f 351/2/6 352/2/6 354/2/6
f 352/2/6 353/2/6 354/2/6
f 354/2/6 353/2/6 355/2/6
f 355/2/6 353/2/6 356/2/6
f 357/2/6 358/2/6 361/2/6
f 361/2/6 358/2/6 362/2/6
f 359/2/6 360/2/6 363/2/6
f 363/2/6 360/2/6 364/2/6
f 365/2/6 366/2/6 369/2/6
f 369/2/6 366/2/6 370/2/6
f 366/1/6 367/1/6 371/1/6
f 370/2/6 366/2/6 371/2/6
f 371/1/6 367/1/6 372/1/6
f 368/2/6 369/2/6 374/2/6
f 374/2/6 369/2/6 375/2/6
f 372/1/6 373/1/6 376/1/6
f 376/1/6 373/1/6 377/1/6
f 377/2/6 378/2/6 379/2/6
f 379/2/6 378/2/6 380/2/6
f 381/2/6 382/2/6 387/2/6
f 387/2/6 382/2/6 388/2/6
f 383/2/6 384/2/6 391/2/6
f 391/2/6 384/2/6 392/2/6
f 385/2/6 386/2/6 393/2/6
f 393/2/6 386/2/6 394/2/6
f 389/1/6 390/1/6 395/1/6
f 395/1/6 390/1/6 396/1/6
f 397/1/6 398/1/6 402/1/6
f 398/2/6 399/2/6 403/2/6
f 402/1/6 398/1/6 403/1/6
f 403/2/6 399/2/6 404/2/6
f 404/2/6 399/2/6 405/2/6
f 400/2/6 401/2/6 408/2/6
f 401/2/6 402/2/6 408/2/6
f 402/2/6 403/2/6 408/2/6
f 408/2/6 403/2/6 409/2/6
f 409/2/6 403/2/6 410/2/6
f 410/2/6 403/2/6 411/2/6
f 404/1/6 405/1/6 412/1/6
f 405/1/6 406/1/6 412/1/6
f 412/1/6 406/1/6 413/1/6
f 407/1/6 408/1/6 414/1/6
f 408/1/6 409/1/6 414/1/6
f 414/1/6 409/1/6 415/1/6
f 415/1/6 409/1/6 416/1/6
f 416/1/6 409/1/6 417/1/6
f 410/2/6 411/2/6 418/2/6
f 412/2/6 413/2/6 418/2/6
f 411/2/6 412/2/6 418/2/6
f 418/2/6 413/2/6 419/2/6
f 419/2/6 413/2/6 420/2/6
f 420/2/6 413/2/6 421/2/6
f 416/2/6 417/2/6 422/2/6
f 417/2/6 418/2/6 422/2/6
f 422/2/6 418/2/6 423/2/6
f 418/1/6 419/1/6 424/1/6
f 423/2/6 418/2/6 424/2/6
f 424/1/6 419/1/6 425/1/6
f 425/1/6 419/1/6 426/1/6
f 420/2/6 421/2/6 427/2/6
f 427/2/6 421/2/6 428/2/6
f 423/2/6 424/2/6 429/2/6
f 424/2/6 425/2/6 429/2/6
f 429/2/6 425/2/6 430/2/6
f 430/2/6 425/2/6 431/2/6
f 430/2/6 431/2/6 432/2/6
f 432/2/6 431/2/6 433/2/6
f 434/4/6 435/4/6 438/4/6
f 438/4/6 435/4/6 439/4/6
f 436/4/6 437/4/6 440/4/6
f 440/4/6 437/4/6 441/4/6
f 442/4/6 443/4/6 444/4/6
f 444/4/6 443/4/6 445/4/6
f 446/4/6 447/4/6 450/4/6
f 450/4/6 447/4/6 451/4/6
f 448/4/6 449/4/6 452/4/6
f 452/4/6 449/4/6 453/4/6
f 454/4/6 455/4/6 456/4/6
f 456/4/6 455/4/6 457/4/6
f 458/4/6 459/4/6 462/4/6
f 462/4/6 459/4/6 463/4/6
f 460/4/6 461/4/6 464/4/6
f 464/4/6 461/4/6 465/4/6
